<svg xmlns="http://www.w3.org/2000/svg" width="66" height="48.4" style="isolation:isolate"><defs><clipPath id="a"><path d="M0 0h66v48.4H0z"/></clipPath></defs><g fill="#B9B9B9" clip-path="url(#a)"><path d="m24.8 25.8-2.6-7.7c-.1-.4-.5-.7-.9-.7s-.8.3-.9.7l-2.6 7.7-1.3 4c-.2.5.1 1.1.6 1.2.5.2 1.1-.1 1.2-.6l1.1-3.2h3.8l1.1 3.2c.1.4.5.7.9.7.1 0 .2 0 .3-.1.5-.2.8-.7.6-1.2l-1.3-4Zm-4.7-.6 1.2-3.7 1.2 3.7h-2.4ZM43.7 17.4c-2.1 0-3.9 1.7-3.9 3.9 0 2.1 1.7 3.9 3.9 3.9h1.9c1.1 0 1.9.9 1.9 1.9 0 1.1-.9 1.9-1.9 1.9h-4.9c-.5 0-1 .4-1 1 0 .5.4 1 1 1h4.9c2.1 0 3.9-1.7 3.9-3.9 0-2.1-1.7-3.9-3.9-3.9h-1.9c-1.1 0-1.9-.9-1.9-1.9 0-1.1.9-1.9 1.9-1.9h4.9c.5 0 1-.4 1-1 0-.5-.4-1-1-1h-4.9ZM37.9 21.3c0-2.1-1.7-3.9-3.9-3.9h-4.9c-.5 0-1 .4-1 1v11.7c0 .5.4 1 1 1H34c2.1 0 3.9-1.7 3.9-3.9 0-1.2-.5-2.2-1.3-2.9.7-.8 1.3-1.8 1.3-3ZM34 29.1h-3.9v-3.9H34c1.1 0 1.9.9 1.9 1.9 0 1.1-.9 2-1.9 2Zm0-5.9h-3.9v-3.9H34c1.1 0 1.9.9 1.9 1.9 0 1.2-.9 2-1.9 2Z"/><path d="M33 0C19.7 0 8.8 10.9 8.8 24.2c0 13.3 10.9 24.2 24.2 24.2 13.3 0 24.2-10.9 24.2-24.2C57.2 10.9 46.3 0 33 0Zm0 46.2c-12.1 0-22-9.9-22-22s9.9-22 22-22 22 9.9 22 22-9.9 22-22 22Z"/><path d="M11.2 2.4c.4-.4.4-1.1 0-1.5-.4-.4-1.1-.4-1.5 0-12.9 12.9-12.9 33.8 0 46.7.2.2.4.3.8.3.3 0 .6-.1.8-.3.4-.4.4-1.1 0-1.5C-.8 34-.8 14.4 11.2 2.4ZM56.3.9c-.4-.4-1.1-.4-1.5 0-.4.4-.4 1.1 0 1.5 12 12 12 31.6 0 43.6-.4.4-.4 1.1 0 1.5.2.2.4.3.8.3.3 0 .6-.1.8-.3C69.2 34.7 69.2 13.8 56.3.9Z"/></g></svg>
