<svg xmlns="http://www.w3.org/2000/svg" id="Layer_1" data-name="Layer 1" version="1.1" viewBox="0 0 64 64"><defs id="defs4"><style id="style2">.cls-1{fill:#666}</style></defs><path id="path8" d="M35.05 43.257a4.866 4.866 0 0 0 4.922-4.879 4.892 4.892 0 1 0-9.784-.024 4.878 4.878 0 0 0 4.862 4.903Z" class="cls-1" style="fill:#b9b9b9;fill-opacity:1"/><path id="path10" d="M35.05 43.257a4.866 4.866 0 0 0 4.922-4.879 4.892 4.892 0 1 0-9.784-.024 4.878 4.878 0 0 0 4.862 4.903Z" style="fill:#b9b9b9;fill-opacity:1"/><path id="path12" d="M27.875 33.706c.134.14.117.255.018.424a8.068 8.068 0 0 0-1.125 3.396 8.176 8.176 0 0 0 2.007 6.323 8.378 8.378 0 0 0 4.354 2.655 7.82 7.82 0 0 0 3.155.12 8.34 8.34 0 0 0 5.283-13.438 8.422 8.422 0 0 0-2.747-2.237 7.461 7.461 0 0 0-2.817-.851 7.828 7.828 0 0 0-5.15 1.122.44.44 0 0 1-.665-.1c-.15-.186-.33-.349-.498-.52l-2.83-2.896c-.635-.652-1.262-1.312-1.9-1.962-.99-1.013-1.99-2.019-2.981-3.03-.788-.804-1.556-1.627-2.364-2.41-.234-.227-.207-.375-.008-.542a22.635 22.635 0 0 1 3.497-2.419 25.797 25.797 0 0 1 2.856-1.374 23.451 23.451 0 0 1 6.54-1.587c.32-.032.461.063.45.414-.022.751-.011 1.503-.007 2.254a1.582 1.582 0 0 0 .44 1.093 1.818 1.818 0 0 0 1.951.468 1.74 1.74 0 0 0 1.079-1.645 96.04 96.04 0 0 0-.008-2.214c-.005-.275.089-.405.373-.372.106.012.215.005.321.017a23.214 23.214 0 0 1 9.877 3.378 24.63 24.63 0 0 1 2.679 1.913c.246.205.283.356.02.598-.522.48-1.02.99-1.512 1.503a1.727 1.727 0 0 0 .106 2.626 1.76 1.76 0 0 0 2.463-.248c.487-.48.965-.968 1.446-1.454.141-.144.277-.286.447-.037l1.662 2.26v-.001l.083.164-.006-.006.071.062.098.142.056.102.035.097a.143.143 0 0 1 .103.145l.046.109a.472.472 0 0 1 .213.312.034.034 0 0 1 .026.035l.06.11.023.088.099.147a18.198 18.198 0 0 1 1.66 3.637 23.496 23.496 0 0 1 1.196 5.48c.033.318-.054.443-.377.437-.697-.013-1.394-.008-2.09-.007a1.755 1.755 0 1 0-.104 3.505c.71.013 1.42-.003 2.131-.002.182 0 .43-.03.422.234a7.636 7.636 0 0 1-.291 2.126 14.06 14.06 0 0 1-.87 3.393l-.014.082a13.176 13.176 0 0 1-1.183 2.788 2.034 2.034 0 0 1-.353.755 22.854 22.854 0 0 1-2.587 3.841c-.222.27-.382.249-.606.012-.42-.446-.88-.857-1.29-1.312a2.072 2.072 0 0 0-1.619-.742l-.783.277a1.75 1.75 0 0 0-.303 2.687c1.169 1.183 2.352 2.352 3.524 3.53a1.879 1.879 0 0 0 2.95-.036 28.131 28.131 0 0 0 3.868-4.962 27.574 27.574 0 0 0 2.566-5.528 28.383 28.383 0 0 0 1.245-12.45 27.292 27.292 0 0 0-1.802-6.856 29.606 29.606 0 0 0-2.531-4.829c-.513-.798-1.13-1.521-1.63-2.327-.129-.137-.261-.27-.384-.412a28.326 28.326 0 0 0-6.321-5.493 27.86 27.86 0 0 0-24.841-2.525c-1.206.455-2.35 1.04-3.51 1.595-.731.462-1.47.913-2.193 1.39a24.212 24.212 0 0 0-3.46 2.783c-.091.087-.17.211-.357.219a5.572 5.572 0 0 0 .097-1.944c-.01-2.332-.027-4.663-.031-6.995a6.04 6.04 0 0 1-.015-1.352c-.25-.347-.476-.365-.81-.046-.29.277-.569.568-.853.851a1.127 1.127 0 0 1-1.864.02Q9.926 6.421 8.075 4.576a.983.983 0 0 0-1.401-.149 4.774 4.774 0 0 0-.795.735c-1.33 1.321-2.644 2.66-3.987 3.967a1.246 1.246 0 0 0-.008 1.806c1.257 1.188 2.44 2.453 3.692 3.645a1.136 1.136 0 0 1 .026 1.692c-.342.34-.673.692-1.003 1.043-.283.3-.262.483.074.755l3.17.037c1.824.022 3.647.052 5.47.06a3.456 3.456 0 0 0 1.614-.149c.037.181-.067.242-.138.313a27.068 27.068 0 0 0-4.058 5.27c-.068.113-.149.22-.223.33-.056.12-.105.245-.17.36a26.925 26.925 0 0 0-1.45 3.048 27.735 27.735 0 0 0 4.266 27.986 12.983 12.983 0 0 0 2.483 2.558 2.123 2.123 0 0 0 1.57-.316 14.072 14.072 0 0 0 1.73-1.612c.156-.144.004-.265-.09-.375-.668-.783-1.332-1.57-2.007-2.348a22.98 22.98 0 0 1-4.663-8.712 26.204 26.204 0 0 1-.87-4.654c-.031-.29.065-.378.35-.374.737.01 1.475-.001 2.213-.012a1.744 1.744 0 1 0-.048-3.486q-1.086-.015-2.173-.002c-.29.004-.375-.117-.345-.39a26.118 26.118 0 0 1 .575-3.405 23.29 23.29 0 0 1 4.774-9.462c.182-.218.25-.166.411.002.907.945 1.825 1.88 2.741 2.816m4.783 4.47 10.545 3.45a4.928 4.928 0 0 1 4.839 4.905 4.892 4.892 0 0 1-9.784-.024 4.915 4.915 0 0 1 4.945-4.881Z" class="cls-1" style="fill:#b9b9b9;fill-opacity:1"/></svg>
