<svg xmlns="http://www.w3.org/2000/svg" width="66" height="44" style="isolation:isolate"><defs><clipPath id="a"><path d="M0 0h66v44H0z"/></clipPath></defs><g clip-path="url(#a)"><path fill="#B9B9B9" d="M64.9 13.2h-4.4c-.4 0-.9.3-1 .8l-3.1 9.1h-3l-3-5c-.2-.3-.6-.6-1-.6H45v-3.3c0-.7-.4-1.1-1.1-1.1h-7.7V8.8h3.3c.7 0 1.1-.4 1.1-1.1V1.1c0-.7-.4-1.1-1.1-1.1H19.8c-.7 0-1.1.4-1.1 1.1v6.6c0 .7.4 1.1 1.1 1.1h3.3v4.4h-8.8c-.3 0-.6.1-.8.3-.2.2-.3.4-.3.8v3.3H5.5c-.7 0-1.1.4-1.1 1.1v6.6H2.2V22c0-.7-.4-1.1-1.1-1.1-.7 0-1.1.4-1.1 1.1v8.8c0 .7.4 1.1 1.1 1.1.7 0 1.1-.4 1.1-1.1v-3.3h2.2v8.8c0 .7.4 1.1 1.1 1.1h8.3l4.1 6.2c.2.2.6.4.9.4h30.8c.4 0 .8-.2 1-.7l3-5.9h3.1l3 5.9c.2.4.5.7 1 .7h4.4c.7 0 1.1-.4 1.1-1.1V14.3c-.2-.7-.6-1.1-1.3-1.1Zm-44-11h17.6v4.4H20.9V2.2Zm4.4 6.6h8.8v4.4h-8.8V8.8ZM6.6 35.2V19.8h6.6v15.4H6.6Zm42.1 6.6H19.3L15.4 36V15.4h27.5v3.3c0 .7.4 1.1 1.1 1.1h4.8l2.9 4.8v11.3l-3 5.9Zm5.2-6.6v-9.9h2.2v9.9h-2.2Zm9.9 6.6h-2.6l-2.9-5.5V24.2l3-8.8h2.5v26.4Z"/></g></svg>
