<svg xmlns="http://www.w3.org/2000/svg" width="200" height="200"><g fill="none" stroke="#000" stroke-width="10"><path d="M38.305 171.82V33.66c0-2.4 1.932-4.331 4.331-4.331h62.337c2.4 0 4.332 1.931 4.332 4.331v138.16M38.305 84.414h71M26.559 171.82h94.492M157.64 55.626l9.455 80.332a18.327 18.327 0 0 1-23.454 19.72c-7.757-2.321-13.07-9.459-13.123-17.555l-.053-37.547c0-8.926-7.236-16.161-16.161-16.161"/></g><path d="M125.21 23.179v10.102c3.385 1.471 6.771 2.943 11.189 6.394 4.418 3.452 9.868 8.881 13.15 15.35 3.282 6.47 4.396 13.977 5.51 21.483l18.377-8.5a81.074 81.074 0 0 0-48.227-44.829z"/></svg>
