<svg xmlns="http://www.w3.org/2000/svg" width="64" height="64" viewBox="0 0 67 64">
  <defs>
    <clipPath id="a">
      <path d="M0 0h66.3v46.4H0z"/>
    </clipPath>
  </defs>
  <g fill="#B9B9B9" clip-path="url(#a)">
    <path d="M33.1 0h.1c10.8 0 21 3.8 27.1 9.8 3.9 4 6 8.5 6 13.4 0 12.7-14.9 23.2-33.2 23.2-.4 0-1-.3-1.1-.8-4.4-14.7-4.4-30.1 0-44.8.2-.5.6-.8 1.1-.8Zm.7 44.3C50.6 44 64 34.7 64 23.3c0-4.2-1.9-8.3-5.4-11.8C53 5.8 43.7 2.3 33.8 2.2c-3.9 13.8-3.9 28.3 0 42.1ZM1.2 16.6h24.2c.7 0 1.1.4 1.1 1.1 0 .7-.4 1.1-1.1 1.1H1.1c-.7 0-1.1-.4-1.1-1.1.1-.7.5-1.1 1.2-1.1ZM1.2 27.6h24.2c.7 0 1.1.4 1.1 1.1 0 .7-.4 1.1-1.1 1.1H1.1c-.7 0-1.1-.4-1.1-1.1.1-.7.5-1.1 1.2-1.1ZM1.213 38.8h24.2c.7 0 1.1.4 1.1 1.1 0 .7-.4 1.1-1.1 1.1h-24.3c-.7 0-1.1-.4-1.1-1.1.1-.6.5-1.1 1.2-1.1ZM25.4 7.7H1.1C.4 7.7 0 7.3 0 6.6c0-.7.4-1.1 1.1-1.1h24.3c.7 0 1.1.4 1.1 1.1.1.7-.4 1.1-1.1 1.1Z"/>
  </g>
</svg>
