<svg xmlns="http://www.w3.org/2000/svg" width="66" height="48.4" style="isolation:isolate"><defs><clipPath id="a"><path d="M0 0h66v48.4H0z"/></clipPath></defs><g fill="#B9B9B9" clip-path="url(#a)"><path d="M33 0C19.7 0 8.8 10.9 8.8 24.2c0 13.3 10.9 24.2 24.2 24.2 13.3 0 24.2-10.9 24.2-24.2C57.2 10.9 46.3 0 33 0Zm0 46.2c-12.1 0-22-9.9-22-22s9.9-22 22-22 22 9.9 22 22-9.9 22-22 22Z"/><path d="M11.2 2.4c.4-.4.4-1.1 0-1.5-.4-.4-1.1-.4-1.5 0-12.9 12.9-12.9 33.8 0 46.7.2.2.4.3.8.3.3 0 .6-.1.8-.3.4-.4.4-1.1 0-1.5C-.8 34-.8 14.4 11.2 2.4ZM56.3.9c-.4-.4-1.1-.4-1.5 0-.4.4-.4 1.1 0 1.5 12 12 12 31.6 0 43.6-.4.4-.4 1.1 0 1.5.2.2.4.3.8.3.3 0 .6-.1.8-.3C69.2 34.7 69.2 13.8 56.3.9ZM33 30.8c1.9 0 3.3-1.4 3.3-3.3V8.8c0-1.9-1.4-3.3-3.3-3.3s-3.3 1.4-3.3 3.3v18.7c0 1.9 1.4 3.3 3.3 3.3Zm-1.1-22c0-.7.4-1.1 1.1-1.1.7 0 1.1.4 1.1 1.1v18.7c0 .7-.4 1.1-1.1 1.1-.7 0-1.1-.4-1.1-1.1V8.8ZM33 34.1c-2.4 0-4.4 2-4.4 4.4 0 2.4 2 4.4 4.4 4.4 2.4 0 4.4-2 4.4-4.4 0-2.4-2-4.4-4.4-4.4Zm0 6.6c-1.2 0-2.2-1-2.2-2.2 0-1.2 1-2.2 2.2-2.2 1.2 0 2.2 1 2.2 2.2 0 1.2-1 2.2-2.2 2.2Z"/></g></svg>
