<?xml version="1.0" encoding="UTF-8"?><svg id="Layer_2" xmlns="http://www.w3.org/2000/svg" viewBox="0 0 100 100"><defs><style>.cls-1{fill:#fff;}</style></defs><path class="cls-1" d="m41.63,74.74c-6.81,0-16.36-1.1-23.02-6.35-4.51-3.56-7.05-8.52-7.55-14.74-.61-7.65,1.44-13.83,6.11-18.36,10.84-10.54,31.83-8.39,32.72-8.29.52.06.97.38,1.2.85.39.84,9.56,20.82.04,45.4-.19.5-.64.86-1.17.94-.33.05-3.7.56-8.33.56Zm3.02-44.97c-6.68,0-18.56,1.02-25.4,7.67-3.99,3.88-5.75,9.26-5.21,15.97.43,5.36,2.59,9.6,6.41,12.62,8.91,7.04,24.39,5.74,28.18,5.3,7.53-20.34,1.58-37.61.06-41.43-.84-.06-2.26-.13-4.05-.13Z"/><path class="cls-1" d="m71.64,73.28c-.4,0-.79-.16-1.09-.47-.57-.6-.55-1.55.05-2.12,4.04-3.84,6.06-7.97,6.01-12.25-.03-2.47-1.14-4.94-3.13-6.97-1.01-1.02-2.22-2.83-2.3-5.61-.06-2.03.6-3.94,1.89-5.52,1.28-1.56,2.02-3.58,2.14-5.82l.4-7.82c.04-.83.72-1.45,1.58-1.42.83.04,1.46.75,1.42,1.58l-.4,7.82c-.15,2.89-1.12,5.51-2.82,7.57-.84,1.03-1.25,2.22-1.21,3.53.04,1.45.53,2.66,1.45,3.59,2.54,2.58,3.95,5.79,3.99,9.04.04,3.54-1.13,8.93-6.94,14.46-.29.28-.66.41-1.03.41Z"/><path class="cls-1" d="m87.55,43.15c-.08,0-.16,0-.24-.02l-24.13-3.91c-.82-.13-1.37-.9-1.24-1.72.13-.82.9-1.38,1.72-1.24l24.13,3.91c.82.13,1.37.9,1.24,1.72-.12.74-.76,1.26-1.48,1.26Z"/><path class="cls-1" d="m86.94,54.19c-.08,0-.16,0-.24-.02l-24.13-3.91c-.82-.13-1.37-.9-1.24-1.72s.91-1.38,1.72-1.24l24.13,3.91c.82.13,1.37.9,1.24,1.72-.12.74-.76,1.26-1.48,1.26Z"/><path class="cls-1" d="m86.94,65.24c-.08,0-.16,0-.24-.02l-24.13-3.91c-.82-.13-1.37-.9-1.24-1.72s.91-1.38,1.72-1.24l24.13,3.91c.82.13,1.37.9,1.24,1.72-.12.74-.76,1.26-1.48,1.26Z"/></svg>