<?xml version="1.0" encoding="UTF-8"?><svg id="Layer_2" xmlns="http://www.w3.org/2000/svg" viewBox="0 0 100 100"><defs><style>.cls-1{fill:#fff;}</style></defs><path class="cls-1" d="m50.8,66.94c-4.55,0-8.25-3.7-8.25-8.25s3.7-8.25,8.25-8.25,8.25,3.7,8.25,8.25-3.7,8.25-8.25,8.25Zm0-13.49c-2.89,0-5.25,2.35-5.25,5.25s2.35,5.25,5.25,5.25,5.25-2.35,5.25-5.25-2.35-5.25-5.25-5.25Z"/><path class="cls-1" d="m66.01,60.33h-8.46c-.83,0-1.5-.67-1.5-1.5s.67-1.5,1.5-1.5h8.46c.83,0,1.5.67,1.5,1.5s-.67,1.5-1.5,1.5Z"/><path class="cls-1" d="m66.01,63.17c-.83,0-1.5-.67-1.5-1.5v-5.67c0-.83.67-1.5,1.5-1.5s1.5.67,1.5,1.5v5.67c0,.83-.67,1.5-1.5,1.5Z"/><path class="cls-1" d="m43.74,60.33h-8.84c-.83,0-1.5-.67-1.5-1.5s.67-1.5,1.5-1.5h8.84c.83,0,1.5.67,1.5,1.5s-.67,1.5-1.5,1.5Z"/><path class="cls-1" d="m34.9,63.17c-.83,0-1.5-.67-1.5-1.5v-5.67c0-.83.67-1.5,1.5-1.5s1.5.67,1.5,1.5v5.67c0,.83-.67,1.5-1.5,1.5Z"/><path class="cls-1" d="m46.97,54.25c-.5,0-.99-.25-1.28-.71l-4.69-7.59c-.44-.71-.22-1.63.49-2.06.7-.44,1.63-.22,2.06.49l4.69,7.59c.44.71.22,1.63-.49,2.06-.25.15-.52.22-.79.22Z"/><path class="cls-1" d="m39.77,47.82c-.57,0-1.11-.32-1.36-.87-.35-.75-.02-1.64.73-1.99l5-2.33c.75-.35,1.64-.02,1.99.73.35.75.02,1.64-.73,1.99l-5,2.33c-.21.09-.42.14-.63.14Z"/><path class="cls-1" d="m53.95,54.25c-.27,0-.54-.07-.79-.22-.7-.44-.92-1.36-.49-2.06l4.69-7.59c.44-.71,1.36-.92,2.06-.49.7.44.92,1.36.49,2.06l-4.69,7.59c-.28.46-.77.71-1.28.71Z"/><path class="cls-1" d="m61.14,47.82c-.21,0-.43-.04-.63-.14l-5-2.33c-.75-.35-1.08-1.24-.73-1.99.35-.75,1.24-1.08,1.99-.73l5,2.33c.75.35,1.08,1.24.73,1.99-.25.55-.8.87-1.36.87Z"/><path class="cls-1" d="m43.07,74.4c-.26,0-.52-.07-.76-.21-.71-.42-.96-1.34-.54-2.05l4.69-8.02c.42-.71,1.34-.95,2.05-.54.71.42.96,1.34.54,2.05l-4.69,8.02c-.28.48-.78.74-1.3.74Z"/><path class="cls-1" d="m45.57,75.63c-.22,0-.45-.05-.66-.15l-5-2.46c-.74-.37-1.05-1.26-.68-2.01s1.27-1.05,2.01-.68l5,2.46c.74.37,1.05,1.26.68,2.01-.26.53-.79.84-1.35.84Z"/><path class="cls-1" d="m59.44,74.4c-.51,0-1.02-.27-1.3-.74l-4.69-8.02c-.42-.72-.18-1.63.54-2.05.71-.42,1.63-.18,2.05.54l4.69,8.02c.42.72.18,1.63-.54,2.05-.24.14-.5.21-.76.21Z"/><path class="cls-1" d="m56.94,75.63c-.55,0-1.09-.31-1.35-.84-.37-.74-.06-1.64.68-2.01l5-2.46c.74-.37,1.64-.06,2.01.68s.06,1.64-.68,2.01l-5,2.46c-.21.11-.44.15-.66.15Z"/><path class="cls-1" d="m21.2,72.54c-.12,0-.23-.02-.35-.06-.52-.19-.78-.77-.59-1.29l17.02-45.67c.19-.52.77-.78,1.29-.59.52.19.78.77.59,1.29l-17.02,45.67c-.15.4-.53.65-.94.65Z"/><path class="cls-1" d="m78.8,72.54c-.41,0-.79-.25-.94-.65l-17.02-45.67c-.19-.52.07-1.09.59-1.29.52-.19,1.09.07,1.29.59l17.02,45.67c.19.52-.07,1.09-.59,1.29-.12.04-.23.06-.35.06Z"/><path class="cls-1" d="m50.8,43.18c-.55,0-1-.45-1-1v-6.2c0-.55.45-1,1-1s1,.45,1,1v6.2c0,.55-.45,1-1,1Z"/><path class="cls-1" d="m50.8,33.07c-.55,0-1-.45-1-1v-6.2c0-.55.45-1,1-1s1,.45,1,1v6.2c0,.55-.45,1-1,1Z"/></svg>