<?xml version="1.0" encoding="UTF-8"?><svg id="Layer_2" xmlns="http://www.w3.org/2000/svg" viewBox="0 0 100 100"><defs><style>.cls-1{fill:#fff;}</style></defs><path class="cls-1" d="m49.59,52.12c-7.05,0-12.79-5.74-12.79-12.79s5.74-12.79,12.79-12.79,12.79,5.74,12.79,12.79-5.74,12.79-12.79,12.79Zm0-23.57c-5.95,0-10.79,4.84-10.79,10.79s4.84,10.79,10.79,10.79,10.79-4.84,10.79-10.79-4.84-10.79-10.79-10.79Z"/><path class="cls-1" d="m53.92,37.34c0,1.52-.78,2.86-1.98,3.63v5.13h-4.63v-5.13c-1.2-.76-1.99-2.1-1.99-3.63,0-2.37,1.92-4.3,4.3-4.3s4.3,1.93,4.3,4.3Z"/><path class="cls-1" d="m66.82,53.93c-3.41,0-6.39,1.85-8,4.6h-31.2c-1.03,0-1.95.42-2.62,1.09-.67.67-1.09,1.59-1.09,2.62,0,1.93,1.46,3.51,3.34,3.69.05.08.11.16.18.24l.6.63c.58.63,1.65.77,2.44.33l1.64-.92c.31-.18.67-.26,1.02-.26.47,0,.94.15,1.29.45l.74.63c.6.51,1.57.6,2.3.2l1.67-.92c.82-.45,1.93-.27,2.48.4.35.42.91.64,1.49.64.34,0,.7-.09,1.01-.26l1.44-.8c.8-.44,1.87-.3,2.45.33l.66.71c.34.37.87.59,1.43.59h8.61s.1,0,.15-.01c1.61,2.72,4.58,4.54,7.97,4.54,5.12,0,9.26-4.14,9.26-9.26s-4.14-9.26-9.26-9.26Zm5.52,11.36c-1.16,0-2.1-.94-2.1-2.1s.94-2.1,2.1-2.1,2.1.94,2.1,2.1-.94,2.1-2.1,2.1Z"/></svg>