<?xml version="1.0" encoding="UTF-8"?><svg id="Layer_2" xmlns="http://www.w3.org/2000/svg" viewBox="0 0 100 100"><defs><style>.cls-1{fill:#fff;}</style></defs><path class="cls-1" d="m66.82,54.84c-3.41,0-6.39,1.85-8,4.6h-31.2c-1.03,0-1.95.42-2.62,1.09-.67.67-1.09,1.59-1.09,2.62,0,1.93,1.46,3.51,3.34,3.69.05.08.11.16.18.24l.6.63c.58.63,1.65.77,2.44.33l1.64-.92c.31-.18.67-.26,1.02-.26.47,0,.94.15,1.29.45l.74.63c.6.51,1.57.6,2.3.2l1.67-.92c.82-.45,1.93-.27,2.48.4.35.42.91.64,1.49.64.34,0,.7-.09,1.01-.26l1.44-.8c.8-.44,1.87-.3,2.45.33l.66.71c.34.37.87.59,1.43.59h8.61s.1,0,.15-.01c1.61,2.72,4.58,4.54,7.97,4.54,5.12,0,9.26-4.14,9.26-9.26s-4.14-9.26-9.26-9.26Zm5.52,11.36c-1.16,0-2.1-.94-2.1-2.1s.94-2.1,2.1-2.1,2.1.94,2.1,2.1-.94,2.1-2.1,2.1Z"/><path class="cls-1" d="m47.78,45.8c0-1.74.21-3.12.63-4.15.42-1.03,1.19-2.04,2.31-3.04,1.12-1,1.87-1.81,2.24-2.44.37-.63.56-1.29.56-1.98,0-2.1-.97-3.15-2.9-3.15-.92,0-1.65.28-2.2.85-.55.57-.84,1.35-.86,2.34h-5.39c.02-2.37.79-4.23,2.29-5.57,1.51-1.34,3.56-2.01,6.17-2.01s4.67.64,6.12,1.91c1.45,1.27,2.17,3.07,2.17,5.39,0,1.05-.24,2.05-.71,2.99-.47.94-1.29,1.98-2.47,3.12l-1.51,1.43c-.94.91-1.48,1.97-1.62,3.18l-.07,1.14h-4.76Zm-.54,5.7c0-.83.28-1.51.85-2.05.56-.54,1.29-.81,2.17-.81s1.6.27,2.17.81c.57.54.85,1.22.85,2.05s-.28,1.49-.83,2.02c-.55.53-1.28.8-2.19.8s-1.63-.27-2.19-.8c-.55-.53-.83-1.2-.83-2.02Z"/></svg>