<?xml version="1.0" encoding="UTF-8"?><svg id="Layer_2" xmlns="http://www.w3.org/2000/svg" viewBox="0 0 100 100"><defs><style>.cls-1{fill:#fff;}</style></defs><path class="cls-1" d="m73.02,55.44h-9.91c-.83,0-1.5.67-1.5,1.5v1.5h-5.74l-1.56.98c-1.21.76-2.73.8-3.98.11l-1.05-.58c-1.03-.57-2.26-.65-3.35-.21l-2.85,1.14c-1.22.49-2.59.33-3.67-.41l-2.06-1.42h-8.21c-1.88,0-3.4,1.52-3.4,3.4s1.52,3.4,3.4,3.4h32.99l2.86,6.28c.24.54.78.88,1.37.88h6.67c.83,0,1.5-.67,1.5-1.5v-13.56c0-.83-.67-1.5-1.5-1.5Zm-.07,13.83h-2.22v-11.09h2.22v11.09Z"/><path class="cls-1" d="m76.41,39.31c-.35,0-.71-.09-1.04-.29-25.89-15.73-50.45-.19-50.7-.03-.93.6-2.17.34-2.77-.59s-.34-2.17.59-2.77c.27-.17,26.94-17.05,54.95-.03.94.57,1.24,1.8.67,2.75-.38.62-1.04.96-1.71.96Z"/><path class="cls-1" d="m71.39,45.11c-.18,0-.36-.05-.52-.15-21.3-12.94-41.52-.15-41.72-.02-.46.3-1.08.17-1.38-.29-.3-.46-.17-1.08.29-1.38.21-.14,21.49-13.6,43.85-.02.47.29.62.9.33,1.37-.19.31-.52.48-.86.48Z"/><path class="cls-1" d="m65.54,51.8c-.18,0-.36-.05-.52-.15-15.29-9.29-29.88-.11-30.02-.01-.46.3-1.08.17-1.38-.3-.3-.46-.17-1.08.29-1.38.16-.1,15.76-9.97,32.15-.02.47.29.62.9.33,1.37-.19.31-.52.48-.86.48Z"/></svg>