<?xml version="1.0" encoding="UTF-8"?><svg id="Layer_2" xmlns="http://www.w3.org/2000/svg" viewBox="0 0 100 100"><defs><style>.cls-1{fill:#fff;}</style></defs><path class="cls-1" d="m55.76,59.14h-11.09c-1.73,0-3.13-1.41-3.13-3.13v-6.04c0-1.73,1.41-3.13,3.13-3.13h11.09c1.73,0,3.13,1.41,3.13,3.13v6.04c0,1.73-1.41,3.13-3.13,3.13Zm-11.09-10.31c-.63,0-1.13.51-1.13,1.13v6.04c0,.63.51,1.13,1.13,1.13h11.09c.63,0,1.13-.51,1.13-1.13v-6.04c0-.63-.51-1.13-1.13-1.13h-11.09Z"/><path class="cls-1" d="m59.56,54.06h-18.68c-.68,0-1.22.55-1.22,1.22v8.58c0,.68.55,1.22,1.22,1.22h1.12v2.33c0,.64.52,1.16,1.16,1.16h1.21c.64,0,1.16-.52,1.16-1.16v-2.33h9.42v2.33c0,.64.52,1.16,1.16,1.16h1.21c.64,0,1.16-.52,1.16-1.16v-2.33h1.1c.68,0,1.22-.55,1.22-1.22v-8.58c0-.68-.55-1.22-1.22-1.22Z"/><path class="cls-1" d="m76.02,73.45H23.98c-.36,0-.69-.19-.87-.5-.18-.31-.18-.69,0-1l26.24-44.9c.18-.31.51-.5.86-.5h0c.36,0,.69.19.86.5l25.8,44.9c.18.31.18.69,0,1s-.51.5-.87.5Zm-50.3-2h48.57l-24.08-41.91-24.49,41.91Z"/></svg>