<?xml version="1.0" encoding="UTF-8"?><svg id="Layer_2" xmlns="http://www.w3.org/2000/svg" viewBox="0 0 100 100"><defs><style>.cls-1{fill:#fff;}</style></defs><path class="cls-1" d="m50,78.05c-15.46,0-28.05-12.58-28.05-28.05s12.58-28.05,28.05-28.05,28.05,12.58,28.05,28.05-12.58,28.05-28.05,28.05Zm0-53.09c-13.81,0-25.05,11.24-25.05,25.05s11.24,25.05,25.05,25.05,25.05-11.24,25.05-25.05-11.24-25.05-25.05-25.05Z"/><path class="cls-1" d="m43.82,51.81l-11.03-11.15c-.43-.43-.36-1.14.13-1.5,1.98-1.42,7.38-3.63,16.32,4.66.18.17.43.27.68.27l7.27-.11c.46,0,.86.3.97.74.48,1.95,2.31,7.11,8.52,8.29.59.11.95.73.74,1.3-.88,2.42-3.37,8.09-8.26,10.62-.37.19-.82.11-1.12-.18l-7.59-7.32c-.19-.19-.3-.44-.3-.71v-3.07c0-.5-.37-.92-.87-.98l-4.89-.59c-.22-.03-.43-.13-.58-.28Z"/></svg>