<?xml version="1.0" encoding="UTF-8"?><svg id="Layer_2" xmlns="http://www.w3.org/2000/svg" viewBox="0 0 100 100"><defs><style>.cls-1{fill:#fff;}</style></defs><path class="cls-1" d="m49.98,78.18c-15.54,0-28.18-12.64-28.18-28.18s12.64-28.18,28.18-28.18,28.18,12.64,28.18,28.18-12.64,28.18-28.18,28.18Zm0-53.36c-13.88,0-25.18,11.3-25.18,25.18s11.3,25.18,25.18,25.18,25.18-11.3,25.18-25.18-11.3-25.18-25.18-25.18Z"/><path class="cls-1" d="m24.3,77.01c-.52,0-1.04-.2-1.43-.6-6.96-7.13-10.8-16.54-10.8-26.51s3.76-19.2,10.59-26.3c.77-.8,2.03-.82,2.83-.05.8.77.82,2.03.05,2.83-6.11,6.35-9.47,14.7-9.47,23.52s3.43,17.33,9.66,23.71c.77.79.76,2.06-.03,2.83-.39.38-.89.57-1.4.57Z"/><path class="cls-1" d="m75.63,77.08c-.51,0-1.01-.19-1.4-.57-.79-.77-.8-2.04-.02-2.83,6.27-6.38,9.73-14.82,9.73-23.78s-3.39-17.23-9.54-23.59c-.77-.79-.75-2.06.05-2.83.79-.77,2.06-.75,2.83.05,6.88,7.11,10.67,16.47,10.67,26.37s-3.86,19.45-10.88,26.58c-.39.4-.91.6-1.43.6Z"/><path class="cls-1" d="m43.65,51.81l-11.03-11.15c-.43-.43-.36-1.14.13-1.5,1.98-1.42,7.38-3.63,16.32,4.66.18.17.43.27.68.27l7.27-.11c.46,0,.86.3.97.74.48,1.95,2.31,7.11,8.52,8.29.59.11.95.73.74,1.3-.88,2.42-3.37,8.09-8.26,10.62-.37.19-.82.11-1.12-.18l-7.59-7.32c-.19-.19-.3-.44-.3-.71v-3.07c0-.5-.37-.92-.87-.98l-4.89-.59c-.22-.03-.43-.13-.58-.28Z"/></svg>