<?xml version="1.0" encoding="UTF-8"?><svg id="Layer_2" xmlns="http://www.w3.org/2000/svg" viewBox="0 0 100 100"><defs><style>.cls-1{fill:#fff;}</style></defs><circle class="cls-1" cx="49.39" cy="42.25" r="5.22"/><path class="cls-1" d="m73.35,44.8c.95-8.57-1.99-11.65-1.99-11.65H28.1c-2.44,6.51-1.46,11.65-1.46,11.65,0,0,7.68-1.73,7.81,2.24.13,3.96-5.17,5.95-5.17,5.95,1.85,4.49,8.2,8.76,8.2,8.76.69-5.98,5.45-6.29,5.45-6.29,7.56,4.18,14.35-.13,14.35-.13,4.95.92,4.79,6.69,4.79,6.69,4.05-1.93,8.65-9.03,8.65-9.03,0,0-6.01-2.48-6.14-5.95-.13-3.48,8.77-2.24,8.77-2.24Zm-23.96,3.67c-3.43,0-6.22-2.79-6.22-6.22s2.79-6.22,6.22-6.22,6.22,2.79,6.22,6.22-2.79,6.22-6.22,6.22Z"/><path class="cls-1" d="m50,65.85c-13.26,0-24.05-10.79-24.05-24.05s10.79-24.05,24.05-24.05,24.04,10.79,24.04,24.05-10.79,24.05-24.04,24.05Zm0-47.09c-12.71,0-23.05,10.34-23.05,23.05s10.34,23.05,23.05,23.05,23.04-10.34,23.04-23.05-10.34-23.05-23.04-23.05Z"/><path class="cls-1" d="m63.91,68.27c-2.48,0-4.65,1.35-5.82,3.35h-22.7c-.75,0-1.42.31-1.91.79-.49.49-.79,1.16-.79,1.91,0,1.4,1.06,2.55,2.43,2.68.04.06.08.12.13.17l.44.46c.42.46,1.2.56,1.78.24l1.19-.67c.23-.13.49-.19.74-.19.34,0,.68.11.94.33l.54.46c.44.37,1.14.44,1.67.15l1.21-.67c.6-.33,1.4-.2,1.8.29.25.31.66.47,1.08.47.25,0,.51-.07.73-.19l1.05-.58c.58-.32,1.36-.22,1.78.24l.48.52c.25.27.63.43,1.04.43h6.26s.07,0,.11,0c1.17,1.98,3.33,3.3,5.8,3.3,3.72,0,6.74-3.01,6.74-6.74s-3.01-6.74-6.74-6.74Zm4.02,8.26c-.84,0-1.52-.68-1.52-1.52s.68-1.52,1.52-1.52,1.52.68,1.52,1.52-.68,1.52-1.52,1.52Z"/></svg>