<?xml version="1.0" encoding="UTF-8"?><svg id="Layer_2" xmlns="http://www.w3.org/2000/svg" viewBox="0 0 100 100"><defs><style>.cls-1{fill:#fff;}</style></defs><path class="cls-1" d="m54.81,69.38c-2.46,0-4.12-.17-4.33-.19-.52-.06-.97-.38-1.2-.85-.32-.67-7.65-16.67-.04-36.34.19-.5.64-.86,1.17-.94.66-.1,16.16-2.43,25.16,4.67,3.66,2.88,5.72,6.9,6.12,11.94.49,6.18-1.17,11.17-4.95,14.85-6.11,5.94-16.19,6.87-21.93,6.87Zm-3.14-3.11c3.46.22,16.31.57,22.98-5.92,3.11-3.02,4.47-7.21,4.05-12.45-.33-4.17-2.01-7.47-4.98-9.82-6.86-5.41-18.72-4.54-22-4.17-5.75,15.7-1.34,29.05-.05,32.36Z"/><path class="cls-1" d="m38.35,33.63h-18.63c-.83,0-1.5-.67-1.5-1.5s.67-1.5,1.5-1.5h18.63c.83,0,1.5.67,1.5,1.5s-.67,1.5-1.5,1.5Z"/><path class="cls-1" d="m38.35,45.54h-18.63c-.83,0-1.5-.67-1.5-1.5s.67-1.5,1.5-1.5h18.63c.83,0,1.5.67,1.5,1.5s-.67,1.5-1.5,1.5Z"/><path class="cls-1" d="m38.35,57.46h-18.63c-.83,0-1.5-.67-1.5-1.5s.67-1.5,1.5-1.5h18.63c.83,0,1.5.67,1.5,1.5s-.67,1.5-1.5,1.5Z"/><path class="cls-1" d="m38.35,69.37h-18.63c-.83,0-1.5-.67-1.5-1.5s.67-1.5,1.5-1.5h18.63c.83,0,1.5.67,1.5,1.5s-.67,1.5-1.5,1.5Z"/></svg>