<?xml version="1.0" encoding="UTF-8"?><svg id="Layer_2" xmlns="http://www.w3.org/2000/svg" viewBox="0 0 100 100"><defs><style>.cls-1{fill:#fff;}</style></defs><path class="cls-1" d="m75.28,53.47c.1,9.96-6.8,15.76-7.09,16-.15.12-.31.22-.48.29v2.49h-5.57v-1.43h-1.91v1.43h-5.58v-1.43h-1.9v1.43h-5.58v-1.43h-1.91v1.43h-5.57v-1.43h-1.91v1.43h-5.58v-2.53c-.14-.06-.27-.15-.39-.25-.29-.24-7.19-6.04-7.09-16,.06-6.28,2.74-10.92,4.98-13.7.89-1.12,1.38-2.51,1.38-3.93v-6c0-1,.69-1.92,1.68-2.08,1.26-.2,2.32.77,2.32,1.97v6.1c0,2.33-.8,4.61-2.27,6.43-1.84,2.29-4.04,6.1-4.09,11.25-.04,3.67,1.14,6.67,2.42,8.85,1.2,2.03,3.38,3.27,5.74,3.27h26.23c2.36,0,4.54-1.24,5.73-3.27,1.29-2.18,2.47-5.18,2.43-8.85-.05-5.17-2.28-8.99-4.12-11.28-1.49-1.84-2.25-4.17-2.25-6.54v-5.85c0-1,.69-1.92,1.68-2.08,1.26-.2,2.32.77,2.32,1.97v6.1c0,1.42.5,2.81,1.39,3.93,2.24,2.78,4.92,7.42,4.98,13.7Z"/><circle class="cls-1" cx="50" cy="58.79" r="3.37"/><rect class="cls-1" x="46.92" y="29.26" width="6.17" height="23.12" rx="2.99" ry="2.99"/></svg>