<?xml version="1.0" encoding="UTF-8"?><svg id="Layer_2" xmlns="http://www.w3.org/2000/svg" viewBox="0 0 100 100"><defs><style>.cls-1{fill:#fff;}</style></defs><path class="cls-1" d="m30.68,28.56c-.36,0-.72-.13-1.01-.39-.61-.56-.65-1.51-.1-2.12.5-.54,1.04-1.06,1.6-1.52.64-.53,1.58-.44,2.11.2s.44,1.58-.2,2.11c-.46.38-.89.79-1.3,1.23-.3.32-.7.49-1.11.49Z"/><path class="cls-1" d="m38.1,24.35c-.71,0-1.34-.51-1.47-1.23-.15-.81.39-1.6,1.21-1.75,1.64-.3,3.34-.31,4.96-.02.82.14,1.36.92,1.22,1.74-.14.82-.93,1.37-1.74,1.22-1.28-.22-2.62-.22-3.9.02-.09.02-.18.02-.27.02Z"/><path class="cls-1" d="m50,28.47c-.4,0-.8-.16-1.1-.48-.41-.44-.85-.85-1.31-1.23-.64-.52-.74-1.47-.22-2.11.52-.64,1.47-.74,2.11-.22.56.46,1.1.96,1.61,1.51.57.61.53,1.55-.07,2.12-.29.27-.66.4-1.02.4Z"/><path class="cls-1" d="m36.47,76.19c-.46,0-.91-.21-1.2-.6l-18.15-24.23c-.45-.59-.39-1.42.13-1.95,8.88-9.01,20.74-13.97,33.39-13.97,11.96,0,23.34,4.5,32.05,12.68.56.52.63,1.38.17,1.99l-18.45,24.63c-.43.58-1.21.77-1.86.45-3.72-1.84-7.73-2.77-11.91-2.77-4.73,0-9.37,1.24-13.43,3.58-.24.14-.49.2-.75.2Zm-16.16-25.58l16.58,22.14c4.22-2.19,8.95-3.34,13.76-3.34,4.23,0,8.29.86,12.11,2.55l16.9-22.56c-8.01-7.08-18.26-10.96-29-10.96-11.41,0-22.13,4.31-30.34,12.18Z"/><path class="cls-1" d="m62.57,63.69s-.07,0-.11,0c-2.99-.07-4.84-2.76-5.84-4.94-1,2.14-2.85,4.8-5.93,4.93-3.15.13-5.14-2.67-6.19-4.92-1.01,2.2-2.9,4.92-6.08,4.92s-5.14-2.91-6.06-5.15c-1.02,1.72-2.24,2.75-3.64,3.07-2.3.53-4.1-1.13-4.17-1.2-.4-.38-.42-1.01-.04-1.41.38-.4,1-.42,1.41-.05.02.02,1.12,1.01,2.38.71,1.24-.29,2.39-1.74,3.33-4.19.16-.41.57-.66,1.02-.64.44.04.81.36.9.8.01.06,1.27,6.07,4.89,6.07s5.08-6.04,5.09-6.1c.1-.45.5-.77.96-.78h0c.46,0,.86.31.97.76.02.06,1.63,6.29,5.15,6.12,3.59-.16,5.02-6.05,5.04-6.11.11-.45.51-.77.97-.77h0c.46,0,.86.31.97.76.42,1.68,2.11,6.06,4.92,6.12,3.31.09,4.86-6.05,4.87-6.11.11-.47.55-.79,1.03-.77.48.03.88.39.94.87.18,1.44.88,4.01,1.96,4.8.27.2.54.26.85.21.56-.1,1.06.27,1.16.81.1.54-.27,1.06-.81,1.16-.85.15-1.68-.04-2.39-.57-.9-.66-1.53-1.8-1.95-2.91-1.03,2.11-2.81,4.5-5.6,4.5Z"/><path class="cls-1" d="m69.32,28.47c-.4,0-.8-.16-1.1-.48-.41-.44-.85-.85-1.31-1.23-.64-.52-.74-1.47-.22-2.11.52-.64,1.47-.74,2.11-.22.56.46,1.11.97,1.61,1.51.56.61.53,1.56-.08,2.12-.29.27-.66.4-1.02.4Z"/><path class="cls-1" d="m50,70.66c-.83,0-1.5-.67-1.5-1.5v-4.13c0-.83.67-1.5,1.5-1.5s1.5.67,1.5,1.5v4.13c0,.83-.67,1.5-1.5,1.5Zm0-10.32c-.83,0-1.5-.67-1.5-1.5v-4.13c0-.83.67-1.5,1.5-1.5s1.5.67,1.5,1.5v4.13c0,.83-.67,1.5-1.5,1.5Zm0-10.32c-.83,0-1.5-.67-1.5-1.5v-4.13c0-.83.67-1.5,1.5-1.5s1.5.67,1.5,1.5v4.13c0,.83-.67,1.5-1.5,1.5Zm0-10.32c-.83,0-1.5-.67-1.5-1.5v-4.13c0-.83.67-1.5,1.5-1.5s1.5.67,1.5,1.5v4.13c0,.83-.67,1.5-1.5,1.5Zm0-10.32c-.83,0-1.5-.67-1.5-1.5v-1.4l.39-.43c.83-.91,1.76-1.72,2.76-2.39.68-.46,1.62-.29,2.08.4.47.68.29,1.62-.4,2.08-.65.44-1.27.96-1.84,1.53v.21c0,.83-.67,1.5-1.5,1.5Zm12.34-4.95c-.11,0-.21-.01-.32-.03-1.18-.25-2.4-.31-3.61-.17-.83.09-1.57-.49-1.67-1.32-.1-.82.49-1.57,1.32-1.67,1.53-.18,3.1-.1,4.6.22.81.17,1.32.97,1.15,1.78-.15.7-.77,1.18-1.46,1.18Z"/><path class="cls-1" d="m50,78.86c-.83,0-1.5-.67-1.5-1.5v-2c0-.83.67-1.5,1.5-1.5s1.5.67,1.5,1.5v2c0,.83-.67,1.5-1.5,1.5Z"/></svg>