<?xml version="1.0" encoding="UTF-8"?><svg id="Layer_2" xmlns="http://www.w3.org/2000/svg" viewBox="0 0 100 100"><defs><style>.cls-1{fill:#fff;}</style></defs><path class="cls-1" d="m50.26,60.44c-8.08,0-14.66-6.58-14.66-14.66s6.58-14.66,14.66-14.66,14.66,6.58,14.66,14.66-6.58,14.66-14.66,14.66Zm0-26.32c-6.43,0-11.66,5.23-11.66,11.66s5.23,11.66,11.66,11.66,11.66-5.23,11.66-11.66-5.23-11.66-11.66-11.66Z"/><polygon class="cls-1" points="58.98 34.94 55.98 34.94 55.98 26.34 44.54 26.34 44.54 34.94 41.54 34.94 41.54 23.34 58.98 23.34 58.98 34.94"/><path class="cls-1" d="m19.53,48.07c-.83,0-1.5-.67-1.5-1.49,0-.83.67-1.5,1.49-1.51l9.97-.04h0c.83,0,1.5.67,1.5,1.49,0,.83-.67,1.5-1.49,1.51l-9.97.04h0Z"/><path class="cls-1" d="m50.42,77.32c-.83,0-1.5-.67-1.5-1.49l-.04-8.2c0-.83.67-1.5,1.49-1.51h0c.83,0,1.5.67,1.5,1.49l.04,8.2c0,.83-.67,1.5-1.49,1.51h0Z"/><path class="cls-1" d="m50.27,49.13c-.83,0-1.5-.67-1.5-1.49l-.04-8.2c0-.83.67-1.5,1.49-1.51h0c.83,0,1.5.67,1.5,1.49l.04,8.2c0,.83-.67,1.5-1.49,1.51h0Z"/><path class="cls-1" d="m50.25,53.54c-.83,0-1.52-.67-1.52-1.5s.65-1.5,1.48-1.5h.04c.83,0,1.5.67,1.5,1.5s-.67,1.5-1.5,1.5Z"/><path class="cls-1" d="m35.48,32.52c-.38,0-.76-.14-1.06-.44l-6.89-6.84c-.59-.58-.59-1.53,0-2.12.58-.59,1.53-.59,2.12,0l6.89,6.84c.59.58.59,1.53,0,2.12-.29.3-.68.44-1.06.44Z"/><path class="cls-1" d="m28.69,70.77c-.38,0-.76-.14-1.06-.44-.59-.58-.59-1.53,0-2.12l6.76-6.82c.58-.59,1.53-.59,2.12,0,.59.58.59,1.53,0,2.12l-6.76,6.82c-.29.3-.68.44-1.06.44Z"/><path class="cls-1" d="m80.47,48.07h0l-10.06-.04c-.83,0-1.5-.68-1.49-1.51,0-.83.67-1.49,1.5-1.49h0l10.06.04c.83,0,1.5.68,1.49,1.51,0,.83-.67,1.49-1.5,1.49Z"/><path class="cls-1" d="m64.43,32.66c-.39,0-.77-.15-1.06-.44-.58-.59-.58-1.54,0-2.12l7.03-6.97c.59-.58,1.54-.58,2.12,0,.58.59.58,1.54,0,2.12l-7.03,6.97c-.29.29-.67.44-1.06.44Z"/><path class="cls-1" d="m71.19,70.77c-.38,0-.77-.15-1.06-.44l-6.73-6.76c-.58-.59-.58-1.54,0-2.12.59-.58,1.54-.58,2.12,0l6.73,6.76c.58.59.58,1.54,0,2.12-.29.29-.68.44-1.06.44Z"/></svg>