<?xml version="1.0" encoding="UTF-8"?><svg id="Layer_2" xmlns="http://www.w3.org/2000/svg" viewBox="0 0 100 100"><defs><style>.cls-1{fill:#fff;}</style></defs><path class="cls-1" d="m49.98,74.53c-13.52,0-24.53-11-24.53-24.53s11-24.53,24.53-24.53,24.53,11,24.53,24.53-11,24.53-24.53,24.53Zm0-46.05c-11.87,0-21.53,9.66-21.53,21.53s9.66,21.53,21.53,21.53,21.53-9.66,21.53-21.53-9.66-21.53-21.53-21.53Z"/><path class="cls-1" d="m27.82,73.58c-.52,0-1.04-.2-1.43-.6-6.06-6.21-9.4-14.4-9.4-23.07s3.27-16.71,9.22-22.89c.77-.8,2.03-.82,2.83-.05.8.77.82,2.03.05,2.83-5.22,5.43-8.1,12.57-8.1,20.11s2.93,14.82,8.26,20.27c.77.79.76,2.06-.03,2.83-.39.38-.89.57-1.4.57Z"/><path class="cls-1" d="m72.12,73.65c-.51,0-1.01-.19-1.4-.57-.79-.77-.8-2.04-.02-2.83,5.36-5.45,8.32-12.67,8.32-20.33s-2.9-14.73-8.16-20.17c-.77-.79-.75-2.06.05-2.83.79-.77,2.06-.75,2.83.05,5.99,6.19,9.28,14.34,9.28,22.95s-3.36,16.93-9.46,23.13c-.39.4-.91.6-1.43.6Z"/><path class="cls-1" d="m49.97,62.01c-5.73,0-10.38-4.66-10.38-10.38s4.66-10.38,10.38-10.38,10.38,4.66,10.38,10.38-4.66,10.38-10.38,10.38Zm0-17.76c-4.07,0-7.38,3.31-7.38,7.38s3.31,7.38,7.38,7.38,7.38-3.31,7.38-7.38-3.31-7.38-7.38-7.38Z"/><polygon class="cls-1" points="56.34 44.31 53.34 44.31 53.34 38.99 46.6 38.99 46.6 44.31 43.6 44.31 43.6 35.99 56.34 35.99 56.34 44.31"/><path class="cls-1" d="m36.76,63.91c-.27,0-.53-.11-.73-.32-.38-.4-.36-1.04.05-1.41l26.09-24.41c.4-.38,1.04-.36,1.41.05.38.4.36,1.04-.05,1.41l-26.09,24.41c-.19.18-.44.27-.68.27Z"/><path class="cls-1" d="m63.03,63.91c-.25,0-.49-.09-.68-.27l-26.09-24.41c-.4-.38-.42-1.01-.05-1.41.38-.4,1.01-.42,1.41-.05l26.09,24.41c.4.38.42,1.01.05,1.41-.2.21-.46.32-.73.32Z"/></svg>