<?xml version="1.0" encoding="UTF-8"?><svg id="Layer_2" xmlns="http://www.w3.org/2000/svg" viewBox="0 0 100 100"><defs><style>.cls-1{fill:#fff;}</style></defs><path class="cls-1" d="m66.66,64.44H27.34c-.55,0-1-.45-1-1v-26.88c0-.55.45-1,1-1h39.33c.55,0,1,.45,1,1v26.88c0,.55-.45,1-1,1Zm-38.33-2h37.33v-24.88H28.34v24.88Z"/><path class="cls-1" d="m27.34,51h-10.37c-.55,0-1-.45-1-1s.45-1,1-1h10.37c.55,0,1,.45,1,1s-.45,1-1,1Z"/><path class="cls-1" d="m27.34,56.34h-10.37c-.55,0-1-.45-1-1s.45-1,1-1h10.37c.55,0,1,.45,1,1s-.45,1-1,1Z"/><path class="cls-1" d="m83.03,53.93c-.33,0-.65-.16-.84-.46-2.13-3.32-7.16-3.23-7.22-3.23h-8.31c-.55,0-1-.45-1-1s.45-1,1-1h8.28c.23-.01,6.18-.13,8.93,4.14.3.46.17,1.08-.3,1.38-.17.11-.35.16-.54.16Z"/><path class="cls-1" d="m80.82,58.62c-.35,0-.68-.18-.87-.5-1.6-2.78-4.78-2.54-4.92-2.54h-8.37c-.55,0-1-.44-1-1s.45-1,1-1h8.28c.1-.01,4.49-.36,6.74,3.54.28.48.11,1.09-.37,1.37-.16.09-.33.13-.5.13Z"/><rect class="cls-1" x="33.34" y="43.08" width="4.24" height="4.24"/><rect class="cls-1" x="41.19" y="43.08" width="4.24" height="4.24"/><rect class="cls-1" x="36.82" y="49.24" width="4.24" height="4.24"/><rect class="cls-1" x="44.73" y="49.24" width="4.24" height="4.24"/><rect class="cls-1" x="52.64" y="49.24" width="4.24" height="4.24"/><rect class="cls-1" x="49.03" y="43.08" width="4.24" height="4.24"/><rect class="cls-1" x="56.88" y="43.08" width="4.24" height="4.24"/><rect class="cls-1" x="33.34" y="54.98" width="4.24" height="4.24"/><rect class="cls-1" x="41.19" y="54.98" width="4.24" height="4.24"/><rect class="cls-1" x="49.03" y="54.98" width="4.24" height="4.24"/><rect class="cls-1" x="56.88" y="54.98" width="4.24" height="4.24"/></svg>