<?xml version="1.0" encoding="UTF-8"?><svg id="Layer_2" xmlns="http://www.w3.org/2000/svg" viewBox="0 0 100 100"><defs><style>.cls-1{fill:#fff;}</style></defs><path class="cls-1" d="m72.27,56.18c.48,5.97-1.59,10.75-1.69,10.99-.18.39-4.1,8.74-14.18,9.06-.17.01-.34.01-.51.01-5.14,0-9.75-2.52-12.72-6.99h-15.64c-1.93,0-3.5-1.57-3.5-3.5s1.57-3.5,3.5-3.5h15.81c2.26,0,4.36,1.15,5.62,3.07,1.22,1.85,3.42,4.02,7.22,3.92,5.78-.19,7.99-4.89,8.01-4.94,0,0,1.16-2.76,1.16-6.32,0-.42-.02-.84-.05-1.28-2.76-1.16-4.69-3.9-4.69-7.08,0-4.24,3.43-7.67,7.67-7.67s7.68,3.43,7.68,7.67c0,2.78-1.48,5.21-3.69,6.56Z"/><path class="cls-1" d="m43.06,36.49c-.55,0-1-.45-1-1v-7.92c0-1.55-1.26-2.82-2.82-2.82h-7.34c-1.55,0-2.82,1.26-2.82,2.82v2.39c0,.55-.45,1-1,1s-1-.45-1-1v-2.39c0-2.66,2.16-4.82,4.82-4.82h7.34c2.66,0,4.82,2.16,4.82,4.82v7.92c0,.55-.45,1-1,1Z"/><path class="cls-1" d="m43.15,34.42h-15.07c-1.13,0-2.05.92-2.05,2.05v15.07c0,1.13.92,2.05,2.05,2.05h15.07c1.13,0,2.05-.92,2.05-2.05v-15.07c0-1.13-.92-2.05-2.05-2.05Zm-5.91,9.48v3.7h-3.34v-3.7c-.87-.55-1.44-1.52-1.44-2.62,0-1.71,1.39-3.1,3.1-3.1s3.1,1.39,3.1,3.1c0,1.1-.56,2.06-1.43,2.62Z"/></svg>