<?xml version="1.0" encoding="UTF-8"?><svg id="Layer_2" xmlns="http://www.w3.org/2000/svg" viewBox="0 0 100 100"><defs><style>.cls-1{fill:#fff;}</style></defs><path class="cls-1" d="m21.3,66.38c-.19,0-.38-.04-.56-.11-.77-.31-1.14-1.19-.83-1.95l12.03-29.69c.31-.77,1.19-1.14,1.95-.83.77.31,1.14,1.19.83,1.95l-12.03,29.69c-.24.58-.8.94-1.39.94Z"/><path class="cls-1" d="m50,53.57c-.83,0-1.5-.67-1.5-1.5v-6.2c0-.83.67-1.5,1.5-1.5s1.5.67,1.5,1.5v6.2c0,.83-.67,1.5-1.5,1.5Z"/><path class="cls-1" d="m50,64.31c-.83,0-1.5-.67-1.5-1.5v-6.2c0-.83.67-1.5,1.5-1.5s1.5.67,1.5,1.5v6.2c0,.83-.67,1.5-1.5,1.5Z"/><path class="cls-1" d="m50,42.82c-.83,0-1.5-.67-1.5-1.5v-6.2c0-.83.67-1.5,1.5-1.5s1.5.67,1.5,1.5v6.2c0,.83-.67,1.5-1.5,1.5Z"/><path class="cls-1" d="m78.7,66.38c-.59,0-1.15-.35-1.39-.94l-12.03-29.69c-.31-.77.06-1.64.83-1.95.77-.31,1.64.06,1.95.83l12.03,29.69c.31.77-.06,1.64-.83,1.95-.18.07-.38.11-.56.11Z"/></svg>