<?xml version="1.0" encoding="UTF-8"?><svg id="Layer_2" xmlns="http://www.w3.org/2000/svg" viewBox="0 0 100 100"><defs><style>.cls-1{fill:#fff;}</style></defs><path class="cls-1" d="m78.11,59.35h-6.65c-.83,0-1.5-.67-1.5-1.5v-2.62H29.91v2.62c0,.83-.67,1.5-1.5,1.5h-6.52c-.83,0-1.5-.67-1.5-1.5s.67-1.5,1.5-1.5h5.02v-2.62c0-.83.67-1.5,1.5-1.5h43.04c.83,0,1.5.67,1.5,1.5v2.62h5.15c.83,0,1.5.67,1.5,1.5s-.67,1.5-1.5,1.5Z"/><path class="cls-1" d="m71.46,72.86H28.41c-.83,0-1.5-.67-1.5-1.5v-2.62h-5.02c-.83,0-1.5-.67-1.5-1.5s.67-1.5,1.5-1.5h6.52c.83,0,1.5.67,1.5,1.5v2.62h40.04v-2.62c0-.83.67-1.5,1.5-1.5h6.65c.83,0,1.5.67,1.5,1.5s-.67,1.5-1.5,1.5h-5.15v2.62c0,.83-.67,1.5-1.5,1.5Z"/><path class="cls-1" d="m33.61,48.06c-.27,0-.53-.11-.73-.32-.38-.4-.36-1.04.04-1.41l.42-.39c.54-.51.81-1.16.77-1.83-.05-.7-.44-1.33-1.09-1.79-1.13-.79-1.84-1.98-1.94-3.27-.1-1.25.4-2.5,1.35-3.41l.82-.78c.47-.46.74-1.03.75-1.63,0-.59-.24-1.17-.69-1.63l-2.23-2.27c-.39-.39-.38-1.03.01-1.42.39-.39,1.03-.38,1.42.01l2.23,2.27c.83.85,1.28,1.93,1.27,3.06-.02,1.13-.5,2.21-1.37,3.04l-.81.78c-.53.51-.79,1.15-.74,1.82.05.69.44,1.33,1.09,1.78,1.14.79,1.85,1.99,1.94,3.29.09,1.26-.42,2.51-1.39,3.43l-.42.39c-.19.18-.44.27-.68.27Z"/><path class="cls-1" d="m51.59,48.06c-.27,0-.53-.11-.73-.32-.38-.4-.36-1.04.04-1.41l.42-.39c.54-.51.81-1.16.77-1.83-.05-.7-.44-1.33-1.09-1.79-1.13-.79-1.84-1.98-1.94-3.27-.1-1.25.4-2.5,1.35-3.41l.82-.78c.47-.46.74-1.03.75-1.63,0-.59-.24-1.17-.69-1.63l-2.23-2.27c-.39-.39-.38-1.03.01-1.42.39-.39,1.03-.38,1.42.01l2.23,2.27c.83.85,1.28,1.93,1.27,3.06-.02,1.13-.5,2.21-1.37,3.04l-.81.78c-.53.51-.79,1.15-.74,1.82.05.69.44,1.33,1.09,1.78,1.14.79,1.85,1.99,1.94,3.29.09,1.26-.42,2.51-1.39,3.43l-.42.39c-.19.18-.44.27-.68.27Z"/><path class="cls-1" d="m69.57,48.06c-.27,0-.53-.11-.73-.32-.38-.4-.36-1.04.04-1.41l.42-.39c.54-.51.81-1.16.77-1.83-.05-.7-.44-1.33-1.09-1.79-1.13-.79-1.84-1.98-1.94-3.27-.1-1.25.4-2.5,1.35-3.41l.82-.78c.47-.46.74-1.03.75-1.63,0-.59-.24-1.17-.69-1.63l-2.23-2.27c-.39-.39-.38-1.03.01-1.42.39-.39,1.03-.38,1.42.01l2.23,2.27c.83.85,1.28,1.93,1.27,3.06-.02,1.13-.5,2.21-1.37,3.04l-.81.78c-.53.51-.79,1.15-.74,1.82.05.69.44,1.33,1.09,1.78,1.14.79,1.85,1.99,1.94,3.29.09,1.26-.42,2.51-1.39,3.43l-.42.39c-.19.18-.44.27-.68.27Z"/></svg>