<?xml version="1.0" encoding="UTF-8"?><svg id="Layer_2" xmlns="http://www.w3.org/2000/svg" viewBox="0 0 100 100"><defs><style>.cls-1{fill:#fff;}</style></defs><circle class="cls-1" cx="50.04" cy="31.94" r="4.87"/><path class="cls-1" d="m54.39,38.01l-14.49,13.79v-5.21c0-5.41,4.38-9.79,9.78-9.79,1.71,0,3.32.44,4.71,1.21Z"/><path class="cls-1" d="m59.46,46.59v9.84h-18.62l16.6-15.8c1.27,1.65,2.02,3.72,2.02,5.96Z"/><path class="cls-1" d="m65.18,32.17c.3.31.29.81-.03,1.11l-7.72,7.35c-.26-.34-.55-.66-.85-.96-.17-.17-.35-.34-.53-.49-.51-.45-1.07-.84-1.67-1.17l8.01-7.63c.31-.3.81-.29,1.11.03l.84.88.84.88Z"/><path class="cls-1" d="m74.39,63.28c-.18,0-.37-.03-.55-.1-5.1-2.01-8.51-2.94-13.03-3.54-.82-.11-1.4-.86-1.29-1.68.11-.82.85-1.4,1.68-1.29,4.79.64,8.39,1.61,13.74,3.72.77.3,1.15,1.17.84,1.95-.23.59-.8.95-1.4.95Z"/><path class="cls-1" d="m25.61,63.28c-.56,0-1.1-.32-1.36-.86-.36-.75-.04-1.64.71-2,.21-.1,5.18-2.44,13.57-3.76.82-.12,1.58.43,1.71,1.25.13.82-.43,1.58-1.25,1.71-7.92,1.24-12.7,3.48-12.75,3.5-.21.1-.43.15-.64.15Z"/><path class="cls-1" d="m44.52,72.93c-.34,0-1.24-.1-2.1-1.01-1.6-1.69-2.13-5.09-1.62-10.41.08-.83.8-1.43,1.64-1.35.82.08,1.43.81,1.35,1.64-.64,6.71.71,7.99.91,8.15.72.08,1.3.68,1.33,1.43.03.83-.61,1.53-1.44,1.56-.02,0-.04,0-.07,0Zm-.06-3h0,0Zm0,0h0Z"/><path class="cls-1" d="m54.77,72.93c-.8,0-1.46-.63-1.5-1.43-.04-.75.49-1.4,1.21-1.54.2-.15,1.65-1.51.98-8.44-.08-.83.53-1.56,1.35-1.64.83-.08,1.56.53,1.64,1.35.5,5.24-.03,8.79-1.56,10.56-.87,1.01-1.79,1.13-2.05,1.14-.02,0-.05,0-.07,0Zm-.08-3h0Zm0,0h0,0Zm0,0h0,0Z"/></svg>