<?xml version="1.0" encoding="UTF-8"?><svg id="Layer_2" xmlns="http://www.w3.org/2000/svg" viewBox="0 0 100 100"><defs><style>.cls-1{fill:#fff;}</style></defs><path class="cls-1" d="m49.99,74.53c-13.52,0-24.53-11-24.53-24.53s11-24.53,24.53-24.53,24.53,11,24.53,24.53-11,24.53-24.53,24.53Zm0-46.05c-11.87,0-21.53,9.66-21.53,21.53s9.66,21.53,21.53,21.53,21.53-9.66,21.53-21.53-9.66-21.53-21.53-21.53Z"/><path class="cls-1" d="m27.82,73.58c-.52,0-1.04-.2-1.43-.6-6.06-6.21-9.4-14.4-9.4-23.07s3.27-16.71,9.22-22.89c.77-.8,2.03-.82,2.83-.05.8.77.82,2.03.05,2.83-5.22,5.43-8.1,12.57-8.1,20.11s2.93,14.82,8.26,20.27c.77.79.76,2.06-.03,2.83-.39.38-.89.57-1.4.57Z"/><path class="cls-1" d="m72.12,73.65c-.51,0-1.01-.19-1.4-.57-.79-.77-.8-2.04-.02-2.83,5.36-5.45,8.32-12.67,8.32-20.33s-2.9-14.73-8.16-20.17c-.77-.79-.75-2.06.05-2.83.79-.77,2.06-.75,2.83.05,5.99,6.18,9.28,14.34,9.28,22.95s-3.36,16.93-9.46,23.13c-.39.4-.91.6-1.43.6Z"/><path class="cls-1" d="m57.77,41.7c-1.32-1.26-3.07-1.96-4.92-1.96h-10.41v22.95h3.85v-8.75h6.57c3.86,0,7-3.04,7-6.78v-.63c0-1.83-.74-3.54-2.08-4.83Zm-1.76,5.46c0,1.62-1.42,2.94-3.16,2.94h-6.57v-6.51h6.57c.86,0,1.66.32,2.26.89.58.55.89,1.28.89,2.05v.63Z"/></svg>