<?xml version="1.0" encoding="UTF-8"?><svg id="Layer_2" xmlns="http://www.w3.org/2000/svg" viewBox="0 0 100 100"><defs><style>.cls-1{fill:#fff;}</style></defs><path class="cls-1" d="m76.41,69.29H23.59c-.55,0-1-.45-1-1v-32.75c0-.55.45-1,1-1h52.83c.55,0,1,.45,1,1v32.75c0,.55-.45,1-1,1Zm-51.83-2h50.83v-30.75H24.59v30.75Z"/><rect class="cls-1" x="29.46" y="31.71" width="13.5" height="3.83" rx=".45" ry=".45"/><rect class="cls-1" x="57.43" y="31.71" width="13.5" height="3.83" rx=".45" ry=".45"/><path class="cls-1" d="m36.21,52.42c-.28,0-.5-.22-.5-.5v-8.11c0-.28.22-.5.5-.5s.5.22.5.5v8.11c0,.28-.22.5-.5.5Z"/><path class="cls-1" d="m40.26,48.36h-8.11c-.28,0-.5-.22-.5-.5s.22-.5.5-.5h8.11c.28,0,.5.22.5.5s-.22.5-.5.5Z"/><path class="cls-1" d="m68.41,48.36h-8.11c-.28,0-.5-.22-.5-.5s.22-.5.5-.5h8.11c.28,0,.5.22.5.5s-.22.5-.5.5Z"/></svg>