<?xml version="1.0" encoding="UTF-8"?><svg id="Layer_2" xmlns="http://www.w3.org/2000/svg" viewBox="0 0 100 100"><defs><style>.cls-1{fill:#fff;}</style></defs><path class="cls-1" d="m43.42,31.32c-2.06-1.97-4.78-3.05-7.68-3.05h-16.25v35.8h6v-13.65h10.25c6.03,0,10.93-4.75,10.93-10.58v-.99c0-2.85-1.15-5.53-3.25-7.53Zm-2.75,8.52c0,2.53-2.21,4.58-4.93,4.58h-10.25v-10.15h10.25c1.34,0,2.59.49,3.53,1.39.9.86,1.4,1.99,1.4,3.19v.99Z"/><path class="cls-1" d="m44.8,54.12c-.57,0-1.11-.32-1.36-.87-.35-.75-.02-1.64.72-1.99.2-.09,4.66-2.29,6.12-8.38.19-.8.99-1.31,1.81-1.11.81.19,1.3,1,1.11,1.81-1.81,7.56-7.53,10.29-7.78,10.4-.2.09-.42.14-.63.14Z"/><path class="cls-1" d="m48.28,57.73c-.55,0-1.08-.3-1.34-.83-.37-.74-.08-1.64.66-2.01.28-.14,6.14-3.26,8.07-11.98.18-.81.97-1.33,1.79-1.14.81.18,1.32.98,1.14,1.79-2.25,10.19-9.34,13.86-9.64,14.01-.22.11-.45.16-.67.16Z"/><path class="cls-1" d="m52.7,61.98c-.52,0-1.03-.27-1.31-.76-.41-.72-.16-1.63.56-2.04.3-.17,6.83-4.08,8.98-15.05.16-.81.95-1.35,1.76-1.18.81.16,1.34.95,1.18,1.76-2.43,12.41-10.12,16.89-10.44,17.08-.23.13-.49.19-.74.19Z"/><polygon class="cls-1" points="59.97 66.52 70.63 39.34 80.51 66.52 59.97 66.52"/><rect class="cls-1" x="59.97" y="68.73" width="20.54" height="3"/></svg>