<?xml version="1.0" encoding="UTF-8"?><svg id="Layer_2" xmlns="http://www.w3.org/2000/svg" viewBox="0 0 100 100"><defs><style>.cls-1{fill:#fff;}</style></defs><path class="cls-1" d="m54.84,64.4c-2.34,0-3.93-.16-4.17-.19-.52-.06-.97-.38-1.2-.85-.3-.64-7.29-15.88-.04-34.6.19-.5.64-.86,1.17-.94.2-.03,5.06-.78,10.82-.2.82.08,1.43.82,1.34,1.64-.08.82-.82,1.44-1.64,1.34-4.01-.4-7.62-.11-9.2.07-5.41,14.81-1.3,27.42-.05,30.62,3.92.24,19.87.6,24.39-9.36.34-.75,1.23-1.09,1.99-.75.75.34,1.09,1.23.75,1.99-4.48,9.87-17.41,11.22-24.15,11.22Z"/><path class="cls-1" d="m20.69,38.62c-.57,0-1.12-.33-1.37-.88-.34-.75,0-1.64.75-1.99l17.71-8c.76-.34,1.64,0,1.99.75.34.75,0,1.64-.75,1.99l-17.71,8c-.2.09-.41.13-.62.13Z"/><path class="cls-1" d="m20.69,49.94c-.57,0-1.12-.33-1.37-.88-.34-.75,0-1.64.75-1.99l17.71-8c.76-.34,1.64,0,1.99.75.34.75,0,1.64-.75,1.99l-17.71,8c-.2.09-.41.13-.62.13Z"/><path class="cls-1" d="m20.69,61.27c-.57,0-1.12-.33-1.37-.88-.34-.75,0-1.64.75-1.99l17.71-8c.76-.34,1.64,0,1.99.75.34.75,0,1.64-.75,1.99l-17.71,8c-.2.09-.41.13-.62.13Z"/><path class="cls-1" d="m20.69,72.6c-.57,0-1.12-.33-1.37-.88-.34-.75,0-1.64.75-1.99l17.71-8c.76-.34,1.64,0,1.99.75.34.75,0,1.64-.75,1.99l-17.71,8c-.2.09-.41.13-.62.13Z"/><path class="cls-1" d="m79.3,46.74c-.74,0-1.39-.55-1.49-1.3-.01-.08-.84-5.62-6.72-10.09-.66-.5-.79-1.44-.29-2.1.5-.66,1.44-.79,2.1-.29,6.94,5.28,7.85,11.82,7.89,12.09.1.82-.48,1.57-1.3,1.68-.06,0-.13.01-.19.01Z"/><polygon class="cls-1" points="66.78 29.11 67.57 39.37 76.44 30.11 66.78 29.11"/></svg>