<?xml version="1.0" encoding="UTF-8"?><svg id="Layer_2" xmlns="http://www.w3.org/2000/svg" viewBox="0 0 100 100"><defs><style>.cls-1{fill:#fff;}</style></defs><path class="cls-1" d="m53.56,62.2c-1.84,0-3.09-.13-3.25-.15-.52-.06-.97-.38-1.2-.85-.24-.51-5.76-12.56-.04-27.35.19-.5.64-.86,1.17-.94.49-.08,12.2-1.84,19.03,3.55,2.81,2.22,4.39,5.3,4.7,9.16.38,4.72-.9,8.54-3.8,11.36-4.65,4.51-12.28,5.22-16.61,5.22Zm-2.05-3.06c2.83.16,11.86.27,16.57-4.31,2.26-2.2,3.2-5.13,2.9-8.96-.24-3.04-1.41-5.34-3.56-7.04-4.84-3.82-13.18-3.33-15.86-3.05-3.99,11.14-1.08,20.63-.05,23.36Z"/><path class="cls-1" d="m27.46,41.59c-.58,0-1.13-.34-1.38-.9-.33-.76.02-1.64.78-1.97l13.87-6c.76-.33,1.64.02,1.97.78.33.76-.02,1.64-.78,1.97l-13.87,6c-.19.08-.4.12-.59.12Z"/><path class="cls-1" d="m27.46,50.46c-.58,0-1.13-.34-1.38-.9-.33-.76.02-1.64.78-1.97l13.87-6c.76-.33,1.64.02,1.97.78s-.02,1.64-.78,1.97l-13.87,6c-.19.08-.4.12-.59.12Z"/><path class="cls-1" d="m27.46,59.33c-.58,0-1.13-.34-1.38-.9-.33-.76.02-1.64.78-1.97l13.87-6c.76-.33,1.64.02,1.97.78s-.02,1.64-.78,1.97l-13.87,6c-.19.08-.4.12-.59.12Z"/><path class="cls-1" d="m27.46,68.2c-.58,0-1.13-.34-1.38-.9-.33-.76.02-1.64.78-1.97l13.87-6c.76-.33,1.64.02,1.97.78s-.02,1.64-.78,1.97l-13.87,6c-.19.08-.4.12-.59.12Z"/><path class="cls-1" d="m41.33,20.39l-7.86.6,2.2,2.11c-1.29,1.61-4.05,5.45-5.38,10.2,0,0,4.8-6.63,7.47-8.2l2.8,2.68.77-7.39Z"/><path class="cls-1" d="m47.59,79.61l-7.86-.6,2.2-2.11c-1.29-1.61-4.05-5.45-5.38-10.2,0,0,4.8,6.63,7.47,8.2l2.8-2.68.77,7.39Z"/></svg>