<?xml version="1.0" encoding="UTF-8"?><svg id="Layer_2" xmlns="http://www.w3.org/2000/svg" viewBox="0 0 100 100"><defs><style>.cls-1{fill:#fff;}</style></defs><path class="cls-1" d="m35.24,69.17c-.46,0-.91-.21-1.2-.6l-19.8-26.44c-.45-.59-.39-1.42.13-1.95,9.67-9.81,22.57-15.21,36.34-15.21,2.16,0,4.33.14,6.46.41.82.1,1.4.85,1.3,1.68-.1.82-.85,1.4-1.68,1.3-2-.25-4.05-.38-6.08-.38-12.53,0-24.3,4.75-33.29,13.41l18.23,24.35c4.62-2.42,9.79-3.69,15.05-3.69,4.63,0,9.08.95,13.25,2.81l18.58-24.8c-3.08-2.74-6.5-5.06-10.16-6.92-.74-.37-1.04-1.28-.66-2.02.38-.74,1.28-1.03,2.02-.66,4.32,2.19,8.31,4.99,11.85,8.31.56.52.63,1.38.17,1.99l-20.13,26.87c-.43.58-1.22.77-1.86.45-4.08-2.01-8.47-3.03-13.06-3.03-5.18,0-10.27,1.36-14.72,3.93-.24.14-.49.2-.75.2Z"/><circle class="cls-1" cx="50.38" cy="74.82" r="5.22"/><path class="cls-1" d="m47.84,71.76c-.55,0-1.07-.3-1.34-.82l-17.29-33.86c-.38-.74-.08-1.64.65-2.02.74-.38,1.64-.08,2.02.65l17.29,33.86c.38.74.08,1.64-.65,2.02-.22.11-.45.16-.68.16Z"/><path class="cls-1" d="m63.47,19.97l-3.36,14.01c-.14.6-.23,1.2-.25,1.81-.08,2.29.29,7.23,5.11,7.08,3.13-.1,4.42-2.1,4.93-4.09s.21-3.99-.61-5.82l-5.81-13Z"/></svg>