<?xml version="1.0" encoding="UTF-8"?><svg id="Layer_2" xmlns="http://www.w3.org/2000/svg" viewBox="0 0 100 100"><defs><style>.cls-1{fill:#fff;}</style></defs><path class="cls-1" d="m71.27,72.95h-28.67l-6.78-4.12h-10.89v-33.32l9.07.1,3.32-3.27,8.98-.05.02-4.08h5.4l-.06,4.11,7.84.07,2.08,5.99h8.25l1.96,3.88h1.48l1.25-2.79,6.69.06v27.14l-1.88,5.6h-5.41v-5.55h-2.66v6.21Zm-28.11-2h26.11v-6.21h6.66v5.55h1.97l1.32-3.93v-24.84l-3.4-.03-1.24,2.78h-4l-1.96-3.88h-8.44l-2.09-6.01-8.44-.08.06-4.09h-1.38l-.02,4.07-10.15.05-3.33,3.28-7.88-.09v29.29h9.45l6.78,4.12Z"/><rect class="cls-1" x="18.79" y="36.66" width="2" height="30.52"/><rect class="cls-1" x="19.79" y="50.2" width="6.13" height="2"/><rect class="cls-1" x="38.77" y="27.05" width="20.09" height="2"/></svg>