<?xml version="1.0" encoding="UTF-8"?><svg id="Layer_2" xmlns="http://www.w3.org/2000/svg" viewBox="0 0 100 100"><defs><style>.cls-1{fill:#fff;}</style></defs><path class="cls-1" d="m80.91,67.58H19.09c-.83,0-1.5-.67-1.5-1.5V22.73c0-.83.67-1.5,1.5-1.5h61.83c.83,0,1.5.67,1.5,1.5v43.35c0,.83-.67,1.5-1.5,1.5Zm-60.33-3h58.83V24.23H20.59v40.35Z"/><path class="cls-1" d="m36.15,58.68c4.11-7.45,1.31-13.57-.46-16.29l2.57-1.46-8.71-6.26.78,10.76,2.75-1.56c1.36,1.99,3.91,7.04.43,13.36-5.45,9.89.1,18.95.33,19.33.29.45.77.7,1.27.7.27,0,.55-.07.8-.23.7-.44.91-1.37.47-2.07-.05-.08-4.86-7.92-.25-16.28Z"/><path class="cls-1" d="m52.46,58.68c4.11-7.45,1.31-13.57-.46-16.29l2.57-1.46-8.71-6.26.78,10.76,2.75-1.56c1.36,1.99,3.91,7.04.43,13.36-5.45,9.89.1,18.95.33,19.33.29.45.77.7,1.27.7.27,0,.55-.07.8-.23.7-.44.91-1.37.47-2.07-.05-.08-4.86-7.92-.25-16.28Z"/><path class="cls-1" d="m68.77,58.68c4.11-7.45,1.31-13.57-.46-16.29l2.57-1.46-8.71-6.26.78,10.76,2.75-1.56c1.36,1.99,3.91,7.04.43,13.36-5.45,9.89.1,18.95.33,19.33.29.45.77.7,1.27.7.27,0,.55-.07.8-.23.7-.44.91-1.37.47-2.07-.05-.08-4.86-7.92-.25-16.28Z"/></svg>