<?xml version="1.0" encoding="UTF-8"?><svg id="Layer_2" xmlns="http://www.w3.org/2000/svg" viewBox="0 0 100 100"><defs><style>.cls-1{fill:#fff;}</style></defs><path class="cls-1" d="m55,80.34c-13.52,0-24.53-11-24.53-24.53s11-24.53,24.53-24.53,24.53,11,24.53,24.53-11,24.53-24.53,24.53Zm0-46.05c-11.87,0-21.53,9.66-21.53,21.53s9.66,21.53,21.53,21.53,21.53-9.66,21.53-21.53-9.66-21.53-21.53-21.53Z"/><path class="cls-1" d="m31.98,56.83c-.55,0-1-.44-1-.99,0-.55.44-1,.99-1.01l4.67-.03h0c.55,0,1,.44,1,.99,0,.55-.44,1-.99,1.01l-4.67.03h0Z"/><path class="cls-1" d="m55.01,38.22c-.55,0-1-.44-1-.99l-.03-4.67c0-.55.44-1,.99-1.01h0c.55,0,1,.44,1,.99l.03,4.67c0,.55-.44,1-.99,1.01h0Z"/><path class="cls-1" d="m55.01,79.82c-.55,0-1-.44-1-.99l-.03-4.67c0-.55.44-1,.99-1.01h0c.55,0,1,.44,1,.99l.03,4.67c0,.55-.44,1-.99,1.01h0Z"/><path class="cls-1" d="m41.91,43.46c-.25,0-.51-.1-.7-.29l-3.33-3.28c-.39-.39-.4-1.02,0-1.41s1.02-.4,1.41,0l3.33,3.28c.39.39.4,1.02,0,1.41-.2.2-.45.3-.71.3Z"/><path class="cls-1" d="m38.6,73.95c-.25,0-.51-.1-.7-.29-.39-.39-.4-1.02,0-1.41l3.28-3.33c.39-.39,1.02-.4,1.41,0,.39.39.4,1.02,0,1.41l-3.28,3.33c-.2.2-.45.3-.71.3Z"/><path class="cls-1" d="m77.25,56.51h0l-4.67-.03c-.55,0-1-.46-.99-1.01,0-.55.45-.99,1-.99h0l4.67.03c.55,0,1,.46.99,1.01,0,.55-.45.99-1,.99Z"/><path class="cls-1" d="m67.32,43.14c-.26,0-.52-.1-.71-.3-.39-.39-.38-1.03,0-1.41l3.33-3.28c.39-.39,1.03-.38,1.41,0s.38,1.03,0,1.41l-3.33,3.28c-.19.19-.45.29-.7.29Z"/><path class="cls-1" d="m70.63,73.62c-.26,0-.52-.1-.71-.3l-3.28-3.33c-.39-.39-.38-1.03,0-1.41.39-.39,1.03-.38,1.41,0l3.28,3.33c.39.39.38,1.03,0,1.41-.19.19-.45.29-.7.29Z"/><path class="cls-1" d="m55,56.81c-.26,0-.52-.1-.72-.3l-9.13-9.38c-.39-.4-.38-1.03.02-1.41.4-.38,1.03-.38,1.41.02l9.13,9.38c.39.4.38,1.03-.02,1.41-.2.19-.45.28-.7.28Z"/><circle class="cls-1" cx="54.99" cy="55.81" r="2.65"/><polygon class="cls-1" points="35.18 22.81 35.98 35.17 23.56 34.44 26.75 31.25 21.98 26.48 27.3 21.16 32.06 25.92 35.18 22.81"/></svg>