<?xml version="1.0" encoding="UTF-8"?><svg id="Layer_2" xmlns="http://www.w3.org/2000/svg" viewBox="0 0 100 100"><defs><style>.cls-1{fill:#fff;}</style></defs><path class="cls-1" d="m79.41,26.28l-5.59,7.93c-.24.34-.44.69-.61,1.07-.62,1.41-1.61,4.6,1.44,5.7,1.99.72,3.29-.22,4.1-1.33s1.12-2.45,1.06-3.79l-.41-9.58Z"/><path class="cls-1" d="m68.46,31.34l-5.59,7.93c-.24.34-.44.69-.61,1.07-.62,1.41-1.61,4.6,1.44,5.7,1.99.72,3.29-.22,4.1-1.33s1.12-2.45,1.06-3.79l-.41-9.58Z"/><path class="cls-1" d="m82.02,40.31l-5.59,7.93c-.24.34-.44.69-.61,1.07-.62,1.41-1.61,4.6,1.44,5.7,1.99.72,3.29-.22,4.1-1.33s1.12-2.45,1.06-3.79l-.41-9.58Z"/><path class="cls-1" d="m43.26,68.61V26.74h-21.91v41.87h-3.78v5.12h29.48v-5.12h-3.78Zm-2.48-28.3h-16.96v-11.68h16.96v11.68Z"/><path class="cls-1" d="m51.21,67.89c-1.1,0-2.06-.54-2.79-1.61-.61-.89-.91-1.99-.88-3.17.06-2.35.42-7.34,2.11-12.82-3.92-4.25-7.89-3.89-7.95-3.88-.29.02-.52-.17-.55-.44-.03-.28.17-.52.44-.55.26-.03,4.36-.4,8.43,3.75.63-1.85,1.42-3.73,2.4-5.58.13-.24.43-.34.68-.2.24.13.33.43.2.68-1.05,1.96-1.87,3.98-2.51,5.95,1.92,2.25,3.77,5.58,5.16,10.51,0,.02,1.52,4.72-2.74,6.84-.71.35-1.38.53-2,.53Zm-.79-16.69c-1.5,5.11-1.82,9.73-1.88,11.94-.03.97.22,1.86.71,2.58.86,1.26,2.01,1.51,3.52.75,3.47-1.73,2.28-5.5,2.23-5.66-1.24-4.42-2.88-7.49-4.57-9.61Z"/><path class="cls-1" d="m55.73,46.8c-.12,0-.25-.05-.35-.14l-7.04-6.78c-.2-.19-.21-.51-.01-.71.19-.2.51-.2.71-.01l7.04,6.78c.2.19.21.51.01.71-.1.1-.23.15-.36.15Z"/></svg>