<?xml version="1.0" encoding="UTF-8"?><svg id="Layer_2" xmlns="http://www.w3.org/2000/svg" viewBox="0 0 100 100"><defs><style>.cls-1{fill:#fff;}</style></defs><path class="cls-1" d="m67.61,41.16c-.4-.57-.89-1.08-1.46-1.47-1-.72-2.22-1.15-3.54-1.15-3.36,0-6.09,2.74-6.09,6.09,0,.25.02.5.05.74.08.7.28,1.37.59,1.97,1,2.01,3.06,3.39,5.45,3.39,3.36,0,6.09-2.74,6.09-6.1,0-1.29-.4-2.49-1.09-3.47Zm-5,7.57c-1.66,0-3.09-.99-3.72-2.41-.24-.52-.37-1.09-.37-1.69,0-.14.01-.28.02-.42h0c.22-2.06,1.95-3.67,4.07-3.67.56,0,1.1.11,1.58.32h.01c.67.29,1.25.74,1.67,1.32.52.68.83,1.54.83,2.45,0,2.26-1.83,4.1-4.09,4.1Z"/><path class="cls-1" d="m36.61,59.51c-.31-.6-.72-1.14-1.21-1.6-1.09-1.05-2.57-1.68-4.19-1.68-3.36,0-6.09,2.74-6.09,6.09,0,.54.07,1.06.2,1.55.17.67.45,1.28.83,1.84,1.09,1.63,2.95,2.71,5.06,2.71,3.36,0,6.1-2.74,6.1-6.1,0-1.01-.25-1.97-.7-2.81Zm-5.4,6.91c-1.38,0-2.6-.69-3.34-1.74-.39-.55-.64-1.19-.72-1.89-.02-.15-.03-.31-.03-.47,0-2.25,1.84-4.09,4.09-4.09.88,0,1.69.28,2.36.76.56.39,1.02.92,1.32,1.54.27.54.42,1.15.42,1.79,0,2.26-1.84,4.1-4.1,4.1Z"/><path class="cls-1" d="m69.71,33.85l-5.11-6.68c-2.87-3.75-8.14-4.82-12.24-2.47l-17.84,10.17c-1.57.9-2.8,2.32-3.46,4.01l-2.92,7.47c-.66,1.7-1.66,3.22-2.95,4.52l-5.74,5.74c-1.47,1.46-1.77,3.74-.73,5.53l1.74,3c.45.78,1.18,1.34,2.05,1.56.28.08.57.12.85.12.6,0,1.18-.16,1.7-.47l1.09-.64,1.72-1.03c-.39-.55-.64-1.19-.72-1.89l-1.83,1.08-1.28.76c-.31.18-.67.23-1.02.14s-.65-.31-.83-.63l-1.74-3c-.58-1.01-.41-2.29.41-3.12l5.74-5.74c1.49-1.49,2.64-3.24,3.4-5.2l2.92-7.47c.49-1.27,1.42-2.33,2.59-3l17.84-10.18c1.16-.66,2.43-.97,3.69-.97,2.28,0,4.52,1.02,5.97,2.93l5.11,6.67c.46.61.65,1.38.5,2.13-.14.75-.6,1.4-1.26,1.79l-1.21.71-1.95,1.17c.67.29,1.25.74,1.67,1.32l1.74-1.02.77-.46c1.15-.68,1.95-1.82,2.21-3.13.25-1.31-.07-2.66-.88-3.72Zm-11.17,10.36l-1.97,1.16-21.17,12.54-1.83,1.08c.56.39,1.02.92,1.32,1.54l1.72-1.02,20.55-12.17,1.73-1.02c-.24-.52-.37-1.09-.37-1.69,0-.14.01-.28.02-.42Z"/><path class="cls-1" d="m21.26,77.54c-.35,0-.69-.18-.87-.51-.27-.48-.1-1.09.38-1.36l60.64-34.32c.48-.27,1.09-.1,1.36.38.27.48.1,1.09-.38,1.36l-60.64,34.32c-.16.09-.32.13-.49.13Z"/></svg>