<?xml version="1.0" encoding="UTF-8"?><svg id="Layer_2" xmlns="http://www.w3.org/2000/svg" viewBox="0 0 100 100"><defs><style>.cls-1{fill:#fff;}</style></defs><path class="cls-1" d="m30.3,75.43c-1.46,0-2.9-.48-4.11-1.43l-5.17-4.07c-.43-.34-.51-.97-.17-1.4.34-.43.97-.51,1.4-.17l5.17,4.07c1.52,1.2,3.58,1.33,5.25.35l3.13-1.84c3.08-1.82,6.91-1.58,9.75.6l1.11.86c1.55,1.19,3.69,1.27,5.32.19l2.2-1.45c2.92-1.93,6.69-1.91,9.6.04l1.48,1c2.01,1.36,4.63,1.37,6.66.03l5.89-3.88c.46-.3,1.08-.18,1.39.28.3.46.18,1.08-.28,1.39l-5.89,3.88c-2.71,1.79-6.19,1.77-8.88-.04l-1.48-1c-2.23-1.5-5.13-1.52-7.38-.03l-2.2,1.45c-2.34,1.55-5.42,1.44-7.64-.27l-1.12-.86c-2.19-1.68-5.14-1.86-7.52-.46l-3.13,1.84c-1.06.62-2.23.93-3.39.93Z"/><path class="cls-1" d="m68.63,67.11c-1.56,0-3.11-.46-4.47-1.37l-1.48-1c-1.49-1-3.34-1.36-5.09-.99-.54.11-1.07-.23-1.19-.77s.23-1.07.77-1.19c2.27-.48,4.69-.01,6.62,1.29l1.48,1c2.02,1.36,4.63,1.37,6.66.03l5.89-3.88c.46-.3,1.08-.18,1.39.28.3.46.18,1.08-.28,1.39l-5.89,3.88c-1.34.88-2.88,1.33-4.41,1.33Z"/><path class="cls-1" d="m30.3,67.35c-1.46,0-2.9-.48-4.11-1.43l-5.17-4.07c-.43-.34-.51-.97-.17-1.4.34-.43.97-.51,1.4-.17l5.17,4.07c1.52,1.2,3.58,1.33,5.25.35l3.13-1.84c1.5-.89,3.22-1.3,4.96-1.19.55.03.97.51.94,1.06-.03.55-.51.96-1.06.94-1.34-.08-2.67.24-3.83.92l-3.13,1.84c-1.06.62-2.23.93-3.39.93Z"/><path class="cls-1" d="m59.21,41.65c.55,0,1-.45,1-1s-.45-1-1-1h-6.7v-5.11h6.7c.55,0,1-.45,1-1s-.45-1-1-1h-6.7v-3.65c0-1.82-1.48-3.3-3.3-3.3s-3.3,1.48-3.3,3.3v30.52c-1.29.99-2.13,2.55-2.13,4.31,0,3,2.43,5.43,5.43,5.43s5.43-2.43,5.43-5.43c0-1.76-.84-3.32-2.13-4.31v-9.65h6.7c.55,0,1-.45,1-1s-.45-1-1-1h-6.7v-6.11h6.7Z"/></svg>