<?xml version="1.0" encoding="UTF-8"?><svg id="Layer_2" xmlns="http://www.w3.org/2000/svg" viewBox="0 0 100 100"><defs><style>.cls-1{fill:#fff;}</style></defs><path class="cls-1" d="m36.6,28.96l7.12,6.8-7.12,6.79c-1.4-1.91-2.22-4.25-2.22-6.79s.83-4.9,2.22-6.8Z"/><path class="cls-1" d="m53.12,26.79l-7.22,6.9-7.23-6.9c1.97-1.59,4.49-2.55,7.23-2.55s5.24.96,7.22,2.55Z"/><path class="cls-1" d="m45.9,37.83l7.21,6.89c-1.98,1.6-4.48,2.55-7.21,2.55s-5.25-.96-7.22-2.55l7.22-6.89Z"/><path class="cls-1" d="m57.41,35.76c0,2.54-.82,4.88-2.22,6.79l-7.12-6.79,7.12-6.79c1.4,1.9,2.22,4.25,2.22,6.79Z"/><path class="cls-1" d="m50.19,54.35l3.44,8h-7.54c-.87,0-1.69.38-2.26,1.04l-9.45,10.98c-.8.92-1.91,1.39-3.04,1.39-.92,0-1.85-.32-2.61-.97-1.67-1.44-1.86-3.97-.42-5.64l9.45-10.98c2.09-2.42,5.13-3.82,8.33-3.82h4.1Z"/><path class="cls-1" d="m70.95,47.04l-8.08,10.88c-.7.95-1.54,1.76-2.49,2.42l-3.39-7.91,7.54-10.16c1.31-1.77,3.82-2.14,5.59-.82,1.77,1.31,2.14,3.82.83,5.59Z"/><circle class="cls-1" cx="66.96" cy="32.79" r="5.7"/><path class="cls-1" d="m62.64,76.24c-.78,0-1.52-.46-1.84-1.22l-9.65-22.83c-.43-1.02.05-2.19,1.06-2.62,1.02-.43,2.19.05,2.62,1.06l9.65,22.83c.43,1.02-.05,2.19-1.06,2.62-.25.11-.52.16-.78.16Z"/></svg>