<?xml version="1.0" encoding="UTF-8"?><svg id="Layer_2" xmlns="http://www.w3.org/2000/svg" viewBox="0 0 100 100"><defs><style>.cls-1{fill:#fff;}</style></defs><path class="cls-1" d="m53.95,63.24c-2.04,0-3.41-.14-3.59-.16-.52-.06-.97-.38-1.2-.85-.26-.56-6.36-13.85-.04-30.17.19-.5.64-.86,1.17-.94.55-.08,13.44-2.02,20.96,3.9,3.08,2.43,4.81,5.8,5.14,10.03.41,5.18-.99,9.37-4.16,12.45-5.1,4.96-13.51,5.74-18.28,5.74Zm-2.39-3.08c3.04.18,13.27.36,18.59-4.82,2.5-2.43,3.6-5.82,3.26-10.06-.27-3.41-1.59-6-4.01-7.91-5.49-4.33-14.91-3.71-17.78-3.4-4.56,12.61-1.17,23.27-.05,26.19Z"/><path class="cls-1" d="m25.03,39.76c-.6,0-1.17-.36-1.4-.95-.3-.77.08-1.64.85-1.94l15.36-6c.77-.3,1.64.08,1.94.85.3.77-.08,1.64-.85,1.94l-15.36,6c-.18.07-.36.1-.55.1Z"/><path class="cls-1" d="m25.03,49.59c-.6,0-1.17-.36-1.4-.95-.3-.77.08-1.64.85-1.94l15.36-6c.77-.3,1.64.08,1.94.85.3.77-.08,1.64-.85,1.94l-15.36,6c-.18.07-.36.1-.55.1Z"/><path class="cls-1" d="m25.03,59.42c-.6,0-1.17-.36-1.4-.95-.3-.77.08-1.64.85-1.94l15.36-6c.77-.3,1.64.08,1.94.85.3.77-.08,1.64-.85,1.94l-15.36,6c-.18.07-.36.1-.55.1Z"/><path class="cls-1" d="m25.03,69.24c-.6,0-1.17-.36-1.4-.95-.3-.77.08-1.64.85-1.94l15.36-6c.77-.3,1.64.08,1.94.85.3.77-.08,1.64-.85,1.94l-15.36,6c-.18.07-.36.1-.55.1Z"/></svg>