<?xml version="1.0" encoding="UTF-8"?><svg id="Layer_2" xmlns="http://www.w3.org/2000/svg" viewBox="0 0 100 100"><defs><style>.cls-1{fill:#fff;}</style></defs><path class="cls-1" d="m49.98,74.53c-13.52,0-24.53-11-24.53-24.53s11-24.53,24.53-24.53,24.53,11,24.53,24.53-11,24.53-24.53,24.53Zm0-46.05c-11.87,0-21.53,9.66-21.53,21.53s9.66,21.53,21.53,21.53,21.53-9.66,21.53-21.53-9.66-21.53-21.53-21.53Z"/><path class="cls-1" d="m27.82,73.59c-.52,0-1.04-.2-1.43-.6-6.06-6.21-9.4-14.4-9.4-23.07s3.27-16.71,9.22-22.89c.77-.8,2.03-.82,2.83-.05.8.77.82,2.03.05,2.83-5.22,5.43-8.1,12.57-8.1,20.11s2.93,14.82,8.26,20.27c.77.79.76,2.06-.03,2.83-.39.38-.89.57-1.4.57Z"/><path class="cls-1" d="m72.12,73.64c-.51,0-1.01-.19-1.4-.57-.79-.77-.8-2.04-.02-2.83,5.36-5.45,8.32-12.67,8.32-20.33s-2.9-14.73-8.16-20.17c-.77-.79-.75-2.06.05-2.83s2.06-.75,2.83.05c5.99,6.19,9.28,14.34,9.28,22.95s-3.36,16.93-9.46,23.13c-.39.4-.91.6-1.43.6Z"/><path class="cls-1" d="m41.43,52.45h-4.62l-.88,2.64h-2.8l4.76-12.8h2.44l4.79,12.8h-2.8l-.89-2.64Zm-3.91-2.14h3.2l-1.61-4.79-1.59,4.79Z"/><path class="cls-1" d="m45.35,55.09v-12.8h4.48c1.55,0,2.73.3,3.53.89s1.2,1.47,1.2,2.61c0,.63-.16,1.18-.48,1.66s-.77.83-1.34,1.05c.66.16,1.17.5,1.55.99.38.5.57,1.11.57,1.83,0,1.23-.39,2.16-1.18,2.79s-1.9.96-3.36.97h-4.97Zm2.64-7.44h1.95c1.33-.02,2-.55,2-1.59,0-.58-.17-1-.5-1.25-.34-.25-.87-.38-1.6-.38h-1.85v3.23Zm0,1.86v3.45h2.26c.62,0,1.11-.15,1.45-.44.35-.29.52-.7.52-1.23,0-1.17-.61-1.77-1.82-1.78h-2.42Z"/><path class="cls-1" d="m62.5,51.73c0-.5-.18-.88-.53-1.15s-.98-.55-1.9-.84-1.64-.59-2.17-.88c-1.45-.79-2.18-1.84-2.18-3.17,0-.69.19-1.31.58-1.85.39-.54.95-.96,1.68-1.27.73-.3,1.55-.46,2.46-.46s1.73.17,2.44.5c.71.33,1.27.8,1.67,1.4.4.6.59,1.29.59,2.06h-2.64c0-.59-.18-1.04-.55-1.37-.37-.32-.89-.49-1.56-.49s-1.15.14-1.5.41c-.36.27-.54.63-.54,1.08,0,.42.21.76.63,1.05.42.28,1.04.54,1.85.79,1.5.45,2.59,1.01,3.28,1.68s1.03,1.5,1.03,2.5c0,1.11-.42,1.98-1.26,2.61-.84.63-1.97.95-3.38.95-.98,0-1.88-.18-2.69-.54-.81-.36-1.43-.85-1.85-1.48-.43-.63-.64-1.35-.64-2.18h2.65c0,1.41.84,2.12,2.53,2.12.63,0,1.12-.13,1.47-.38.35-.26.53-.61.53-1.07Z"/></svg>