<?xml version="1.0" encoding="UTF-8"?><svg id="Layer_2" xmlns="http://www.w3.org/2000/svg" viewBox="0 0 100 100"><defs><style>.cls-1{fill:#fff;}</style></defs><path class="cls-1" d="m51.59,61.9l-2.32,6.81c-.1.29-.17.59-.21.89-.15,1.14-.19,3.61,2.21,3.76,1.56.1,2.3-.84,2.64-1.81s.29-1.98-.03-2.92l-2.29-6.74Z"/><path class="cls-1" d="m76.51,34.11h-5.87c-.29,0-.57-.13-.76-.35l-5.18-6.13h-29.35l-4.4,6.07c-.19.26-.49.41-.81.41h-6.65c-.55,0-1-.45-1-1s.45-1,1-1h6.14l4.4-6.07c.19-.26.49-.41.81-.41h30.33c.29,0,.57.13.76.35l5.18,6.13h5.41c.55,0,1,.45,1,1s-.45,1-1,1Z"/><path class="cls-1" d="m51.58,60.52c-.14,0-.28-.03-.41-.09l-19.71-8.77c-.31-.14-.53-.42-.58-.76l-1.59-10.23h-5.8c-.55,0-1-.45-1-1s.45-1,1-1h6.65c.49,0,.91.36.99.85l1.64,10.54,18.79,8.36,16.94-8.32,1.15-10.53c.06-.51.48-.89.99-.89h5.87c.55,0,1,.45,1,1s-.45,1-1,1h-4.97l-1.11,10.19c-.04.34-.25.64-.55.79l-17.85,8.77c-.14.07-.29.1-.44.1Z"/><path class="cls-1" d="m69.69,43.18c-2.63.44-3.31-4.6-3.31-4.6,0,0-1.38,5.47-4.88,5.39s-4.88-5.39-4.88-5.39c0,0-1.3,5.24-4.96,5.39s-5.12-5.39-5.12-5.39c0,0-1.3,5.39-5.04,5.39s-4.88-5.39-4.88-5.39c-2.52,6.19-6.09,3.02-6.09,3.02l1.33,9.16,19.71,8.77,17.46-9.59.65-6.75Z"/></svg>