<?xml version="1.0" encoding="UTF-8"?><svg id="Layer_2" xmlns="http://www.w3.org/2000/svg" viewBox="0 0 100 100"><defs><style>.cls-1{fill:#fff;}</style></defs><path class="cls-1" d="m49.44,77.56c-13.8,0-25.03-11.23-25.03-25.03s11.23-25.03,25.03-25.03,25.03,11.23,25.03,25.03-11.23,25.03-25.03,25.03Zm0-47.07c-12.15,0-22.03,9.88-22.03,22.03s9.88,22.03,22.03,22.03,22.03-9.88,22.03-22.03-9.88-22.03-22.03-22.03Z"/><path class="cls-1" d="m48.91,60.67c-4.49,0-8.14-3.65-8.14-8.14s3.65-8.14,8.14-8.14,8.14,3.65,8.14,8.14-3.65,8.14-8.14,8.14Zm0-14.28c-3.39,0-6.14,2.75-6.14,6.14s2.75,6.14,6.14,6.14,6.14-2.75,6.14-6.14-2.76-6.14-6.14-6.14Z"/><path class="cls-1" d="m75.33,32.72c-2.64,0-4.79-2.15-4.79-4.79s2.15-4.79,4.79-4.79,4.79,2.15,4.79,4.79-2.15,4.79-4.79,4.79Zm0-7.58c-1.54,0-2.79,1.25-2.79,2.79s1.25,2.79,2.79,2.79,2.79-1.25,2.79-2.79-1.25-2.79-2.79-2.79Z"/><path class="cls-1" d="m26.27,53.67c-.55,0-1-.44-1-.99,0-.55.44-1,.99-1.01l4.67-.03h0c.55,0,1,.44,1,.99,0,.55-.44,1-.99,1.01l-4.67.03h0Z"/><path class="cls-1" d="m49.31,35.06c-.55,0-1-.44-1-.99l-.03-4.67c0-.55.44-1,.99-1.01h0c.55,0,1,.44,1,.99l.03,4.67c0,.55-.44,1-.99,1.01h0Z"/><path class="cls-1" d="m49.31,76.67c-.55,0-1-.44-1-.99l-.03-4.67c0-.55.44-1,.99-1.01h0c.55,0,1,.44,1,.99l.03,4.67c0,.55-.44,1-.99,1.01h0Z"/><path class="cls-1" d="m49.42,53.53c-.26,0-.51-.1-.71-.29l-16.55-16.5c-.39-.39-.39-1.02,0-1.41.39-.39,1.02-.39,1.41,0l16.55,16.5c.39.39.39,1.02,0,1.41-.2.2-.45.29-.71.29Z"/><path class="cls-1" d="m32.9,70.79c-.25,0-.51-.1-.7-.29-.39-.39-.4-1.02,0-1.41l3.28-3.33c.39-.39,1.02-.4,1.41,0,.39.39.4,1.02,0,1.41l-3.28,3.33c-.2.2-.45.3-.71.3Z"/><path class="cls-1" d="m71.54,53.35h0l-4.67-.03c-.55,0-1-.46-.99-1.01,0-.55.45-.99,1-.99h0l4.67.03c.55,0,1,.46.99,1.01,0,.55-.45.99-1,.99Z"/><path class="cls-1" d="m61.62,39.98c-.26,0-.52-.1-.71-.3-.39-.39-.38-1.03,0-1.41l3.33-3.28c.39-.39,1.03-.38,1.41,0s.38,1.03,0,1.41l-3.33,3.28c-.19.19-.45.29-.7.29Z"/><path class="cls-1" d="m64.92,70.46c-.26,0-.52-.1-.71-.3l-3.28-3.33c-.39-.39-.38-1.03,0-1.41.39-.39,1.03-.38,1.41,0l3.28,3.33c.39.39.38,1.03,0,1.41-.19.19-.45.29-.7.29Z"/><path class="cls-1" d="m75.33,41.29c-.55,0-1-.45-1-1v-8.57c0-.55.45-1,1-1s1,.45,1,1v8.57c0,.55-.45,1-1,1Z"/><polygon class="cls-1" points="30.93 26.49 30.41 33.48 23.38 34.04 25.45 31.97 20.88 27.4 24.33 23.94 28.9 28.51 30.93 26.49"/></svg>