<?xml version="1.0" encoding="UTF-8"?><svg id="Layer_2" xmlns="http://www.w3.org/2000/svg" viewBox="0 0 100 100"><defs><style>.cls-1{fill:#fff;}</style></defs><path class="cls-1" d="m36.92,73.68c-.46,0-.91-.21-1.2-.6l-17.55-23.44c-.45-.59-.39-1.42.13-1.95,8.6-8.73,20.09-13.53,32.34-13.53,11.58,0,22.6,4.36,31.04,12.28.56.52.63,1.38.17,1.99l-17.85,23.82c-.43.58-1.22.77-1.86.45-3.59-1.77-7.46-2.67-11.5-2.67-4.56,0-9.05,1.2-12.97,3.46-.24.14-.49.2-.75.2Zm-15.57-24.79l15.99,21.35c4.08-2.11,8.65-3.22,13.29-3.22,4.08,0,8.01.82,11.69,2.45l16.3-21.76c-7.74-6.82-17.62-10.56-27.99-10.56-11.01,0-21.36,4.16-29.28,11.74Z"/><circle class="cls-1" cx="50.33" cy="78.51" r="4.63"/><path class="cls-1" d="m48.08,75.97c-.55,0-1.07-.3-1.34-.82l-15.33-30.02c-.38-.74-.08-1.64.65-2.02.74-.38,1.64-.08,2.02.65l15.33,30.02c.38.74.08,1.64-.65,2.02-.22.11-.45.16-.68.16Z"/><path class="cls-1" d="m31,28.52h-6.25l-1.19,2.97h-3.79l6.44-14.43h3.3l6.47,14.43h-3.79l-1.2-2.97Zm-5.29-2.41h4.32l-2.17-5.4-2.15,5.4Z"/><path class="cls-1" d="m49.79,17.06v9.5c0,1.58-.59,2.83-1.78,3.75s-2.8,1.38-4.85,1.38-3.62-.45-4.81-1.34-1.79-2.12-1.82-3.68v-9.61h3.56v9.52c0,.94.27,1.63.81,2.07s1.29.65,2.25.65c2,0,3.02-.88,3.05-2.64v-9.6h3.58Z"/><path class="cls-1" d="m65.02,19.47h-5.3v12.02h-3.56v-12.02h-5.23v-2.41h14.09v2.41Z"/><path class="cls-1" d="m80.22,24.6c0,1.42-.3,2.67-.9,3.74s-1.46,1.9-2.58,2.48-2.4.87-3.85.87-2.71-.29-3.84-.86-2-1.4-2.61-2.46c-.62-1.07-.93-2.29-.94-3.68v-.71c0-1.42.31-2.67.92-3.75.61-1.08,1.48-1.91,2.6-2.49s2.4-.87,3.84-.87,2.72.29,3.84.87c1.12.58,1.99,1.41,2.6,2.49.61,1.08.92,2.33.92,3.74v.64Zm-3.61-.65c0-1.51-.32-2.66-.97-3.45s-1.58-1.18-2.78-1.18-2.12.39-2.77,1.16-.98,1.91-.99,3.41v.7c0,1.47.32,2.62.97,3.43s1.58,1.22,2.8,1.22,2.11-.39,2.76-1.17c.64-.78.97-1.92.97-3.42v-.7Z"/></svg>