<?xml version="1.0" encoding="UTF-8"?><svg id="Layer_2" xmlns="http://www.w3.org/2000/svg" viewBox="0 0 100 100"><defs><style>.cls-1{fill:#fff;}</style></defs><path class="cls-1" d="m60.88,65.83H28.52v-17.78h-1.64s-15.75-5.1-15.75-5.1l3.8-9.17,16.59,5.95v5.32l22.81-.03,4.9,6.77,21.12-13.05,5.27,8.04h-7.38l-17.35,19.05Zm-29.37-3h28.04l16.07-17.64-17.2,10.62-5.63-7.79-21.28.03v14.78Zm-16.38-21.73l12.21,3.96h1.17v-3.21l-11.91-4.27-1.46,3.53Zm62.76,2.68h2.16l-.62-.95-1.53.95Z"/><rect class="cls-1" x="34.93" y="39.25" width="13.86" height="3"/><rect class="cls-1" x="40.37" y="40.75" width="3" height="5.79"/><path class="cls-1" d="m84.23,49.61l-1.33,5.54c-.06.24-.09.47-.1.72-.03.91.12,2.86,2.02,2.8,1.24-.04,1.75-.83,1.95-1.62s.08-1.58-.24-2.3l-2.3-5.14Z"/></svg>