<?xml version="1.0" encoding="UTF-8"?><svg id="Layer_2" xmlns="http://www.w3.org/2000/svg" viewBox="0 0 100 100"><defs><style>.cls-1{fill:#fff;}</style></defs><path class="cls-1" d="m35.24,65.2c-.46,0-.91-.21-1.2-.6l-19.8-26.44c-.45-.59-.39-1.42.13-1.95,9.67-9.81,22.57-15.21,36.34-15.21,13.02,0,25.4,4.9,34.88,13.8.56.52.63,1.38.17,1.99l-20.13,26.87c-.43.58-1.22.77-1.86.45-4.08-2.01-8.47-3.03-13.06-3.03-5.18,0-10.27,1.36-14.72,3.93-.24.14-.49.2-.75.2Zm-17.82-27.79l18.23,24.35c4.62-2.42,9.79-3.69,15.05-3.69,4.63,0,9.08.95,13.25,2.81l18.58-24.8c-8.78-7.8-20.03-12.08-31.83-12.08-12.53,0-24.3,4.75-33.29,13.41Z"/><path class="cls-1" d="m66.49,59.9c-3.84-3.76-2.46-11.45-2.44-11.53.02-.09.02-.19.02-.28h3.46l-4.83-9-4.83,9h3.18c-.25,1.56-1.24,9.47,3.34,13.95,3.23,3.16.86,10.7-.32,13.34-.34.76,0,1.64.75,1.98.2.09.41.13.61.13.57,0,1.12-.33,1.37-.88.21-.46,5.06-11.45-.32-16.72Z"/><path class="cls-1" d="m54.26,59.9c-3.84-3.76-2.46-11.45-2.44-11.53.02-.09.02-.19.02-.28h3.46l-4.83-9-4.83,9h3.18c-.25,1.56-1.24,9.47,3.34,13.95,3.23,3.16.86,10.7-.32,13.34-.34.76,0,1.64.75,1.98.2.09.41.13.61.13.57,0,1.12-.33,1.37-.88.21-.46,5.06-11.45-.32-16.72Z"/><path class="cls-1" d="m41.93,59.9c-3.84-3.76-2.46-11.45-2.44-11.53.02-.09.02-.19.02-.28h3.46l-4.83-9-4.83,9h3.18c-.25,1.56-1.24,9.47,3.34,13.95,3.23,3.16.86,10.7-.32,13.34-.34.76,0,1.64.75,1.98.2.09.41.13.61.13.57,0,1.12-.33,1.37-.88.21-.46,5.06-11.45-.32-16.72Z"/></svg>