<?xml version="1.0" encoding="UTF-8"?><svg id="Layer_2" xmlns="http://www.w3.org/2000/svg" viewBox="0 0 100 100"><defs><style>.cls-1{fill:#fff;}</style></defs><path class="cls-1" d="m60.96,36.97c-.1,0-.21,0-.31,0l-13.48-.51c-2.17-.08-4.18-1-5.66-2.6s-2.25-3.67-2.17-5.84l.08-2.19c.08-2.17,1-4.18,2.6-5.66,1.59-1.48,3.65-2.25,5.84-2.17l13.48.51c4.48.17,8,3.95,7.83,8.44l-.08,2.19c-.17,4.38-3.78,7.83-8.13,7.83Zm-.2-3c2.81.14,5.22-2.11,5.33-4.94l.08-2.19c.11-2.83-2.11-5.22-4.94-5.33l-13.48-.51c-1.36-.06-2.68.43-3.69,1.37-1.01.93-1.59,2.2-1.64,3.58l-.08,2.19c-.05,1.37.43,2.68,1.37,3.69.93,1.01,2.2,1.59,3.58,1.64l13.48.51Z"/><path class="cls-1" d="m70.47,29.71l-32.54-1.22c-1.18-.04-2.16.74-2.2,1.75l-.48,12.86c-.04,1.01.88,1.87,2.06,1.91l1.96.07-.13,3.5c-.04.96.84,1.77,1.95,1.81l2.11.08c1.11.04,2.04-.7,2.08-1.66l.13-3.5,16.4.62-.13,3.5c-.04.96.84,1.77,1.95,1.81l2.11.08c1.11.04,2.04-.7,2.08-1.66l.13-3.5,1.91.07c1.18.04,2.16-.74,2.2-1.75l.48-12.86c.04-1.01-.88-1.87-2.06-1.91Z"/><path class="cls-1" d="m66.84,51.31c-2.55,1.23-11.29,6.96-8.27,10.17,3.81,2.85,10.29,3.85,12.92,8.61,1.9,3.68.06,7.39-1.86,10.42,0,0-5.86,0-5.86,0,2.57-3.58,6.05-9.7,1.52-12.26-3.77-2.47-12.48-4.35-9.39-10.72,1.87-3.22,4.9-4.75,8.07-6.21,0,0,1.99,0,1.99,0h.88Z"/><path class="cls-1" d="m39.06,49.98c-2.55,1.29-11.29,7.28-8.27,10.63,3.81,2.98,10.29,4.02,12.92,9,1.9,3.85.06,7.73-1.86,10.89,0,0-5.86,0-5.86,0,2.57-3.75,6.05-10.14,1.52-12.82-3.77-2.58-12.48-4.55-9.39-11.2,1.87-3.36,4.9-4.97,8.07-6.49,0,0,1.99,0,1.99,0h.88Z"/></svg>