<?xml version="1.0" encoding="UTF-8"?><svg id="Layer_2" xmlns="http://www.w3.org/2000/svg" viewBox="0 0 100 100"><defs><style>.cls-1{fill:#fff;}</style></defs><path class="cls-1" d="m32.21,58.86c-.7-3.28-3.62-5.76-7.12-5.76s-6.41,2.47-7.11,5.76c-.11.48-.16.99-.16,1.51s.05,1.02.16,1.5c.69,3.29,3.61,5.77,7.11,5.77s6.42-2.47,7.12-5.76c.11-.48.16-.99.16-1.51s-.05-1.03-.16-1.51Zm-7.12,5.76c-1.8,0-3.34-1.13-3.96-2.73-.18-.46-.28-.98-.28-1.51s.1-1.05.28-1.51c.62-1.6,2.16-2.73,3.96-2.73s3.35,1.13,3.97,2.73c.18.46.28.98.28,1.51s-.1,1.05-.28,1.51c-.62,1.6-2.16,2.73-3.97,2.73Z"/><path class="cls-1" d="m81.9,45.39h-3.26c-.63,0-1.23-.26-1.66-.73l-8.21-8.87c-1-1.08-2.42-1.7-3.89-1.7h-20.33c-1.15,0-2.29.38-3.21,1.09l-8.94,6.84c-2.84,2.17-6.37,3.36-9.95,3.36h-4.39c-2.92,0-5.29,2.37-5.29,5.3v5.9c0,2.9,2.32,5.25,5.2,5.29.03.01.06.01.09.01h3.06c-.18-.46-.28-.98-.28-1.51s.1-1.05.28-1.51h-3.15c-1.2-.05-2.17-1.05-2.17-2.27v-5.9c0-1.25,1.02-2.27,2.26-2.27h4.39c4.23,0,8.42-1.41,11.78-3.99l8.94-6.84c.39-.3.88-.46,1.37-.46h20.33c.63,0,1.23.26,1.67.73l8.2,8.87c1,1.08,2.42,1.7,3.89,1.7h3.26c1.25,0,2.26,1.02,2.26,2.27v5.9c0,1.25-1.01,2.27-2.26,2.27h-3.24c.18.46.28.98.28,1.51s-.1,1.05-.28,1.51h3.24c2.92,0,5.29-2.37,5.29-5.3v-5.9c0-2.93-2.37-5.3-5.29-5.3Zm-52.84,13.47c.18.46.28.98.28,1.51s-.1,1.05-.28,1.51h41.67c-.18-.46-.28-.98-.28-1.51s.1-1.05.28-1.51H29.06Z"/><path class="cls-1" d="m81.81,58.86c-.7-3.28-3.62-5.76-7.12-5.76s-6.41,2.47-7.11,5.76c-.11.48-.16.99-.16,1.51s.05,1.03.16,1.51c.7,3.28,3.62,5.76,7.11,5.76s6.42-2.47,7.12-5.76c.11-.48.16-.99.16-1.51s-.05-1.03-.16-1.51Zm-7.12,5.76c-1.81,0-3.35-1.13-3.96-2.73-.18-.46-.28-.98-.28-1.51s.1-1.05.28-1.51c.61-1.6,2.15-2.73,3.96-2.73s3.35,1.13,3.97,2.73c.18.46.28.98.28,1.51s-.1,1.05-.28,1.51c-.62,1.6-2.16,2.73-3.97,2.73Z"/><path class="cls-1" d="m73.81,43.24l-2.88-1.98c.25-.37,6.33-9.08,16.3-8.9l-.06,3.5c-8.05-.16-13.3,7.31-13.35,7.39Z"/></svg>