<?xml version="1.0" encoding="UTF-8"?><svg id="Layer_2" xmlns="http://www.w3.org/2000/svg" viewBox="0 0 100 100"><defs><style>.cls-1{fill:#fff;}</style></defs><path class="cls-1" d="m33.06,57.91c-.69-3.25-3.59-5.7-7.05-5.7s-6.35,2.45-7.04,5.7c-.11.48-.16.98-.16,1.5s.05,1.01.16,1.49c.68,3.26,3.58,5.71,7.04,5.71s6.36-2.45,7.05-5.7c.11-.48.16-.98.16-1.5s-.05-1.02-.16-1.5Zm-7.05,5.7c-1.78,0-3.31-1.12-3.92-2.7-.18-.46-.28-.97-.28-1.5s.1-1.04.28-1.5c.61-1.58,2.14-2.7,3.92-2.7s3.32,1.12,3.93,2.7c.18.46.28.97.28,1.5s-.1,1.04-.28,1.5c-.61,1.58-2.14,2.7-3.93,2.7Z"/><path class="cls-1" d="m82.27,44.57h-3.23c-.62,0-1.22-.26-1.64-.72l-8.13-8.78c-.99-1.07-2.4-1.68-3.85-1.68h-20.13c-1.14,0-2.27.38-3.18,1.08l-8.85,6.77c-2.81,2.15-6.31,3.33-9.85,3.33h-4.35c-2.89,0-5.24,2.35-5.24,5.25v5.84c0,2.87,2.3,5.2,5.15,5.24.03.01.06.01.09.01h3.03c-.18-.46-.28-.97-.28-1.5s.1-1.04.28-1.5h-3.12c-1.19-.05-2.15-1.04-2.15-2.25v-5.84c0-1.24,1.01-2.25,2.24-2.25h4.35c4.19,0,8.34-1.4,11.67-3.95l8.85-6.77c.39-.3.87-.46,1.36-.46h20.13c.62,0,1.22.26,1.65.72l8.12,8.78c.99,1.07,2.4,1.68,3.85,1.68h3.23c1.24,0,2.24,1.01,2.24,2.25v5.84c0,1.24-1,2.25-2.24,2.25h-3.21c.18.46.28.97.28,1.5s-.1,1.04-.28,1.5h3.21c2.89,0,5.24-2.35,5.24-5.25v-5.84c0-2.9-2.35-5.25-5.24-5.25Zm-52.33,13.34c.18.46.28.97.28,1.5s-.1,1.04-.28,1.5h41.27c-.18-.46-.28-.97-.28-1.5s.1-1.04.28-1.5H29.94Z"/><path class="cls-1" d="m82.18,57.91c-.69-3.25-3.59-5.7-7.05-5.7s-6.35,2.45-7.04,5.7c-.11.48-.16.98-.16,1.5s.05,1.02.16,1.5c.69,3.25,3.58,5.7,7.04,5.7s6.36-2.45,7.05-5.7c.11-.48.16-.98.16-1.5s-.05-1.02-.16-1.5Zm-7.05,5.7c-1.79,0-3.32-1.12-3.92-2.7-.18-.46-.28-.97-.28-1.5s.1-1.04.28-1.5c.6-1.58,2.13-2.7,3.92-2.7s3.32,1.12,3.93,2.7c.18.46.28.97.28,1.5s-.1,1.04-.28,1.5c-.61,1.58-2.14,2.7-3.93,2.7Z"/><path class="cls-1" d="m27.84,45.85l3.3-2.27c-.29-.42-7.24-10.39-18.64-10.18l.07,4c9.21-.19,15.21,8.37,15.27,8.45Z"/></svg>