<?xml version="1.0" encoding="UTF-8"?><svg id="Layer_2" xmlns="http://www.w3.org/2000/svg" viewBox="0 0 100 100"><defs><style>.cls-1{fill:#fff;}</style></defs><path class="cls-1" d="m55.86,66.3V29.17h-19.43v37.13h-3.35v4.54h26.14v-4.54h-3.35Zm-2.2-25.09h-15.04v-10.36h15.04v10.36Z"/><path class="cls-1" d="m62.92,65.71c-1,0-1.86-.49-2.52-1.46-.54-.8-.82-1.78-.79-2.84.06-2.08.37-6.5,1.86-11.35-3.45-3.73-6.93-3.41-6.98-3.4-.29.02-.52-.17-.55-.44-.03-.27.17-.52.44-.55.23-.03,3.85-.36,7.46,3.28.55-1.61,1.24-3.26,2.1-4.87.13-.24.44-.34.68-.2.24.13.33.43.2.68-.92,1.73-1.65,3.5-2.21,5.23,1.7,2,3.34,4.95,4.57,9.32.48,1.44.6,4.61-2.46,6.13-.64.32-1.24.48-1.81.48Zm-.67-14.74c-1.3,4.49-1.58,8.53-1.63,10.47-.02.85.19,1.62.62,2.25.74,1.09,1.74,1.3,3.05.65,3.05-1.52,1.99-4.81,1.95-4.95-1.08-3.85-2.5-6.55-3.98-8.42Z"/><path class="cls-1" d="m66.93,47.02c-.12,0-.25-.05-.35-.14l-6.25-6.01c-.2-.19-.21-.51-.01-.71.19-.2.51-.2.71-.01l6.25,6.01c.2.19.21.51.01.71-.1.1-.23.15-.36.15Z"/></svg>