<?xml version="1.0" encoding="UTF-8"?><svg id="Layer_2" xmlns="http://www.w3.org/2000/svg" viewBox="0 0 100 100"><defs><style>.cls-1{fill:#fff;}</style></defs><path class="cls-1" d="m74.67,52.79v-5.48h-2.97c-.25-2-.77-3.91-1.52-5.71l2.8-1.83-3-4.59-2.55,1.67c-1.06-1.39-2.28-2.66-3.63-3.76l1.6-2.48-4.6-2.97-1.65,2.55c-1.99-.92-4.15-1.55-6.41-1.84v-3.35h-5.48v3.35c-2,.25-3.91.77-5.7,1.52l-1.76-2.72-4.6,2.97,1.61,2.49c-1.46,1.11-2.78,2.4-3.93,3.84l-2.41-1.57-3,4.59,2.55,1.67c-.86,1.93-1.46,4-1.73,6.17h-2.97v5.48h2.97c.26,2.09.82,4.08,1.62,5.94l-2.45,1.6,3,4.59,2.25-1.47c1.1,1.42,2.37,2.69,3.78,3.8l-1.48,2.29,4.6,2.97,1.58-2.44c1.89.84,3.93,1.41,6.06,1.68v3.24h5.48v-3.24c2.13-.27,4.16-.84,6.06-1.68l1.58,2.44,4.6-2.97-1.48-2.29c1.41-1.11,2.68-2.39,3.78-3.8l2.25,1.47,3-4.59-2.45-1.6c.81-1.86,1.36-3.86,1.62-5.94h2.97Zm-24.67,16.14c-10.41,0-18.88-8.47-18.88-18.87s8.47-18.88,18.88-18.88,18.87,8.47,18.87,18.88-8.47,18.87-18.87,18.87Z"/><circle class="cls-1" cx="50" cy="61.89" r="3.07"/><rect class="cls-1" x="47.2" y="35.04" width="5.61" height="21.03" rx="2.71" ry="2.71"/></svg>