<?xml version="1.0" encoding="UTF-8"?><svg id="Layer_2" xmlns="http://www.w3.org/2000/svg" viewBox="0 0 100 100"><defs><style>.cls-1{fill:#fff;}</style></defs><path class="cls-1" d="m44.83,51.42c0,2.61-2.12,4.73-4.73,4.73s-4.72-2.12-4.72-4.73,2.12-4.72,4.72-4.72,4.73,2.12,4.73,4.72Z"/><path class="cls-1" d="m52.88,53.03c-.52-6.52,8.87-7.3,8.87-7.3l-1.3-4.18H20.8l-1.24,3.27s8.21,1.36,7.63,8.02c-.59,6.65-5.28,7.63-5.28,7.63l5.93,6.39c12.52-8.61,26.35,0,26.35,0,3.13-5.02,4.43-7.57,4.43-7.57,0,0-5.21.26-5.74-6.26Zm-12.78,5.12c-3.7,0-6.72-3.02-6.72-6.73s3.02-6.72,6.72-6.72,6.73,3.02,6.73,6.72-3.02,6.73-6.73,6.73Z"/><polygon class="cls-1" points="73.76 22.77 85.89 22.77 84.45 59.94 75.58 59.94 73.76 22.77"/><path class="cls-1" d="m40.66,78.73c-15.46,0-28.05-12.58-28.05-28.05s12.58-28.05,28.05-28.05,28.05,12.58,28.05,28.05-12.58,28.05-28.05,28.05Zm0-53.09c-13.81,0-25.05,11.24-25.05,25.05s11.24,25.05,25.05,25.05,25.05-11.24,25.05-25.05-11.24-25.05-25.05-25.05Z"/><circle class="cls-1" cx="79.6" cy="72.04" r="5.19"/></svg>