<?xml version="1.0" encoding="UTF-8"?><svg id="Layer_2" xmlns="http://www.w3.org/2000/svg" viewBox="0 0 100 100"><defs><style>.cls-1{fill:#fff;}</style></defs><path class="cls-1" d="m58.37,74.74c-4.63,0-8-.51-8.33-.56-.53-.08-.97-.44-1.17-.94-9.51-24.58-.35-44.56.04-45.4.22-.47.68-.8,1.2-.85.89-.1,21.87-2.25,32.72,8.29,4.67,4.54,6.72,10.71,6.11,18.36-.5,6.23-3.04,11.19-7.55,14.74-6.66,5.25-16.21,6.35-23.02,6.35Zm-7.01-3.41c3.79.44,19.27,1.74,28.18-5.3,3.83-3.02,5.98-7.27,6.41-12.62.54-6.71-1.21-12.08-5.21-15.97-8.66-8.42-25.45-7.81-29.44-7.54-1.52,3.82-7.48,21.09.06,41.43Z"/><path class="cls-1" d="m28.36,73.28c-.37,0-.74-.14-1.03-.41-5.81-5.53-6.98-10.92-6.94-14.46.04-3.25,1.45-6.46,3.99-9.04.92-.93,1.4-2.14,1.45-3.59.04-1.32-.37-2.5-1.22-3.53-1.69-2.06-2.67-4.68-2.82-7.57l-.4-7.82c-.04-.83.59-1.53,1.42-1.58.83-.03,1.53.59,1.58,1.42l.4,7.82c.12,2.25.85,4.26,2.14,5.82,1.3,1.58,1.96,3.49,1.9,5.52-.08,2.78-1.3,4.58-2.3,5.61-1.99,2.03-3.1,4.5-3.13,6.97-.05,4.29,1.97,8.41,6.01,12.25.6.57.62,1.52.05,2.12-.29.31-.69.47-1.09.47Z"/><path class="cls-1" d="m12.45,43.15c-.72,0-1.36-.52-1.48-1.26-.13-.82.42-1.59,1.24-1.72l24.13-3.91c.81-.13,1.59.42,1.72,1.24.13.82-.42,1.59-1.24,1.72l-24.13,3.91c-.08.01-.16.02-.24.02Z"/><path class="cls-1" d="m13.06,54.19c-.72,0-1.36-.52-1.48-1.26-.13-.82.42-1.59,1.24-1.72l24.13-3.91c.81-.14,1.59.42,1.72,1.24.13.82-.42,1.59-1.24,1.72l-24.13,3.91c-.08.01-.16.02-.24.02Z"/><path class="cls-1" d="m13.06,65.24c-.72,0-1.36-.52-1.48-1.26-.13-.82.42-1.59,1.24-1.72l24.13-3.91c.81-.14,1.59.42,1.72,1.24.13.82-.42,1.59-1.24,1.72l-24.13,3.91c-.08.01-.16.02-.24.02Z"/></svg>