<?xml version="1.0" encoding="UTF-8"?><svg id="Layer_2" xmlns="http://www.w3.org/2000/svg" viewBox="0 0 100 100"><defs><style>.cls-1{fill:#fff;}</style></defs><path class="cls-1" d="m53.03,63.45s-14.47,6.81-32.07,0c0,0-4-25.53,13.91-26.96,21.29-1.7,18.16,26.96,18.16,26.96Z"/><path class="cls-1" d="m68.2,56.02c-1.65,0-2.77-.12-2.91-.13-.52-.06-.97-.38-1.2-.85-.21-.46-5.18-11.3-.04-24.58.19-.5.64-.86,1.17-.94.45-.07,10.98-1.65,17.14,3.21,2.55,2.01,3.98,4.8,4.26,8.3.34,4.27-.82,7.73-3.45,10.28-4.19,4.08-11.08,4.71-14.97,4.71Zm-1.71-3.05c2.62.14,10.49.18,14.6-3.82,1.98-1.93,2.81-4.51,2.54-7.89-.21-2.67-1.24-4.69-3.12-6.18-4.23-3.34-11.49-2.95-13.97-2.71-3.46,9.74-.98,18.06-.05,20.59Z"/><path class="cls-1" d="m39.81,73.79c-7.32,0-15.8-1.16-24.77-4.63-.33-.13-.57-.43-.63-.78-.14-.89-3.3-21.92,6.25-34.03,3.8-4.82,9.11-7.54,15.78-8.07,6.78-.54,12.49.86,17,4.18.45.33.54.95.21,1.4-.33.44-.95.54-1.4.21-4.11-3.02-9.38-4.3-15.66-3.79-6.09.49-10.92,2.95-14.37,7.31-8.17,10.35-6.35,28.48-5.92,31.92,23.52,8.87,43.43,1.46,46.85.04.06-.78.17-2.32.18-4.34,0-.55.45-.99,1-.99h0c.55,0,1,.46.99,1.01-.03,3.07-.24,5.03-.25,5.11-.04.35-.25.65-.57.8-.15.07-10.15,4.66-24.72,4.66Z"/><path class="cls-1" d="m45.87,41.58c-.58,0-1.13-.34-1.38-.9-.33-.76.02-1.64.78-1.97l12.4-5.37c.76-.33,1.64.02,1.97.78.33.76-.02,1.64-.78,1.97l-12.4,5.37c-.19.08-.4.12-.59.12Z"/><path class="cls-1" d="m45.87,49.52c-.58,0-1.13-.34-1.38-.9-.33-.76.02-1.64.78-1.97l12.4-5.37c.76-.33,1.64.02,1.97.78.33.76-.02,1.64-.78,1.97l-12.4,5.37c-.19.08-.4.12-.59.12Z"/><path class="cls-1" d="m45.87,57.45c-.58,0-1.13-.34-1.38-.9-.33-.76.02-1.64.78-1.97l12.4-5.37c.76-.33,1.64.02,1.97.78.33.76-.02,1.64-.78,1.97l-12.4,5.37c-.19.08-.4.12-.59.12Z"/><path class="cls-1" d="m45.87,65.38c-.58,0-1.13-.34-1.38-.9-.33-.76.02-1.64.78-1.97l12.4-5.37c.76-.33,1.64.02,1.97.78.33.76-.02,1.64-.78,1.97l-12.4,5.37c-.19.08-.4.12-.59.12Z"/></svg>