<?xml version="1.0" encoding="UTF-8"?><svg id="Layer_2" xmlns="http://www.w3.org/2000/svg" viewBox="0 0 100 100"><defs><style>.cls-1{fill:#fff;}</style></defs><path class="cls-1" d="m35.65,75.71c-.26,0-.52-.07-.76-.21-.71-.42-.95-1.34-.53-2.05l28.7-48.42c.42-.71,1.34-.95,2.05-.53.71.42.95,1.34.53,2.05l-28.7,48.42c-.28.47-.78.74-1.29.74Z"/><path class="cls-1" d="m62.96,75.71c-.51,0-1.01-.26-1.29-.74l-28.7-48.42c-.42-.71-.19-1.63.53-2.05.71-.42,1.63-.19,2.05.53l28.7,48.42c.42.71.19,1.63-.53,2.05-.24.14-.5.21-.76.21Z"/><path class="cls-1" d="m77.26,51.73H22.74c-.83,0-1.5-.67-1.5-1.5s.67-1.5,1.5-1.5h54.53c.83,0,1.5.67,1.5,1.5s-.67,1.5-1.5,1.5Z"/><path class="cls-1" d="m38.9,35.38c-.14,0-.28-.02-.41-.06l-7.27-2.08c-.8-.23-1.26-1.06-1.03-1.86.23-.8,1.06-1.25,1.86-1.03l5.77,1.65,1.37-5.57c.2-.8,1.01-1.29,1.81-1.1.8.2,1.3,1.01,1.1,1.81l-1.74,7.08c-.1.4-.35.74-.7.94-.23.13-.49.2-.75.2Z"/><path class="cls-1" d="m25.39,56.88c-.38,0-.77-.15-1.06-.44-.59-.59-.59-1.54,0-2.12l4.25-4.25-4.21-3.9c-.61-.56-.64-1.51-.08-2.12.56-.61,1.51-.64,2.12-.08l5.35,4.96c.3.28.47.66.48,1.07s-.15.8-.44,1.09l-5.35,5.35c-.29.29-.68.44-1.06.44Z"/><path class="cls-1" d="m59.25,35.38c-.3,0-.6-.09-.85-.26-.34-.23-.56-.59-.63-.99l-1.24-7.46c-.14-.82.42-1.59,1.23-1.72.81-.13,1.59.42,1.72,1.23l.98,5.92,5.62-1.15c.81-.16,1.6.36,1.77,1.17.17.81-.36,1.6-1.17,1.77l-7.14,1.46c-.1.02-.2.03-.3.03Z"/><path class="cls-1" d="m74.37,56.88c-.38,0-.77-.15-1.06-.44l-5.35-5.35c-.29-.29-.45-.68-.44-1.09s.18-.79.48-1.07l5.35-4.96c.6-.56,1.56-.53,2.12.08.56.61.53,1.56-.08,2.12l-4.21,3.9,4.25,4.25c.59.59.59,1.54,0,2.12-.29.29-.68.44-1.06.44Z"/><path class="cls-1" d="m41.63,75.16c-.67,0-1.29-.46-1.46-1.14l-1.37-5.57-5.77,1.65c-.8.22-1.63-.23-1.86-1.03-.23-.8.23-1.63,1.03-1.86l7.27-2.08c.39-.11.81-.06,1.17.14.35.21.61.54.7.94l1.74,7.08c.2.8-.29,1.62-1.1,1.81-.12.03-.24.04-.36.04Z"/><path class="cls-1" d="m57.05,75.35c-.08,0-.16,0-.25-.02-.82-.13-1.37-.91-1.23-1.72l1.24-7.46c.07-.4.29-.76.63-.99.34-.23.75-.31,1.15-.23l7.14,1.46c.81.17,1.33.96,1.17,1.77s-.96,1.33-1.77,1.17l-5.62-1.15-.98,5.92c-.12.73-.76,1.25-1.48,1.25Z"/></svg>