<?xml version="1.0" encoding="UTF-8"?><svg id="Layer_2" xmlns="http://www.w3.org/2000/svg" viewBox="0 0 100 100"><defs><style>.cls-1{fill:#fff;}</style></defs><path class="cls-1" d="m66.44,75.71h-32.87c-5.11,0-9.27-4.16-9.27-9.27v-32.87c0-5.11,4.16-9.27,9.27-9.27h32.87c5.11,0,9.27,4.16,9.27,9.27v32.87c0,5.11-4.16,9.27-9.27,9.27ZM33.56,27.29c-3.46,0-6.27,2.81-6.27,6.27v32.87c0,3.46,2.81,6.27,6.27,6.27h32.87c3.46,0,6.27-2.81,6.27-6.27v-32.87c0-3.46-2.81-6.27-6.27-6.27h-32.87Z"/><rect class="cls-1" x="46.53" y="43.01" width="4.7" height="21.52"/><rect class="cls-1" x="46.53" y="33.91" width="4.7" height="3.91"/><rect class="cls-1" x="42.81" y="42.52" width="8.41" height="1.37"/><rect class="cls-1" x="42.32" y="63.16" width="12.33" height="1.37"/></svg>