<?xml version="1.0" encoding="UTF-8"?><svg id="Layer_2" xmlns="http://www.w3.org/2000/svg" viewBox="0 0 100 100"><defs><style>.cls-1{fill:#fff;}</style></defs><path class="cls-1" d="m66.63,70.28c-2.76,0-5.07-.92-6.86-2.75-3.9-3.96-3.84-10.8-3.83-11.09-.34-8.27,2.71-15.53,7.12-20.39-3.5-2.16-7.87-3.28-13.07-3.32-5.18.04-9.56,1.16-13.05,3.32,4.42,4.87,7.46,12.15,7.13,20.47,0,.21.07,7.04-3.83,11.01-1.79,1.82-4.1,2.74-6.86,2.74-2.14,0-3.98-.76-5.45-2.25-3.64-3.7-3.69-10.79-3.68-11.53-.04-.96-.37-11.82,6.82-19.48.4-.43.81-.83,1.25-1.22-2.44-1.89-5.06-2.96-7.42-3.06-7.42-.33-12.3,7.41-12.35,7.48-.44.71-1.36.92-2.06.49-.71-.43-.92-1.36-.49-2.06.24-.38,5.84-9.29,15.04-8.91,3.31.15,6.71,1.65,9.7,4.18,4.06-2.72,9.18-4.12,15.27-4.18,6.11.05,11.22,1.45,15.29,4.18,2.99-2.52,6.39-4.03,9.7-4.17,9.21-.39,14.8,8.53,15.04,8.91.44.71.22,1.63-.49,2.06-.7.43-1.63.22-2.06-.49h0c-.05-.08-4.96-7.79-12.35-7.49-2.36.1-4.98,1.17-7.42,3.06.43.39.85.8,1.25,1.22,7.19,7.66,6.87,18.52,6.82,19.48,0,.74-.04,7.83-3.68,11.53-1.47,1.49-3.3,2.25-5.45,2.25Zm-1.17-32.46c-3.91,4.12-6.85,10.54-6.52,18.58,0,.14-.04,5.97,2.98,9.03,1.22,1.24,2.77,1.84,4.72,1.84,1.33,0,2.41-.44,3.3-1.35,2.88-2.92,2.83-9.38,2.83-9.44,0-.03,0-.07,0-.1,0-.1.46-10.43-6.03-17.33-.41-.43-.83-.84-1.28-1.23Zm-30.92,0c-.45.39-.88.81-1.29,1.25-6.5,6.92-6.02,17.21-6.01,17.31,0,.03,0,.07,0,.1,0,.06-.06,6.52,2.83,9.44.9.91,1.98,1.35,3.3,1.35,1.95,0,3.5-.6,4.72-1.85,3.03-3.08,2.97-8.88,2.97-8.94.33-8.09-2.61-14.54-6.53-18.66Z"/></svg>