<?xml version="1.0" encoding="UTF-8"?><svg id="Layer_2" xmlns="http://www.w3.org/2000/svg" viewBox="0 0 148.63 79.46"><defs><style>.cls-1{fill:#fff;}.cls-2{fill:#fff200;}.cls-3{fill:red;}</style></defs><path class="cls-1" d="m96.51,49.23c-6.95,3.33-13.55,4.71-21.51,4.71-11.18,0-21.66-3.63-30.61-9.95l-2.24,3.3c9.6,6.76,20.84,10.65,32.85,10.65,8.54,0,15.81-1.55,23.26-5.12l-1.75-3.59Z"/><polygon class="cls-2" points="109.96 46.3 107.55 43.14 103.6 38.02 101.09 39.88 104.45 45.38 106.69 48.68 106.69 48.68 109.96 46.3"/><polygon class="cls-1" points="100.01 52.02 103.6 50.04 95.82 35.9 92.92 37.39 100.01 52.02"/><polygon class="cls-3" points="112.34 43.99 110.04 40.72 106.66 35.93 109.17 34.07 112.75 38.32 115.32 41.37 112.34 43.99"/><polygon class="cls-1" points="38.11 44.45 40.52 41.29 48.32 31.07 50.83 32.93 43.62 43.53 41.38 46.83 41.38 46.83 38.11 44.45"/><polygon class="cls-1" points="36.93 43.51 39.23 40.24 42.61 35.45 40.1 33.59 36.52 37.84 33.95 40.89 36.93 43.51"/><path class="cls-1" d="m86.09,29.81v-3.17h-1.72c-.15-1.16-.44-2.27-.88-3.31l1.62-1.06-1.74-2.66-1.48.97c-.61-.81-1.32-1.54-2.1-2.18l.93-1.44-2.67-1.72-.96,1.48c-1.16-.53-2.4-.9-3.72-1.06v-1.94h-3.17v1.94c-1.16.15-2.27.44-3.3.88l-1.02-1.58-2.67,1.72.93,1.44c-.85.64-1.61,1.39-2.28,2.23l-1.39-.91-1.74,2.66,1.48.97c-.5,1.12-.84,2.32-1,3.58h-1.72v3.17h1.72c.15,1.21.47,2.36.94,3.44l-1.42.93,1.74,2.66,1.3-.85c.64.82,1.37,1.56,2.19,2.2l-.86,1.32,2.67,1.72.91-1.41c1.1.48,2.28.82,3.51.97v1.88h3.17v-1.88c1.23-.15,2.41-.49,3.51-.97l.91,1.41,2.67-1.72-.86-1.32c.82-.64,1.55-1.38,2.19-2.2l1.3.85,1.74-2.66-1.42-.93c.47-1.08.79-2.23.94-3.44h1.72Zm-14.29,9.35c-6.03,0-10.94-4.91-10.94-10.94s4.91-10.94,10.94-10.94,10.94,4.91,10.94,10.94-4.91,10.94-10.94,10.94Z"/><path class="cls-1" d="m74.71,25.89c.22,0,.4-.18.4-.4s-.18-.4-.4-.4h-2.7v-2.06h2.7c.22,0,.4-.18.4-.4s-.18-.4-.4-.4h-2.7v-1.47c0-.73-.59-1.33-1.33-1.33s-1.33.59-1.33,1.33v12.29c-.52.4-.86,1.03-.86,1.73,0,1.21.98,2.19,2.19,2.19s2.19-.98,2.19-2.19c0-.71-.34-1.34-.86-1.73v-3.88h2.7c.22,0,.4-.18.4-.4s-.18-.4-.4-.4h-2.7v-2.46h2.7Z"/><path class="cls-1" d="m27.62,64.95c-.97-.53-1.73-1.25-2.28-2.18-.55-.93-.82-1.98-.82-3.15s.28-2.22.83-3.15c.56-.93,1.32-1.66,2.29-2.18.97-.53,2.05-.79,3.25-.79.97,0,1.86.17,2.67.51s1.48.83,2.04,1.48l-1.43,1.34c-.86-.93-1.92-1.39-3.18-1.39-.82,0-1.55.18-2.19.54-.65.36-1.15.85-1.51,1.49-.36.63-.54,1.35-.54,2.16s.18,1.52.54,2.16c.36.63.87,1.13,1.51,1.49.65.36,1.38.54,2.19.54,1.26,0,2.32-.47,3.18-1.41l1.43,1.36c-.56.65-1.24,1.14-2.05,1.48-.81.34-1.7.51-2.68.51-1.2,0-2.29-.26-3.26-.79Z"/><path class="cls-1" d="m124.12,53.67v11.9h-2.21v-5.1h-6.15v5.1h-2.21v-11.9h2.21v4.91h6.15v-4.91h2.21Z"/></svg>