<?xml version="1.0" encoding="UTF-8"?><svg id="Layer_2" xmlns="http://www.w3.org/2000/svg" viewBox="0 0 148.63 79.46"><defs><style>.cls-1{fill:#fff;}.cls-2{fill:red;}</style></defs><path class="cls-1" d="m70.62,51.5c-11.18,0-21.66-3.63-30.61-9.95l-2.24,3.3c9.6,6.76,20.84,10.65,32.85,10.65s22.47-3.62,31.84-9.95l-2.24-3.3c-8.73,5.88-18.84,9.25-29.6,9.25Z"/><polygon class="cls-1" points="106.61 42.57 104.2 39.41 96.4 29.19 93.89 31.05 101.1 41.65 103.34 44.95 103.34 44.95 106.61 42.57"/><polygon class="cls-1" points="107.96 41.55 105.66 38.28 102.28 33.49 104.79 31.63 108.37 35.88 110.94 38.93 107.96 41.55"/><polygon class="cls-1" points="33.73 42 36.14 38.84 43.94 28.62 46.45 30.48 39.24 41.08 37 44.38 37 44.38 33.73 42"/><polygon class="cls-2" points="32.54 41.07 34.84 37.8 38.22 33.01 35.71 31.15 32.13 35.4 29.56 38.45 32.54 41.07"/><path class="cls-1" d="m76.88,33.12h-17.09v-9.52h-1.02s-8.24-2.67-8.24-2.67l1.91-4.6,8.62,3.09v2.9l12.3-.02,2.66,3.68,11.31-6.98,2.56,3.91h-3.72l-9.29,10.2Zm-15.82-1.27h15.26l9.29-10.2h1.92l-.59-.9-11.26,6.95-2.98-4.11-11.65.02v8.25Zm-8.83-11.7l6.74,2.18h.82v-2.01l-6.64-2.38-.91,2.21Z"/><rect class="cls-1" x="63.05" y="19.21" width="7.43" height="1.27"/><rect class="cls-1" x="66.13" y="19.85" width="1.27" height="3.1"/><path class="cls-1" d="m89.45,24.6l-.71,2.97c-.03.13-.05.25-.05.38-.02.49.06,1.53,1.08,1.5.66-.02.94-.45,1.04-.87s.04-.85-.13-1.23l-1.23-2.75Z"/><path class="cls-1" d="m23.77,51.23h2.21v10.03h6.22v1.87h-8.43v-11.9Z"/><path class="cls-1" d="m124.86,51.23v11.9h-2.21v-5.1h-6.15v5.1h-2.21v-11.9h2.21v4.91h6.15v-4.91h2.21Z"/></svg>