<?xml version="1.0" encoding="UTF-8"?><svg id="Layer_2" xmlns="http://www.w3.org/2000/svg" viewBox="0 0 148.63 79.46"><defs><style>.cls-1{fill:#fff;}.cls-2{fill:red;}</style></defs><path class="cls-1" d="m74.67,55.91c-11.18,0-21.66-3.63-30.61-9.95l-2.24,3.3c9.6,6.76,20.84,10.65,32.85,10.65s22.47-3.62,31.84-9.95l-2.24-3.3c-8.73,5.88-18.84,9.25-29.6,9.25Z"/><polygon class="cls-1" points="110.66 46.98 108.25 43.82 100.45 33.6 97.94 35.46 105.15 46.06 107.39 49.36 107.39 49.36 110.66 46.98"/><polygon class="cls-2" points="112.01 45.96 109.71 42.69 106.33 37.9 108.84 36.04 112.42 40.29 114.99 43.34 112.01 45.96"/><polygon class="cls-1" points="37.78 46.41 40.19 43.25 47.99 33.03 50.5 34.89 43.29 45.49 41.05 48.79 41.05 48.79 37.78 46.41"/><polygon class="cls-1" points="36.59 45.48 38.89 42.21 42.27 37.42 39.76 35.56 36.18 39.81 33.61 42.86 36.59 45.48"/><path class="cls-1" d="m80.07,38.46V11.75h-13.98v26.71h-2.41v3.26h18.81v-3.26h-2.41Zm-1.58-18.05h-10.82v-7.45h10.82v7.45Z"/><path class="cls-1" d="m85.15,38.04c-.72,0-1.34-.35-1.81-1.05-.39-.58-.59-1.28-.57-2.04.04-1.5.27-4.69,1.35-8.19-2.43-2.64-4.88-2.43-5.03-2.42-.2.02-.37-.12-.4-.32-.02-.2.12-.37.32-.4.17-.02,2.77-.26,5.36,2.36.4-1.16.89-2.34,1.51-3.5.09-.18.31-.24.49-.15s.24.31.15.49c-.67,1.24-1.19,2.52-1.59,3.77,1.22,1.44,2.4,3.56,3.29,6.7.35,1.04.43,3.32-1.77,4.41-.46.23-.89.34-1.3.34Zm-.48-10.63c-.94,3.24-1.14,6.15-1.18,7.55-.02.61.14,1.17.44,1.62.53.79,1.25.94,2.19.47,2.19-1.1,1.43-3.46,1.4-3.56-.78-2.79-1.8-4.73-2.85-6.08Z"/><path class="cls-1" d="m88.03,24.59c-.09,0-.18-.03-.25-.1l-4.49-4.33c-.14-.14-.15-.37,0-.51.14-.14.37-.15.51,0l4.49,4.33c.14.14.15.37,0,.51-.07.07-.17.11-.26.11Z"/><path class="cls-1" d="m23.98,66.92c-.97-.53-1.73-1.25-2.28-2.18-.55-.93-.82-1.98-.82-3.15s.28-2.22.83-3.15c.56-.93,1.32-1.66,2.29-2.18.97-.53,2.05-.79,3.26-.79.97,0,1.86.17,2.67.51s1.48.83,2.04,1.48l-1.43,1.34c-.86-.93-1.92-1.39-3.18-1.39-.82,0-1.55.18-2.19.54-.65.36-1.15.85-1.51,1.49-.36.63-.54,1.35-.54,2.16s.18,1.52.54,2.16c.36.63.87,1.13,1.51,1.49.65.36,1.38.54,2.19.54,1.26,0,2.32-.47,3.18-1.41l1.43,1.36c-.56.65-1.24,1.14-2.05,1.48-.81.34-1.7.51-2.68.51-1.2,0-2.29-.26-3.26-.79Z"/><path class="cls-1" d="m127.76,55.64v11.9h-2.21v-5.1h-6.15v5.1h-2.21v-11.9h2.21v4.91h6.15v-4.91h2.21Z"/></svg>