<?xml version="1.0" encoding="UTF-8"?><svg id="Layer_2" xmlns="http://www.w3.org/2000/svg" viewBox="0 0 148.63 79.46"><defs><style>.cls-1{fill:#fff;}.cls-2{fill:red;}</style></defs><path class="cls-1" d="m75.54,54.22c-11.18,0-21.66-3.63-30.61-9.95l-2.24,3.3c9.6,6.76,20.84,10.65,32.85,10.65s22.47-3.62,31.84-9.95l-2.24-3.3c-8.73,5.88-18.84,9.25-29.6,9.25Z"/><polygon class="cls-1" points="111.53 45.29 109.12 42.13 101.32 31.91 98.81 33.77 106.02 44.37 108.26 47.67 108.26 47.67 111.53 45.29"/><polygon class="cls-1" points="112.88 44.27 110.58 41 107.2 36.21 109.71 34.35 113.29 38.6 115.86 41.65 112.88 44.27"/><polygon class="cls-1" points="38.65 44.72 41.06 41.56 48.86 31.34 51.37 33.2 44.16 43.8 41.92 47.1 41.92 47.1 38.65 44.72"/><polygon class="cls-2" points="37.47 43.79 39.77 40.52 43.15 35.73 40.64 33.87 37.06 38.12 34.49 41.17 37.47 43.79"/><path class="cls-1" d="m64.1,41.27c-.81,0-1.61-.27-2.28-.8l-2.87-2.26c-.24-.19-.28-.54-.09-.78.19-.24.54-.28.78-.09l2.87,2.26c.84.66,1.99.74,2.91.19l1.74-1.02c1.71-1.01,3.83-.88,5.41.33l.62.48c.86.66,2.05.7,2.96.11l1.22-.81c1.62-1.07,3.71-1.06,5.33.02l.82.55c1.12.75,2.57.76,3.7.02l3.27-2.16c.26-.17.6-.1.77.16.17.26.1.6-.16.77l-3.27,2.16c-1.5.99-3.44.98-4.93-.02l-.82-.55c-1.24-.83-2.85-.84-4.09-.02l-1.22.81c-1.3.86-3.01.8-4.24-.15l-.62-.48c-1.22-.93-2.85-1.03-4.17-.26l-1.74,1.02c-.59.35-1.24.52-1.88.52Z"/><path class="cls-1" d="m85.37,36.66c-.86,0-1.73-.25-2.48-.76l-.82-.55c-.82-.55-1.85-.76-2.83-.55-.3.06-.59-.13-.66-.43s.13-.59.43-.66c1.27-.27,2.6,0,3.68.71l.82.55c1.12.75,2.57.76,3.7.02l3.27-2.16c.26-.17.6-.1.77.16.17.26.1.6-.16.77l-3.27,2.16c-.74.49-1.6.74-2.45.74Z"/><path class="cls-1" d="m64.1,36.79c-.81,0-1.61-.27-2.28-.8l-2.87-2.26c-.24-.19-.28-.54-.09-.78.19-.24.54-.28.78-.09l2.87,2.26c.84.66,1.99.74,2.91.19l1.74-1.02c.84-.49,1.79-.72,2.76-.66.31.02.54.28.52.59-.02.31-.28.54-.59.52-.75-.04-1.48.13-2.12.51l-1.74,1.02c-.59.35-1.24.52-1.88.52Z"/><path class="cls-1" d="m80.15,22.53c.31,0,.56-.25.56-.56s-.25-.56-.56-.56h-3.72v-2.84h3.72c.31,0,.56-.25.56-.56s-.25-.56-.56-.56h-3.72v-2.03c0-1.01-.82-1.83-1.83-1.83s-1.83.82-1.83,1.83v16.94c-.72.55-1.18,1.42-1.18,2.39,0,1.67,1.35,3.02,3.02,3.02s3.02-1.35,3.02-3.02c0-.98-.47-1.84-1.18-2.39v-5.35h3.72c.31,0,.56-.25.56-.56s-.25-.56-.56-.56h-3.72v-3.39h3.72Z"/><path class="cls-1" d="m33.87,64v1.85h-8.92v-11.9h8.69v1.85h-6.48v3.09h5.75v1.82h-5.75v3.28h6.71Z"/><path class="cls-1" d="m117.21,55.8v3.62h5.75v1.87h-5.75v4.56h-2.21v-11.9h8.69v1.85h-6.48Z"/></svg>