<?xml version="1.0" encoding="UTF-8"?><svg id="Layer_2" xmlns="http://www.w3.org/2000/svg" viewBox="0 0 400 400"><defs><style>.cls-1{fill:#57fafc;}.cls-2{fill:#424242;}.cls-3{fill:none;}.cls-4{fill:#383838;}</style></defs><path class="cls-3" d="m147.2,226.52h0c0,5.51,4.47,9.98,9.98,9.98h15.3c-1.4-3.04-2.19-6.41-2.19-9.98s.79-6.94,2.19-9.98h-15.3c-5.51,0-9.98,4.47-9.98,9.98Z"/><path class="cls-2" d="m194.16,202.65c-8.82,0-16.51,4.78-20.64,11.89h20.06c6.6,0,11.98,5.37,11.98,11.98s-5.37,11.98-11.98,11.98h-20.06c4.13,7.11,11.83,11.89,20.64,11.89,13.18,0,23.87-10.69,23.87-23.87s-10.69-23.87-23.87-23.87Z"/><path class="cls-2" d="m172.47,236.5h21.1c5.51,0,9.98-4.47,9.98-9.98h0c0-5.51-4.47-9.98-9.98-9.98h-21.1c-1.4,3.04-2.19,6.41-2.19,9.98s.79,6.94,2.19,9.98Z"/><path class="cls-4" d="m205.55,226.52c0-6.6-5.37-11.98-11.98-11.98h-20.06c-.38.65-.72,1.32-1.04,2h21.1c5.51,0,9.98,4.47,9.98,9.98h0c0,5.51-4.47,9.98-9.98,9.98h-21.1c.32.68.66,1.35,1.04,2h20.06c6.6,0,11.98-5.37,11.98-11.98Z"/><rect class="cls-2" x="147.2" y="216.54" width="56.35" height="19.96" rx="9.98" ry="9.98"/><path class="cls-1" d="m196.2,230.41l-121.93-2.48c-.89-.02-1.61-.75-1.61-1.64h0c0-.9.72-1.63,1.62-1.64l121.93-2c.92-.02,1.67.73,1.67,1.64v4.48c0,.92-.76,1.66-1.68,1.64Z"/></svg>