<?xml version="1.0" encoding="UTF-8"?><svg id="Layer_2" xmlns="http://www.w3.org/2000/svg" viewBox="0 0 400 400"><defs><style>.cls-1{fill:#fff;}.cls-2{fill:red;}</style></defs><path class="cls-1" d="m46.43,283.23l-4.81,1.38c2.91,11.11,6.96,21.77,12.02,31.83l4.41-2.36c-4.89-9.76-8.81-20.08-11.62-30.85Zm-5.04-80.57c-3.08,12.03-4.82,24.6-5.05,37.52h5c.23-12.5,1.92-24.65,4.89-36.28l-4.84-1.24Zm36.14-67.96c-7.6,8.57-14.31,17.93-20,27.95l4.42,2.35c5.45-9.6,11.88-18.57,19.15-26.79l-3.57-3.51Zm68.33-45.99c-11.47,4.03-22.36,9.3-32.5,15.65l2.61,4.27c9.74-6.1,20.19-11.18,31.18-15.07l-1.29-4.85Zm57.11-9.16v5c15.05.28,29.6,2.67,43.36,6.88l1.29-4.84c-14.17-4.32-29.15-6.76-44.65-7.04Zm87.32,27.2l-2.62,4.27c9.26,6.16,17.84,13.27,25.6,21.19l3.56-3.51c-8.05-8.21-16.94-15.57-26.54-21.95Zm53.72,58.77l-4.41,2.35c4.7,8.68,8.62,17.84,11.65,27.4l4.85-1.25c-3.14-9.94-7.2-19.48-12.09-28.5Zm-23.06-32.45l-3.56,3.51c7.26,7.99,13.72,16.72,19.25,26.07l4.42-2.35c-5.76-9.77-12.51-18.89-20.11-27.23Zm-67.62-44.62l-1.29,4.85c10.76,3.74,21,8.62,30.57,14.49l2.61-4.26c-9.98-6.12-20.66-11.2-31.89-15.08Zm-101.76-1.62l1.28,4.83h.01c13.99-4.36,28.78-6.83,44.11-7.11v-5c-15.77.28-31.01,2.81-45.4,7.28Zm-43.24,20.82c-9.7,6.58-18.67,14.17-26.73,22.63l3.55,3.51c7.79-8.17,16.43-15.5,25.79-21.88l-2.61-4.26Zm-53.67,60.28c-4.77,9.18-8.7,18.86-11.68,28.94l4.85,1.25c2.88-9.7,6.66-19.01,11.25-27.84l-4.42-2.35Zm-13.32,78.25h-5c.2,11.17,1.53,22.07,3.87,32.59l4.82-1.38c-2.23-10.08-3.49-20.52-3.69-31.21Z"/><rect class="cls-1" x="197.99" y="79.55" width="4" height="21.56"/><polygon class="cls-1" points="150.51 101.11 146.74 88.46 150.54 87.21 154.38 100.08 150.51 101.11"/><polygon class="cls-1" points="119.77 123.78 109.13 107.13 112.49 104.96 123.13 121.6 119.77 123.78"/><polygon class="cls-1" points="87.54 143.13 78.2 133.94 80.87 130.95 90.35 140.29 87.54 143.13"/><polygon class="cls-1" points="72.73 177.02 55.13 167.01 57.1 163.53 74.7 173.54 72.73 177.02"/><polygon class="cls-1" points="53.37 204.56 41.63 201.64 42.63 197.76 54.37 200.69 53.37 204.56"/><polygon class="cls-1" points="59.35 245.38 36.31 245.11 36.37 241.11 59.41 241.38 59.35 245.38"/><polygon class="cls-1" points="41.23 283.73 40.37 279.64 51.44 276.61 52.53 280.46 41.23 283.73"/><rect class="cls-1" x="53.17" y="310.25" width="26.51" height="4" transform="translate(-143.65 71.87) rotate(-29.14)"/><polygon class="cls-1" points="248.86 101.11 244.99 100.08 248.59 86.87 252.41 88.08 248.86 101.11"/><polygon class="cls-1" points="278.66 123.22 275.3 121.04 286.15 104.05 289.51 106.23 278.66 123.22"/><polygon class="cls-1" points="310.87 141.04 308.05 138.2 317.52 129.51 320.34 132.35 310.87 141.04"/><polygon class="cls-1" points="325.87 173.78 323.9 170.3 341.57 161.05 343.54 164.79 325.87 173.78"/><polygon class="cls-1" points="345.47 202.17 344.46 198.3 356.36 194.88 357.5 198.71 345.47 202.17"/><polygon class="cls-2" points="340.92 242.29 340.86 238.29 363.61 238.02 363.67 242.02 340.92 242.29"/><polygon class="cls-2" points="359.34 280.71 346.69 276.87 347.78 273.02 360.14 276.78 359.34 280.71"/><rect class="cls-2" x="332.69" y="296.74" width="4" height="26.51" transform="translate(-99.07 451.29) rotate(-60.85)"/><path class="cls-1" d="m361.29,214.77l-4.95.68c-.87-4.93-1.97-9.79-3.28-14.55l4.84-1.24c1.37,4.95,2.51,9.99,3.39,15.11Z"/><path class="cls-2" d="m362.14,220.13l-4.95.68c-.21-1.46-.43-2.92-.68-4.37l4.96-.68c.25,1.45.47,2.91.67,4.37Z"/><path class="cls-2" d="m362.84,225.84l-4.96.68c-.16-1.58-.34-3.16-.56-4.72l4.96-.68c.21,1.56.4,3.13.56,4.71h0Z"/><path class="cls-2" d="m363.32,231.13l-4.99.48c-.09-1.37-.21-2.74-.34-4.1l4.96-.68c.14,1.43.27,2.86.37,4.3Z"/><path class="cls-2" d="m363.64,236.99h-5.01c-.06-1.46-.13-2.92-.23-4.38l5-.48c.1,1.61.18,3.23.24,4.86Z"/><path class="cls-2" d="m354.29,280.34c-2.63,10.91-6.39,21.38-11.14,31.29l4.41,2.36c4.92-10.21,8.82-21.01,11.54-32.27l-4.81-1.38Z"/><path class="cls-2" d="m358.69,243.09v.07c0,10.72-1.07,21.19-3.1,31.31l4.82,1.38c2.15-10.57,3.28-21.5,3.28-32.69v-.07h-5Z"/><path class="cls-1" d="m97.71,184.16v3.74h-17.54v-2.96l9.45-8.98c1.06-1.02,1.78-1.91,2.16-2.67.37-.76.56-1.51.56-2.26,0-1.11-.37-1.96-1.12-2.55-.75-.59-1.85-.88-3.3-.88-2.43,0-4.28.83-5.58,2.48l-3.09-2.38c.93-1.25,2.18-2.22,3.76-2.91,1.58-.69,3.34-1.04,5.29-1.04,2.58,0,4.65.61,6.19,1.84,1.54,1.22,2.31,2.89,2.31,5,0,1.29-.27,2.5-.82,3.64-.54,1.13-1.59,2.43-3.13,3.88l-6.36,6.05h11.22Z"/><path class="cls-1" d="m73.85,229.09v23.8h-4.42v-20.09h-5.03v-3.71h9.45Z"/><path class="cls-1" d="m143.26,141.27c1.16,1.22,1.73,2.75,1.73,4.59,0,1.38-.35,2.64-1.05,3.77-.7,1.13-1.76,2.03-3.18,2.7-1.42.67-3.15,1-5.19,1-1.7,0-3.34-.24-4.91-.73-1.58-.49-2.92-1.16-4.03-2.02l1.9-3.43c.86.73,1.91,1.3,3.15,1.72,1.24.42,2.51.63,3.83.63,1.56,0,2.79-.32,3.69-.97.9-.65,1.34-1.52,1.34-2.63s-.42-1.98-1.27-2.6c-.85-.62-2.15-.94-3.89-.94h-2.18v-3.03l5.41-6.43h-10.81v-3.71h16.22v2.96l-5.78,6.87c2.2.27,3.88,1.02,5.03,2.24Z"/><path class="cls-1" d="m209.86,129.87h-4.22v5.41h-4.28v-5.41h-13.06v-3.06l11.73-15.33h4.73l-11.05,14.65h7.79v-4.79h4.15v4.79h4.22v3.74Z"/><path class="cls-1" d="m273.85,140.36c1.61,1.3,2.41,3.08,2.41,5.32,0,1.43-.35,2.72-1.05,3.88-.7,1.16-1.76,2.07-3.16,2.75-1.41.68-3.14,1.02-5.2,1.02-1.7,0-3.34-.24-4.93-.73-1.59-.49-2.92-1.16-4.01-2.02l1.87-3.43c.88.73,1.94,1.3,3.18,1.72,1.23.42,2.51.63,3.82.63,1.56,0,2.79-.32,3.69-.97s1.34-1.54,1.34-2.67c0-1.22-.48-2.15-1.45-2.77-.96-.62-2.61-.94-4.95-.94h-5.75l1.22-12.95h13.97v3.71h-10.23l-.51,5.51h2.28c3.35,0,5.84.65,7.45,1.96Z"/><path class="cls-1" d="m312.23,181.63c1.25.6,2.22,1.46,2.92,2.57.7,1.11,1.05,2.39,1.05,3.84,0,1.54-.39,2.9-1.16,4.06-.77,1.17-1.81,2.07-3.13,2.7s-2.79.95-4.42.95c-3.26,0-5.8-1.02-7.6-3.06-1.8-2.04-2.7-4.96-2.7-8.77,0-2.67.49-4.96,1.46-6.85.97-1.89,2.34-3.33,4.1-4.32,1.76-.99,3.79-1.48,6.1-1.48,1.22,0,2.37.13,3.45.39,1.08.26,2.01.64,2.81,1.14l-1.63,3.33c-1.18-.77-2.69-1.16-4.52-1.16-2.29,0-4.08.7-5.37,2.11-1.29,1.41-1.94,3.43-1.94,6.09v.03c.7-.82,1.6-1.43,2.69-1.85,1.09-.42,2.31-.63,3.67-.63,1.56,0,2.97.3,4.22.9Zm-1.6,9.55c.86-.74,1.29-1.72,1.29-2.94s-.43-2.23-1.29-2.96c-.86-.73-2.02-1.09-3.47-1.09s-2.59.39-3.48,1.16c-.9.77-1.34,1.75-1.34,2.92s.44,2.11,1.31,2.87c.87.76,2.08,1.14,3.62,1.14,1.38,0,2.5-.37,3.37-1.1Z"/><path class="cls-1" d="m333.83,224.28v2.96l-9.25,20.84h-4.73l8.94-20.06h-9.35v4.05h-4.11v-7.79h18.5Z"/><path class="cls-1" d="m315.51,294.46c.67.96,1,2.09,1,3.38,0,1.45-.4,2.72-1.21,3.81-.8,1.09-1.94,1.92-3.42,2.5-1.47.58-3.19.87-5.13.87s-3.65-.29-5.12-.87-2.59-1.41-3.38-2.5-1.19-2.36-1.19-3.81c0-1.29.33-2.42.99-3.38.66-.96,1.6-1.73,2.82-2.3-.95-.52-1.68-1.21-2.19-2.06-.51-.85-.77-1.83-.77-2.94,0-1.34.37-2.5,1.1-3.5.74-1,1.77-1.77,3.11-2.31s2.88-.82,4.62-.82,3.32.27,4.66.82c1.34.54,2.38,1.31,3.13,2.31.75,1,1.12,2.17,1.12,3.5,0,1.11-.26,2.08-.78,2.92s-1.27,1.53-2.24,2.07c1.25.57,2.2,1.33,2.87,2.3Zm-4.88,6.07c.95-.68,1.43-1.62,1.43-2.82s-.48-2.11-1.43-2.79c-.95-.68-2.24-1.02-3.88-1.02s-2.91.34-3.84,1.02c-.93.68-1.39,1.61-1.39,2.79s.46,2.14,1.39,2.82c.93.68,2.21,1.02,3.84,1.02s2.92-.34,3.88-1.02Zm-7.16-15.64c-.8.59-1.21,1.42-1.21,2.48s.4,1.83,1.21,2.43c.8.6,1.9.9,3.28.9s2.52-.3,3.33-.9c.82-.6,1.22-1.41,1.22-2.43s-.41-1.89-1.24-2.48c-.83-.59-1.93-.88-3.32-.88s-2.48.29-3.28.88Z"/><path class="cls-1" d="m90.19,310.45c-1.5-.96-2.68-2.37-3.54-4.22-.86-1.85-1.29-4.04-1.29-6.58s.43-4.73,1.29-6.58c.86-1.85,2.04-3.25,3.54-4.22,1.5-.96,3.2-1.45,5.1-1.45s3.61.48,5.12,1.45c1.51.96,2.69,2.37,3.55,4.22.86,1.85,1.29,4.04,1.29,6.58s-.43,4.73-1.29,6.58c-.86,1.85-2.05,3.25-3.55,4.22-1.51.96-3.21,1.45-5.12,1.45s-3.6-.48-5.1-1.45Zm9.13-4.5c.99-1.41,1.48-3.5,1.48-6.29s-.49-4.88-1.48-6.29c-.99-1.41-2.33-2.11-4.03-2.11s-3.01.7-3.99,2.11c-.99,1.41-1.48,3.5-1.48,6.29s.49,4.88,1.48,6.29c.99,1.41,2.32,2.11,3.99,2.11s3.04-.7,4.03-2.11Z"/></svg>