<?xml version="1.0" encoding="UTF-8"?><svg id="Layer_2" xmlns="http://www.w3.org/2000/svg" viewBox="0 0 400 400"><defs><style>.cls-1{fill:#fff;}</style></defs><path class="cls-1" d="m56.12,164.57c-4.01,7.23-7.45,14.79-10.27,22.64l3.76,1.37c2.7-7.51,5.98-14.77,9.81-21.7l-3.3-2.31Zm39.88-47.2c-6.44,5.17-12.46,10.8-18.01,16.86l2.96,2.68c5.43-5.91,11.31-11.42,17.61-16.47l-2.56-3.07Zm67.21-32.3c-10.55,2.36-20.71,5.71-30.37,9.96l2,3.49c9.16-4,18.77-7.17,28.75-9.44l-.38-4.01Zm39.79-4.03v4c9.38.17,18.56,1.12,27.48,2.81l.38-4.01c-9.05-1.68-18.36-2.64-27.86-2.8Zm69.62,16.51l-1.99,3.47c9.22,4.44,17.95,9.73,26.06,15.74l2.56-3.07c-8.29-6.17-17.2-11.58-26.63-16.14Zm53.35,41.17l-2.96,2.68c5.39,6.34,10.26,13.11,14.56,20.25l3.29-2.3c-4.41-7.27-9.39-14.16-14.89-20.63Zm32.4,115.88c-.91,8.78-2.59,17.34-4.97,25.62l3.7,1.63c2.51-8.65,4.28-17.59,5.24-26.76l-3.97-.49Zm-316.74,0l-3.97.49c.96,9.17,2.73,18.11,5.24,26.76l3.7-1.63c-2.38-8.28-4.06-16.84-4.97-25.62Zm-.2-28.99h-4.01c-.39,4.44-.59,8.93-.59,13.46,0,3.37.11,6.72.32,10.03l3.98-.49c-.2-3.16-.3-6.34-.3-9.54,0-4.54.2-9.03.6-13.46Zm2.5-32.71c-2.72,8.61-4.7,17.54-5.87,26.71h4.03c1.14-8.69,3.03-17.16,5.61-25.34l-3.77-1.37Zm4.45,93.09l-3.67,1.63c3.14,9.42,7.18,18.46,12.01,27.02l3.45-2.02c-4.75-8.43-8.72-17.34-11.79-26.63Zm303.24,0c-3.08,9.29-7.04,18.2-11.8,26.63l3.46,2.02c4.83-8.57,8.87-17.61,12.01-27.03l-3.67-1.62Zm10.96-60.39h-4.01c.4,4.43.6,8.92.6,13.46,0,3.2-.1,6.38-.3,9.54l3.98.5c.21-3.32.32-6.67.32-10.04,0-4.53-.2-9.02-.59-13.46Zm-6.52-32.72l-3.76,1.38c2.58,8.18,4.47,16.65,5.61,25.34h4.03c-1.17-9.17-3.15-18.1-5.88-26.72Zm-12.18-28.32l-3.3,2.3c3.82,6.94,7.11,14.19,9.81,21.71l3.75-1.38c-2.82-7.84-6.26-15.4-10.26-22.63Zm-39.89-47.21l-2.55,3.07c6.29,5.05,12.17,10.56,17.6,16.47l2.96-2.68c-5.55-6.05-11.57-11.69-18.01-16.86Zm-67.21-32.3l-.38,4.01c9.98,2.27,19.59,5.45,28.75,9.45l2-3.49c-9.66-4.25-19.82-7.61-30.37-9.97Zm-67.66-1.21l.38,4c8.92-1.68,18.11-2.64,27.5-2.81v-4c-9.51.16-18.83,1.12-27.88,2.81Zm-41.75,13.71c-9.43,4.55-18.33,9.97-26.62,16.14l2.55,3.07c8.11-6.02,16.84-11.3,26.07-15.74l-2-3.47Zm-53.35,41.17c-5.5,6.47-10.48,13.36-14.88,20.63l3.29,2.3c4.29-7.14,9.16-13.91,14.56-20.25l-2.97-2.68Z"/><polygon class="cls-1" points="59.18 318.84 57.15 315.39 76.44 304.42 78.46 307.87 59.18 318.84"/><polygon class="cls-1" points="44.37 286.61 43.15 282.77 53.78 278.07 55.4 281.73 44.37 286.61"/><polygon class="cls-1" points="37.51 254.1 37.22 250.11 55.88 247.79 56.38 251.76 37.51 254.1"/><polygon class="cls-1" points="47.3 224.57 37.6 224.57 37.87 220.57 47.3 220.57 47.3 224.57"/><rect class="cls-1" x="51.72" y="184.02" width="4" height="18.75" transform="translate(-146.34 177.21) rotate(-69.85)"/><polygon class="cls-1" points="64.26 169.07 56.64 163.75 58.72 160.32 66.55 165.8 64.26 169.07"/><rect class="cls-1" x="81.86" y="132.92" width="4" height="21.03" transform="translate(-78.8 109.59) rotate(-47.93)"/><rect class="cls-1" x="99.4" y="114.39" width="4" height="9.17" transform="translate(-52.68 92.57) rotate(-39.84)"/><polygon class="cls-1" points="137.82 113.68 128.32 97.15 131.98 95.49 141.29 111.69 137.82 113.68"/><polygon class="cls-1" points="165.4 96.61 164.16 84.87 168.09 84.06 169.38 96.19 165.4 96.61"/><rect class="cls-1" x="197.92" y="81.04" width="4" height="19.12"/><polygon class="cls-1" points="340.84 318.96 321.94 308.14 323.96 304.69 342.86 315.51 340.84 318.96"/><polygon class="cls-1" points="355.59 286.65 344.64 281.81 346.25 278.15 356.89 282.85 355.59 286.65"/><polygon class="cls-1" points="362.45 254.01 343.4 251.64 343.89 247.67 362.76 250.02 362.45 254.01"/><polygon class="cls-1" points="362.36 224.68 352.51 224.68 352.51 220.68 361.94 220.68 362.36 224.68"/><polygon class="cls-1" points="338.23 198.34 336.86 194.58 354.46 188.13 355.69 192.01 338.23 198.34"/><polygon class="cls-1" points="335.87 168.95 333.58 165.67 341.41 160.2 343.37 163.79 335.87 168.95"/><rect class="cls-1" x="305.7" y="141.5" width="21.03" height="4" transform="translate(-14.69 248.8) rotate(-42.06)"/><polygon class="cls-1" points="297.31 123.87 294.24 121.3 300.01 114.38 303.18 116.82 297.31 123.87"/><polygon class="cls-1" points="262.26 113.72 258.79 111.73 268.16 95.42 271.76 97.19 262.26 113.72"/><polygon class="cls-1" points="234.67 96.59 230.69 96.21 231.83 84.07 235.77 84.9 234.67 96.59"/><path class="cls-1" d="m91.22,307.55c-1.28-.82-2.28-2.02-3.02-3.6-.73-1.58-1.1-3.45-1.1-5.61s.37-4.04,1.1-5.61c.73-1.58,1.74-2.77,3.02-3.6,1.28-.82,2.73-1.23,4.35-1.23s3.08.41,4.36,1.23c1.29.82,2.3,2.02,3.03,3.6.73,1.58,1.1,3.45,1.1,5.61s-.37,4.04-1.1,5.61c-.74,1.58-1.75,2.77-3.03,3.6-1.29.82-2.74,1.23-4.36,1.23s-3.07-.41-4.35-1.23Zm7.79-3.84c.84-1.2,1.26-2.99,1.26-5.37s-.42-4.17-1.26-5.37c-.84-1.2-1.99-1.8-3.44-1.8s-2.57.6-3.41,1.8c-.84,1.2-1.26,2.99-1.26,5.37s.42,4.17,1.26,5.37c.84,1.2,1.98,1.8,3.41,1.8s2.6-.6,3.44-1.8Z"/><path class="cls-1" d="m81.38,255.21v3.19h-14.96v-2.52l8.06-7.66c.91-.87,1.52-1.63,1.84-2.28.32-.65.48-1.29.48-1.93,0-.95-.32-1.67-.96-2.17-.64-.5-1.58-.75-2.81-.75-2.07,0-3.65.71-4.76,2.12l-2.64-2.03c.79-1.06,1.86-1.89,3.2-2.48s2.85-.88,4.51-.88c2.2,0,3.96.52,5.28,1.57,1.31,1.04,1.97,2.46,1.97,4.26,0,1.1-.23,2.14-.7,3.1-.46.97-1.35,2.07-2.67,3.31l-5.42,5.16h9.57Z"/><path class="cls-1" d="m86.74,257.46c-1.28-.82-2.28-2.02-3.02-3.6-.74-1.58-1.1-3.45-1.1-5.61s.37-4.04,1.1-5.61c.73-1.58,1.74-2.77,3.02-3.6,1.28-.82,2.73-1.23,4.35-1.23s3.08.41,4.36,1.23c1.29.82,2.29,2.02,3.03,3.6.73,1.58,1.1,3.45,1.1,5.61s-.37,4.04-1.1,5.61c-.74,1.58-1.75,2.77-3.03,3.6-1.29.82-2.74,1.23-4.36,1.23s-3.07-.41-4.35-1.23Zm7.79-3.84c.84-1.2,1.26-2.99,1.26-5.36s-.42-4.17-1.26-5.37c-.84-1.2-1.99-1.8-3.44-1.8s-2.57.6-3.41,1.8c-.84,1.2-1.26,2.99-1.26,5.37s.42,4.17,1.26,5.36c.84,1.2,1.98,1.8,3.41,1.8s2.59-.6,3.44-1.8Z"/><path class="cls-1" d="m86.05,207.59h-3.6v4.61h-3.65v-4.61h-11.14v-2.61l10.01-13.08h4.03l-9.42,12.5h6.64v-4.09h3.54v4.09h3.6v3.19Z"/><path class="cls-1" d="m90.92,211.26c-1.28-.82-2.28-2.02-3.02-3.6-.74-1.58-1.1-3.45-1.1-5.61s.37-4.04,1.1-5.61c.73-1.58,1.74-2.77,3.02-3.6,1.28-.82,2.73-1.23,4.35-1.23s3.08.41,4.36,1.23c1.29.82,2.29,2.02,3.03,3.6.73,1.58,1.1,3.45,1.1,5.61s-.37,4.04-1.1,5.61c-.74,1.58-1.75,2.77-3.03,3.6-1.29.82-2.74,1.23-4.36,1.23s-3.07-.41-4.35-1.23Zm7.79-3.84c.84-1.2,1.26-2.99,1.26-5.36s-.42-4.17-1.26-5.37c-.84-1.2-1.99-1.8-3.44-1.8s-2.57.6-3.41,1.8c-.84,1.2-1.26,2.99-1.26,5.37s.42,4.17,1.26,5.36c.84,1.2,1.98,1.8,3.41,1.8s2.59-.6,3.44-1.8Z"/><path class="cls-1" d="m108.73,160.99c1.06.51,1.89,1.24,2.49,2.19s.9,2.04.9,3.28c0,1.31-.33,2.47-.99,3.47-.66,1-1.55,1.76-2.67,2.31s-2.38.81-3.77.81c-2.78,0-4.94-.87-6.48-2.61-1.54-1.74-2.31-4.23-2.31-7.48,0-2.28.42-4.23,1.25-5.84.83-1.61,2-2.84,3.49-3.68,1.5-.84,3.23-1.26,5.21-1.26,1.04,0,2.02.11,2.94.33.92.22,1.71.55,2.39.97l-1.39,2.84c-1-.66-2.29-.99-3.86-.99-1.95,0-3.48.6-4.58,1.8-1.1,1.2-1.65,2.93-1.65,5.19v.03c.6-.7,1.36-1.22,2.29-1.58.93-.36,1.97-.54,3.13-.54,1.33,0,2.53.26,3.6.77Zm-1.36,8.15c.73-.63,1.1-1.46,1.1-2.51s-.37-1.9-1.1-2.52c-.74-.62-1.72-.93-2.96-.93s-2.21.33-2.97.99-1.15,1.49-1.15,2.49.37,1.8,1.12,2.45c.74.65,1.77.97,3.09.97,1.18,0,2.14-.31,2.87-.94Z"/><path class="cls-1" d="m117.37,171.81c-1.28-.82-2.28-2.02-3.02-3.6-.74-1.58-1.1-3.45-1.1-5.61s.37-4.04,1.1-5.61c.73-1.58,1.74-2.77,3.02-3.6,1.28-.82,2.73-1.23,4.35-1.23s3.08.41,4.36,1.23c1.29.82,2.29,2.02,3.03,3.6.73,1.58,1.1,3.45,1.1,5.61s-.37,4.04-1.1,5.61c-.74,1.58-1.75,2.77-3.03,3.6-1.29.82-2.74,1.23-4.36,1.23s-3.07-.41-4.35-1.23Zm7.79-3.84c.84-1.2,1.26-2.99,1.26-5.36s-.42-4.17-1.26-5.37c-.84-1.2-1.99-1.8-3.44-1.8s-2.57.6-3.41,1.8c-.84,1.2-1.26,2.99-1.26,5.37s.42,4.17,1.26,5.36c.84,1.2,1.98,1.8,3.41,1.8s2.59-.6,3.44-1.8Z"/><path class="cls-1" d="m154.47,130.99c.57.82.86,1.78.86,2.89,0,1.24-.34,2.32-1.03,3.25-.69.93-1.66,1.64-2.91,2.13-1.26.49-2.72.74-4.38.74s-3.12-.25-4.36-.74c-1.25-.49-2.21-1.2-2.89-2.13-.68-.93-1.01-2.01-1.01-3.25,0-1.1.28-2.06.84-2.89.56-.82,1.36-1.47,2.41-1.96-.81-.44-1.44-1.03-1.87-1.75-.43-.73-.65-1.56-.65-2.51,0-1.14.31-2.14.94-2.99.63-.85,1.51-1.51,2.65-1.97s2.46-.7,3.94-.7,2.83.23,3.97.7,2.03,1.12,2.67,1.97c.64.85.96,1.85.96,2.99,0,.95-.22,1.78-.67,2.49s-1.08,1.3-1.91,1.77c1.06.48,1.88,1.14,2.45,1.96Zm-4.16,5.18c.81-.58,1.22-1.38,1.22-2.41s-.41-1.8-1.22-2.38c-.81-.58-1.91-.87-3.31-.87s-2.48.29-3.28.87c-.79.58-1.19,1.37-1.19,2.38s.4,1.83,1.19,2.41,1.89.87,3.28.87,2.49-.29,3.31-.87Zm-6.1-13.34c-.69.5-1.03,1.21-1.03,2.12s.34,1.56,1.03,2.07c.69.51,1.62.77,2.8.77s2.15-.26,2.84-.77c.7-.51,1.04-1.2,1.04-2.07s-.35-1.61-1.06-2.12c-.71-.5-1.65-.75-2.83-.75s-2.11.25-2.8.75Z"/><path class="cls-1" d="m161.04,138.76c-1.28-.82-2.28-2.02-3.02-3.6-.73-1.58-1.1-3.45-1.1-5.61s.37-4.04,1.1-5.61c.73-1.58,1.74-2.77,3.02-3.6,1.28-.82,2.73-1.23,4.35-1.23s3.08.41,4.36,1.23c1.29.82,2.3,2.02,3.03,3.6.73,1.58,1.1,3.45,1.1,5.61s-.37,4.04-1.1,5.61c-.74,1.58-1.75,2.77-3.03,3.6-1.29.82-2.74,1.23-4.36,1.23s-3.07-.41-4.35-1.23Zm7.79-3.84c.84-1.2,1.26-2.99,1.26-5.36s-.42-4.17-1.26-5.37c-.84-1.2-1.99-1.8-3.44-1.8s-2.57.6-3.41,1.8c-.84,1.2-1.26,2.99-1.26,5.37s.42,4.17,1.26,5.36c.84,1.2,1.98,1.8,3.41,1.8s2.6-.6,3.44-1.8Z"/><path class="cls-1" d="m186.11,105.43v20.3h-3.77v-17.14h-4.29v-3.16h8.06Z"/><path class="cls-1" d="m193.42,124.78c-1.28-.82-2.28-2.02-3.02-3.6-.74-1.58-1.1-3.45-1.1-5.61s.37-4.04,1.1-5.61c.73-1.58,1.74-2.77,3.02-3.6,1.28-.82,2.73-1.23,4.35-1.23s3.08.41,4.36,1.23c1.29.82,2.29,2.02,3.03,3.6.73,1.58,1.1,3.45,1.1,5.61s-.37,4.04-1.1,5.61c-.74,1.58-1.75,2.77-3.03,3.6-1.29.82-2.74,1.23-4.36,1.23s-3.07-.41-4.35-1.23Zm7.79-3.84c.84-1.2,1.26-2.99,1.26-5.36s-.42-4.17-1.26-5.37c-.84-1.2-1.99-1.8-3.44-1.8s-2.57.6-3.41,1.8c-.84,1.2-1.26,2.99-1.26,5.37s.42,4.17,1.26,5.36c.84,1.2,1.98,1.8,3.41,1.8s2.59-.6,3.44-1.8Z"/><path class="cls-1" d="m212.09,124.78c-1.28-.82-2.28-2.02-3.02-3.6-.73-1.58-1.1-3.45-1.1-5.61s.37-4.04,1.1-5.61c.73-1.58,1.74-2.77,3.02-3.6,1.28-.82,2.73-1.23,4.35-1.23s3.08.41,4.36,1.23c1.29.82,2.3,2.02,3.03,3.6.73,1.58,1.1,3.45,1.1,5.61s-.37,4.04-1.1,5.61c-.74,1.58-1.75,2.77-3.03,3.6-1.29.82-2.74,1.23-4.36,1.23s-3.07-.41-4.35-1.23Zm7.79-3.84c.84-1.2,1.26-2.99,1.26-5.36s-.42-4.17-1.26-5.37c-.84-1.2-1.99-1.8-3.44-1.8s-2.57.6-3.41,1.8c-.84,1.2-1.26,2.99-1.26,5.37s.42,4.17,1.26,5.36c.84,1.2,1.98,1.8,3.41,1.8s2.6-.6,3.44-1.8Z"/><path class="cls-1" d="m198.12,164.51c.44.21.78.51,1.03.91s.37.84.37,1.36c0,.54-.14,1.02-.41,1.43-.27.41-.64.73-1.1.95-.46.22-.98.34-1.56.34-1.15,0-2.05-.36-2.68-1.08-.64-.72-.95-1.75-.95-3.1,0-.94.17-1.75.52-2.42s.83-1.18,1.45-1.52,1.34-.52,2.15-.52c.43,0,.84.05,1.22.14s.71.23.99.4l-.58,1.18c-.42-.27-.95-.41-1.6-.41-.81,0-1.44.25-1.9.74s-.68,1.21-.68,2.15h0c.25-.28.56-.49.95-.64.38-.15.82-.22,1.3-.22.55,0,1.05.11,1.49.32Zm-.56,3.37c.3-.26.46-.61.46-1.04s-.15-.79-.46-1.04c-.3-.26-.71-.38-1.22-.38s-.91.14-1.23.41c-.32.27-.47.62-.47,1.03s.15.75.46,1.01c.31.27.73.4,1.28.4.49,0,.88-.13,1.19-.39Z"/><path class="cls-1" d="m201.7,168.98c-.53-.34-.94-.84-1.25-1.49-.3-.65-.46-1.43-.46-2.32s.15-1.67.46-2.32c.3-.65.72-1.15,1.25-1.49.53-.34,1.13-.51,1.8-.51s1.27.17,1.81.51c.53.34.95.84,1.25,1.49.3.65.46,1.43.46,2.32s-.15,1.67-.46,2.32c-.3.65-.72,1.15-1.25,1.49-.53.34-1.13.51-1.81.51s-1.27-.17-1.8-.51Zm3.22-1.59c.35-.5.52-1.24.52-2.22s-.17-1.72-.52-2.22-.82-.74-1.42-.74-1.06.25-1.41.74c-.35.5-.52,1.24-.52,2.22s.17,1.72.52,2.22c.35.5.82.74,1.41.74s1.07-.25,1.42-.74Z"/><path class="cls-1" d="m150.31,184.87h-1.49v1.91h-1.51v-1.91h-4.61v-1.08l4.14-5.41h1.67l-3.9,5.17h2.75v-1.69h1.46v1.69h1.49v1.32Z"/><path class="cls-1" d="m152.33,186.39c-.53-.34-.94-.84-1.25-1.49-.3-.65-.46-1.43-.46-2.32s.15-1.67.46-2.32c.3-.65.72-1.15,1.25-1.49.53-.34,1.13-.51,1.8-.51s1.27.17,1.81.51c.53.34.95.84,1.25,1.49s.46,1.43.46,2.32-.15,1.67-.46,2.32-.72,1.15-1.25,1.49c-.53.34-1.13.51-1.81.51s-1.27-.17-1.8-.51Zm3.22-1.59c.35-.5.52-1.24.52-2.22s-.17-1.72-.52-2.22c-.35-.5-.82-.74-1.42-.74s-1.06.25-1.41.74c-.35.5-.52,1.24-.52,2.22s.17,1.72.52,2.22c.35.5.82.74,1.41.74s1.07-.25,1.42-.74Z"/><path class="cls-1" d="m122.78,227.34v1.32h-6.19v-1.04l3.34-3.17c.38-.36.63-.67.76-.94.13-.27.2-.53.2-.8,0-.39-.13-.69-.4-.9-.26-.21-.65-.31-1.16-.31-.86,0-1.51.29-1.97.88l-1.09-.84c.33-.44.77-.78,1.33-1.03.56-.24,1.18-.37,1.87-.37.91,0,1.64.21,2.18.65.54.43.82,1.02.82,1.76,0,.46-.1.88-.29,1.28-.19.4-.56.86-1.1,1.37l-2.24,2.14h3.96Z"/><path class="cls-1" d="m125,228.27c-.53-.34-.94-.84-1.25-1.49-.3-.65-.46-1.43-.46-2.32s.15-1.67.46-2.32c.3-.65.72-1.15,1.25-1.49.53-.34,1.13-.51,1.8-.51s1.27.17,1.81.51.95.84,1.25,1.49c.3.65.46,1.43.46,2.32s-.15,1.67-.46,2.32-.72,1.15-1.25,1.49c-.53.34-1.13.51-1.81.51s-1.27-.17-1.8-.51Zm3.22-1.59c.35-.5.52-1.24.52-2.22s-.17-1.72-.52-2.22c-.35-.5-.82-.74-1.42-.74s-1.06.25-1.41.74c-.35.5-.52,1.24-.52,2.22s.17,1.72.52,2.22c.35.5.82.74,1.41.74s1.07-.25,1.42-.74Z"/><path class="cls-1" d="m117.81,282.44v-5.57s-2.77,4.61-2.77,4.61h-.7l-2.76-4.54v5.5h-1.49v-8.4h1.28l3.34,5.57,3.28-5.57h1.28v8.4s-1.46,0-1.46,0Z"/><path class="cls-1" d="m126.56,274.4c.54.24.95.58,1.24,1.03s.43.98.43,1.6-.14,1.14-.43,1.59c-.29.45-.7.8-1.24,1.04-.54.24-1.17.36-1.9.36h-1.9v2.42h-1.56v-8.4h3.46c.73,0,1.36.12,1.9.36Zm-.43,3.86c.35-.29.53-.7.53-1.24s-.18-.95-.53-1.24c-.35-.29-.87-.43-1.55-.43h-1.82v3.34h1.82c.68,0,1.2-.14,1.55-.43Z"/><path class="cls-1" d="m136.91,274.04v8.4h-1.56v-3.6h-4.34v3.6h-1.56v-8.4h1.56v3.47h4.34v-3.47h1.56Z"/><path class="cls-1" d="m266.74,272.83v8.4h-1.56v-7.09h-1.78v-1.31h3.34Z"/><path class="cls-1" d="m274.14,279.91v1.32h-6.19v-1.04l3.34-3.17c.38-.36.63-.67.76-.94.13-.27.2-.53.2-.8,0-.39-.13-.69-.4-.9s-.65-.31-1.16-.31c-.86,0-1.51.29-1.97.88l-1.09-.84c.33-.44.77-.78,1.33-1.03.56-.24,1.18-.37,1.87-.37.91,0,1.64.22,2.18.65.54.43.82,1.02.82,1.76,0,.46-.1.88-.29,1.28-.19.4-.56.86-1.1,1.37l-2.24,2.14h3.96Z"/><path class="cls-1" d="m276.36,280.84c-.53-.34-.94-.84-1.25-1.49-.3-.65-.46-1.43-.46-2.32s.15-1.67.46-2.32c.3-.65.72-1.15,1.25-1.49.53-.34,1.13-.51,1.8-.51s1.27.17,1.81.51.95.84,1.25,1.49c.3.65.46,1.43.46,2.32s-.15,1.67-.46,2.32c-.3.65-.72,1.15-1.25,1.49s-1.13.51-1.81.51-1.27-.17-1.8-.51Zm3.22-1.59c.35-.5.52-1.24.52-2.22s-.17-1.72-.52-2.22-.82-.74-1.42-.74-1.06.25-1.41.74c-.35.5-.52,1.24-.52,2.22s.17,1.72.52,2.22c.35.5.82.74,1.41.74s1.07-.25,1.42-.74Z"/><path class="cls-1" d="m272.27,223.44v8.4h-1.56v-7.09h-1.78v-1.31h3.34Z"/><path class="cls-1" d="m275.3,231.45c-.53-.34-.94-.84-1.25-1.49-.3-.65-.46-1.43-.46-2.32s.15-1.67.46-2.32c.3-.65.72-1.15,1.25-1.49.53-.34,1.13-.51,1.8-.51s1.27.17,1.81.51c.53.34.95.84,1.25,1.49.3.65.46,1.43.46,2.32s-.15,1.67-.46,2.32c-.3.65-.72,1.15-1.25,1.49-.53.34-1.13.51-1.81.51s-1.27-.17-1.8-.51Zm3.22-1.59c.35-.5.52-1.24.52-2.22s-.17-1.72-.52-2.22-.82-.74-1.42-.74-1.06.25-1.41.74c-.35.5-.52,1.24-.52,2.22s.17,1.72.52,2.22c.35.5.82.74,1.41.74s1.07-.25,1.42-.74Z"/><path class="cls-1" d="m283.03,231.45c-.53-.34-.94-.84-1.25-1.49-.3-.65-.46-1.43-.46-2.32s.15-1.67.46-2.32c.3-.65.72-1.15,1.25-1.49.53-.34,1.13-.51,1.8-.51s1.27.17,1.81.51c.53.34.95.84,1.25,1.49.3.65.46,1.43.46,2.32s-.15,1.67-.46,2.32c-.3.65-.72,1.15-1.25,1.49-.53.34-1.13.51-1.81.51s-1.27-.17-1.8-.51Zm3.22-1.59c.35-.5.52-1.24.52-2.22s-.17-1.72-.52-2.22c-.35-.5-.82-.74-1.42-.74s-1.06.25-1.41.74c-.35.5-.52,1.24-.52,2.22s.17,1.72.52,2.22c.35.5.82.74,1.41.74s1.07-.25,1.42-.74Z"/><path class="cls-1" d="m251.8,184.78c.24.34.35.74.35,1.19,0,.51-.14.96-.43,1.34-.28.38-.69.68-1.21.88-.52.2-1.12.31-1.81.31s-1.29-.1-1.81-.31c-.52-.2-.91-.5-1.19-.88-.28-.38-.42-.83-.42-1.34,0-.46.12-.85.35-1.19s.56-.61,1-.81c-.34-.18-.59-.43-.77-.73-.18-.3-.27-.65-.27-1.04,0-.47.13-.88.39-1.24s.63-.62,1.1-.82c.47-.19,1.02-.29,1.63-.29s1.17.1,1.64.29c.47.19.84.46,1.1.82.26.35.4.76.4,1.24,0,.39-.09.74-.28,1.03-.18.3-.45.54-.79.73.44.2.78.47,1.01.81Zm-1.72,2.14c.34-.24.5-.57.5-1s-.17-.74-.5-.98c-.34-.24-.79-.36-1.37-.36s-1.03.12-1.36.36c-.33.24-.49.57-.49.98s.16.76.49,1c.33.24.78.36,1.36.36s1.03-.12,1.37-.36Zm-2.53-5.52c-.28.21-.43.5-.43.88s.14.65.43.86.67.32,1.16.32.89-.11,1.18-.32.43-.5.43-.86-.15-.67-.44-.88-.68-.31-1.17-.31-.87.1-1.16.31Z"/><path class="cls-1" d="m254.51,188c-.53-.34-.94-.84-1.25-1.49-.3-.65-.46-1.43-.46-2.32s.15-1.67.46-2.32c.3-.65.72-1.15,1.25-1.49.53-.34,1.13-.51,1.8-.51s1.27.17,1.81.51c.53.34.95.84,1.25,1.49.3.65.46,1.43.46,2.32s-.15,1.67-.46,2.32c-.3.65-.72,1.15-1.25,1.49-.53.34-1.13.51-1.81.51s-1.27-.17-1.8-.51Zm3.22-1.59c.35-.5.52-1.24.52-2.22s-.17-1.72-.52-2.22-.82-.74-1.42-.74-1.06.25-1.41.74c-.35.5-.52,1.24-.52,2.22s.17,1.72.52,2.22c.35.5.82.74,1.41.74s1.07-.25,1.42-.74Z"/><path class="cls-1" d="m240.73,118.47v20.3h-3.77v-17.14h-4.29v-3.16h8.06Z"/><path class="cls-1" d="m258.62,135.58v3.19h-14.96v-2.52l8.06-7.66c.91-.87,1.52-1.63,1.84-2.28.32-.65.48-1.29.48-1.93,0-.95-.32-1.67-.96-2.18-.64-.5-1.58-.75-2.81-.75-2.07,0-3.65.71-4.76,2.12l-2.64-2.03c.79-1.06,1.86-1.89,3.21-2.48,1.34-.59,2.85-.88,4.51-.88,2.2,0,3.96.52,5.28,1.57s1.97,2.46,1.97,4.26c0,1.1-.23,2.14-.7,3.1-.46.97-1.35,2.07-2.67,3.31l-5.42,5.16h9.57Z"/><path class="cls-1" d="m263.99,137.83c-1.28-.82-2.28-2.02-3.02-3.6-.74-1.58-1.1-3.45-1.1-5.61s.37-4.04,1.1-5.61c.73-1.58,1.74-2.77,3.02-3.6,1.28-.82,2.73-1.23,4.35-1.23s3.08.41,4.36,1.23c1.29.82,2.29,2.02,3.03,3.6.73,1.58,1.1,3.45,1.1,5.61s-.37,4.04-1.1,5.61c-.74,1.58-1.75,2.77-3.03,3.6-1.29.82-2.74,1.23-4.36,1.23s-3.07-.41-4.35-1.23Zm7.79-3.84c.84-1.2,1.26-2.99,1.26-5.36s-.42-4.17-1.26-5.37c-.84-1.2-1.99-1.8-3.44-1.8s-2.57.6-3.41,1.8c-.84,1.2-1.26,2.99-1.26,5.37s.42,4.17,1.26,5.36c.84,1.2,1.98,1.8,3.41,1.8s2.59-.6,3.44-1.8Z"/><path class="cls-1" d="m270.87,152.77v20.3h-3.77v-17.14h-4.29v-3.16h8.06Z"/><path class="cls-1" d="m292.16,168.46h-3.6v4.61h-3.65v-4.61h-11.14v-2.61l10.01-13.08h4.03l-9.42,12.5h6.64v-4.09h3.54v4.09h3.6v3.19Z"/><path class="cls-1" d="m297.03,172.12c-1.28-.82-2.28-2.02-3.02-3.6-.73-1.58-1.1-3.45-1.1-5.61s.37-4.04,1.1-5.61c.73-1.58,1.74-2.77,3.02-3.6,1.28-.82,2.73-1.23,4.35-1.23s3.08.41,4.36,1.23c1.29.82,2.3,2.02,3.03,3.6.73,1.58,1.1,3.45,1.1,5.61s-.37,4.04-1.1,5.61c-.74,1.58-1.75,2.77-3.03,3.6-1.29.82-2.74,1.23-4.36,1.23s-3.07-.41-4.35-1.23Zm7.79-3.84c.84-1.2,1.26-2.99,1.26-5.36s-.42-4.17-1.26-5.37c-.84-1.2-1.99-1.8-3.44-1.8s-2.57.6-3.41,1.8c-.84,1.2-1.26,2.99-1.26,5.37s.42,4.17,1.26,5.36c.84,1.2,1.98,1.8,3.41,1.8s2.6-.6,3.44-1.8Z"/><path class="cls-1" d="m293.7,192.26v20.3h-3.77v-17.14h-4.29v-3.16h8.06Z"/><path class="cls-1" d="m309.71,200.8c1.06.51,1.89,1.24,2.49,2.19.6.95.9,2.04.9,3.28,0,1.32-.33,2.47-.99,3.47s-1.55,1.76-2.67,2.31c-1.12.54-2.38.81-3.77.81-2.78,0-4.94-.87-6.48-2.61-1.54-1.74-2.31-4.23-2.31-7.48,0-2.28.42-4.23,1.25-5.84s2-2.84,3.5-3.68c1.5-.84,3.23-1.26,5.21-1.26,1.04,0,2.03.11,2.94.33s1.72.55,2.39.97l-1.39,2.84c-1.01-.66-2.29-.99-3.86-.99-1.95,0-3.48.6-4.58,1.8-1.1,1.2-1.65,2.93-1.65,5.19v.03c.6-.7,1.36-1.22,2.29-1.58.93-.36,1.97-.54,3.13-.54,1.33,0,2.53.26,3.6.77Zm-1.36,8.15c.73-.63,1.1-1.46,1.1-2.51s-.37-1.9-1.1-2.52-1.72-.93-2.96-.93-2.21.33-2.97.99-1.15,1.49-1.15,2.49.37,1.8,1.12,2.45c.74.65,1.77.97,3.09.97,1.18,0,2.14-.31,2.87-.94Z"/><path class="cls-1" d="m318.35,211.62c-1.28-.82-2.28-2.02-3.02-3.6-.74-1.58-1.1-3.45-1.1-5.61s.37-4.04,1.1-5.61c.73-1.58,1.74-2.77,3.02-3.6,1.28-.82,2.73-1.23,4.35-1.23s3.08.41,4.36,1.23c1.29.82,2.29,2.02,3.03,3.6.73,1.58,1.1,3.45,1.1,5.61s-.37,4.04-1.1,5.61c-.74,1.58-1.75,2.77-3.03,3.6-1.29.82-2.74,1.23-4.36,1.23s-3.07-.41-4.35-1.23Zm7.79-3.84c.84-1.2,1.26-2.99,1.26-5.36s-.42-4.17-1.26-5.37c-.84-1.2-1.99-1.8-3.44-1.8s-2.57.6-3.41,1.8c-.84,1.2-1.26,2.99-1.26,5.37s.42,4.17,1.26,5.36c.84,1.2,1.98,1.8,3.41,1.8s2.59-.6,3.44-1.8Z"/><path class="cls-1" d="m300.47,238.94v20.3h-3.77v-17.14h-4.29v-3.16h8.06Z"/><path class="cls-1" d="m319.27,250.52c.57.82.86,1.78.86,2.88,0,1.24-.34,2.32-1.03,3.25-.69.93-1.66,1.64-2.91,2.13-1.26.49-2.72.74-4.38.74s-3.12-.25-4.37-.74c-1.25-.49-2.21-1.2-2.88-2.13-.68-.93-1.02-2.01-1.02-3.25,0-1.1.28-2.06.84-2.88.56-.82,1.36-1.47,2.41-1.96-.81-.44-1.44-1.03-1.87-1.75-.43-.73-.65-1.56-.65-2.51,0-1.14.31-2.14.94-2.99.63-.85,1.51-1.51,2.65-1.97,1.14-.46,2.46-.7,3.94-.7s2.83.23,3.97.7,2.03,1.12,2.67,1.97c.64.85.96,1.85.96,2.99,0,.95-.22,1.78-.67,2.49-.44.71-1.08,1.3-1.91,1.77,1.06.48,1.88,1.14,2.45,1.96Zm-4.16,5.18c.81-.58,1.22-1.38,1.22-2.41s-.41-1.8-1.22-2.38c-.81-.58-1.91-.87-3.31-.87s-2.48.29-3.28.87c-.79.58-1.19,1.37-1.19,2.38s.4,1.83,1.19,2.41,1.88.87,3.28.87,2.49-.29,3.31-.87Zm-6.1-13.34c-.69.5-1.03,1.21-1.03,2.12s.34,1.56,1.03,2.07c.69.51,1.62.77,2.8.77s2.15-.26,2.84-.77c.7-.51,1.04-1.2,1.04-2.07s-.35-1.61-1.06-2.12c-.71-.5-1.65-.75-2.83-.75s-2.11.25-2.8.75Z"/><path class="cls-1" d="m325.84,258.29c-1.28-.82-2.28-2.02-3.02-3.6-.74-1.58-1.1-3.45-1.1-5.61s.37-4.04,1.1-5.61c.73-1.58,1.74-2.77,3.02-3.6,1.28-.82,2.73-1.23,4.35-1.23s3.08.41,4.37,1.23c1.29.82,2.29,2.02,3.03,3.6.73,1.58,1.1,3.45,1.1,5.61s-.37,4.04-1.1,5.61c-.74,1.58-1.75,2.77-3.03,3.6-1.29.82-2.74,1.23-4.37,1.23s-3.07-.41-4.35-1.23Zm7.79-3.84c.84-1.2,1.26-2.99,1.26-5.36s-.42-4.17-1.26-5.37c-.84-1.2-1.99-1.8-3.44-1.8s-2.57.6-3.41,1.8c-.84,1.2-1.26,2.99-1.26,5.37s.42,4.17,1.26,5.36c.84,1.2,1.98,1.8,3.41,1.8s2.6-.6,3.44-1.8Z"/><path class="cls-1" d="m276.99,307.12v3.19h-14.96v-2.52l8.06-7.66c.91-.87,1.52-1.63,1.84-2.28.32-.65.48-1.29.48-1.93,0-.95-.32-1.67-.96-2.17-.64-.5-1.58-.75-2.81-.75-2.07,0-3.65.71-4.76,2.12l-2.64-2.03c.79-1.06,1.86-1.89,3.2-2.48,1.34-.59,2.85-.88,4.51-.88,2.21,0,3.96.52,5.28,1.57,1.31,1.04,1.97,2.46,1.97,4.26,0,1.1-.23,2.14-.7,3.1-.46.97-1.35,2.07-2.67,3.31l-5.42,5.16h9.57Z"/><path class="cls-1" d="m282.36,309.37c-1.28-.82-2.28-2.02-3.02-3.6-.74-1.58-1.1-3.45-1.1-5.61s.37-4.04,1.1-5.61c.73-1.58,1.74-2.77,3.02-3.6,1.28-.82,2.73-1.23,4.35-1.23s3.08.41,4.37,1.23c1.29.82,2.29,2.02,3.03,3.6.73,1.58,1.1,3.45,1.1,5.61s-.37,4.04-1.1,5.61c-.74,1.58-1.75,2.77-3.03,3.6-1.29.82-2.74,1.23-4.37,1.23s-3.07-.41-4.35-1.23Zm7.79-3.84c.84-1.2,1.26-2.99,1.26-5.36s-.42-4.17-1.26-5.37c-.84-1.2-1.99-1.8-3.44-1.8s-2.57.6-3.41,1.8c-.84,1.2-1.26,2.99-1.26,5.37s.42,4.17,1.26,5.36c.84,1.2,1.98,1.8,3.41,1.8s2.6-.6,3.44-1.8Z"/><path class="cls-1" d="m301.04,309.37c-1.28-.82-2.28-2.02-3.02-3.6-.74-1.58-1.1-3.45-1.1-5.61s.37-4.04,1.1-5.61c.73-1.58,1.74-2.77,3.02-3.6,1.28-.82,2.73-1.23,4.35-1.23s3.08.41,4.36,1.23c1.29.82,2.3,2.02,3.03,3.6.73,1.58,1.1,3.45,1.1,5.61s-.37,4.04-1.1,5.61-1.74,2.77-3.03,3.6c-1.29.82-2.74,1.23-4.36,1.23s-3.07-.41-4.35-1.23Zm7.79-3.84c.84-1.2,1.26-2.99,1.26-5.36s-.42-4.17-1.26-5.37c-.84-1.2-1.99-1.8-3.44-1.8s-2.57.6-3.41,1.8c-.84,1.2-1.26,2.99-1.26,5.37s.42,4.17,1.26,5.36c.84,1.2,1.98,1.8,3.41,1.8s2.6-.6,3.44-1.8Z"/><line class="cls-1" x1="157.56" y1="191.48" x2="162.77" y2="196.96"/><path class="cls-1" d="m162.77,197.96c-.26,0-.53-.1-.72-.31l-5.22-5.48c-.38-.4-.37-1.03.04-1.41.4-.38,1.03-.37,1.41.03l5.22,5.48c.38.4.37,1.03-.04,1.41-.19.18-.44.28-.69.28Z"/><line class="cls-1" x1="143.49" y1="209.06" x2="149.23" y2="212.97"/><path class="cls-1" d="m149.23,213.97c-.19,0-.39-.06-.56-.17l-5.74-3.91c-.46-.31-.57-.93-.26-1.39.31-.46.93-.57,1.39-.26l5.74,3.91c.46.31.57.93.26,1.39-.19.28-.51.44-.83.44Z"/><line class="cls-1" x1="133.77" y1="252.25" x2="141.33" y2="251.21"/><path class="cls-1" d="m133.77,253.25c-.49,0-.92-.36-.99-.86-.08-.55.31-1.05.85-1.13l7.57-1.04c.56-.08,1.05.31,1.13.85.08.55-.31,1.05-.85,1.13l-7.57,1.04s-.09,0-.14,0Z"/><line class="cls-1" x1="139.33" y1="272.86" x2="145.85" y2="268.95"/><path class="cls-1" d="m139.33,273.86c-.34,0-.67-.17-.86-.49-.28-.47-.13-1.09.34-1.37l6.52-3.91c.47-.29,1.09-.13,1.37.34.28.47.13,1.09-.34,1.37l-6.52,3.91c-.16.1-.34.14-.51.14Z"/><line class="cls-1" x1="176.38" y1="179.95" x2="179.51" y2="187.25"/><path class="cls-1" d="m179.51,188.26c-.39,0-.76-.23-.92-.61l-3.13-7.3c-.22-.51.02-1.1.53-1.31.5-.22,1.09.02,1.31.52l3.13,7.3c.22.51-.02,1.1-.53,1.31-.13.06-.26.08-.39.08Z"/><line class="cls-1" x1="134.81" y1="229.56" x2="141.99" y2="230.73"/><path class="cls-1" d="m141.99,231.73c-.05,0-.11,0-.16-.01l-7.17-1.17c-.54-.09-.92-.6-.83-1.15.09-.55.6-.91,1.15-.83l7.17,1.17c.54.09.92.6.83,1.15-.08.49-.5.84-.99.84Z"/><path class="cls-1" d="m199.72,185.19c-.55,0-1-.45-1-1v-7.7c0-.55.45-1,1-1s1,.45,1,1v7.7c0,.55-.45,1-1,1Z"/><line class="cls-1" x1="242.41" y1="191.48" x2="237.19" y2="196.96"/><path class="cls-1" d="m237.19,197.96c-.25,0-.5-.09-.69-.28-.4-.38-.42-1.01-.04-1.41l5.22-5.48c.38-.4,1.02-.42,1.41-.03.4.38.42,1.01.04,1.41l-5.22,5.48c-.2.21-.46.31-.72.31Z"/><line class="cls-1" x1="256.66" y1="209.06" x2="250.92" y2="212.97"/><path class="cls-1" d="m250.92,213.97c-.32,0-.63-.15-.83-.44-.31-.46-.19-1.08.26-1.39l5.74-3.91c.46-.31,1.08-.19,1.39.26.31.46.19,1.08-.26,1.39l-5.74,3.91c-.17.12-.37.17-.56.17Z"/><line class="cls-1" x1="266.07" y1="252.25" x2="258.5" y2="251.21"/><path class="cls-1" d="m266.07,253.25s-.09,0-.14,0l-7.56-1.04c-.55-.08-.93-.58-.85-1.13.08-.55.56-.93,1.13-.85l7.56,1.04c.55.08.93.58.85,1.13-.07.5-.5.86-.99.86Z"/><line class="cls-1" x1="259.1" y1="272.86" x2="252.58" y2="268.95"/><path class="cls-1" d="m259.1,273.86c-.17,0-.35-.05-.51-.14l-6.52-3.91c-.47-.28-.63-.9-.34-1.37.28-.47.9-.63,1.37-.34l6.52,3.91c.47.28.63.9.34,1.37-.19.31-.52.49-.86.49Z"/><line class="cls-1" x1="222.06" y1="179.95" x2="218.93" y2="187.25"/><path class="cls-1" d="m218.93,188.26c-.13,0-.27-.03-.39-.08-.51-.22-.74-.81-.53-1.31l3.13-7.3c.22-.51.81-.74,1.31-.52.51.22.74.81.53,1.31l-3.13,7.3c-.16.38-.53.61-.92.61Z"/><line class="cls-1" x1="265.23" y1="229.56" x2="258.05" y2="230.73"/><path class="cls-1" d="m258.05,231.73c-.48,0-.91-.35-.99-.84-.09-.55.28-1.06.83-1.15l7.17-1.17c.54-.08,1.06.28,1.15.83.09.55-.28,1.06-.83,1.15l-7.17,1.17c-.05,0-.11.01-.16.01Z"/><line class="cls-1" x1="245.73" y1="287.73" x2="241.08" y2="281.72"/><path class="cls-1" d="m245.37,288.66c-.16-.06-.31-.17-.43-.32l-4.65-6.02c-.34-.44-.26-1.06.18-1.4.44-.34,1.07-.26,1.4.18l4.65,6.02c.34.44.26,1.06-.18,1.4-.29.22-.66.26-.98.14Z"/></svg>