<?xml version="1.0" encoding="UTF-8"?>
<svg width="200" height="200" version="1.1" xmlns="http://www.w3.org/2000/svg">
 <g fill="none" stroke="white" stroke-width="3">
  <path d="m0 16v-16h16"/>
  <path d="m200 16v-16h-16"/>
  <path d="m0 184v16h16"/>
  <path d="m200 184v16h-16"/>
 </g>
 <g fill="white">
 <path d="m75.605 36.805-54.98 54.98c-1.811 1.811-2.8284 4.2673-2.8284 6.8284v49.91c0 9.5825 7.9175 17.5 17.5 17.5h129.41c9.5826 0 17.5-7.9175 17.5-17.5v-97.047c0-9.5825-7.9174-17.5-17.5-17.5h-82.27c-2.5612 0-5.0174 1.0174-6.8284 2.8284zm8.2151 10.172c10.431 0.58553 85.383 0 85.383 0v53.023h-138.41zm50.531 66.129h20.25c2.7008 0 5 2.2992 5 5v28.676c0 2.7008-2.2992 5-5 5h-20.25l-8.9277-10.439h-76.139l-7.332-7.332v-5.5195l4.9453-4.9453h9.6699l7.7031 7.7051 7.7051-7.7051h17.748l7.7051 7.7051 9.2149-9.2168h18.779zm13 4.7285c-2.2091 0-4 1.7909-4 4v21.219c0 2.2091 1.7909 4 4 4s4-1.7909 4-4v-21.219c0-2.2091-1.7909-4-4-4z"/>
 </g>
</svg>
